<?xml version="1.0" encoding="UTF-8" standalone="no"?>
<!-- Generator: Adobe Illustrator 27.5.0, SVG Export Plug-In . SVG Version: 6.00 Build 0)  -->

<svg
   version="1.1"
   x="0px"
   y="0px"
   viewBox="0 0 200.00001 200"
   xml:space="preserve"
   id="svg572"
   sodipodi:docname="mundos9.svg"
   width="200"
   height="200"
   inkscape:version="1.3 (0e150ed6c4, 2023-07-21)"
   inkscape:export-filename="mundos9.png"
   inkscape:export-xdpi="96"
   inkscape:export-ydpi="96"
   xmlns:inkscape="http://www.inkscape.org/namespaces/inkscape"
   xmlns:sodipodi="http://sodipodi.sourceforge.net/DTD/sodipodi-0.dtd"
   xmlns="http://www.w3.org/2000/svg"
   xmlns:svg="http://www.w3.org/2000/svg"><defs
   id="defs572">&#10;	&#10;	&#10;	&#10;	&#10;	&#10;</defs><sodipodi:namedview
   id="namedview572"
   pagecolor="#ffffff"
   bordercolor="#000000"
   borderopacity="0.25"
   inkscape:showpageshadow="2"
   inkscape:pageopacity="0.0"
   inkscape:pagecheckerboard="0"
   inkscape:deskcolor="#d1d1d1"
   inkscape:zoom="1.674"
   inkscape:cx="140.38232"
   inkscape:cy="150.23895"
   inkscape:window-width="1920"
   inkscape:window-height="1033"
   inkscape:window-x="1912"
   inkscape:window-y="16"
   inkscape:window-maximized="1"
   inkscape:current-layer="svg572" />&#10;<g
   id="BACKGROUND"
   transform="translate(554.5572,-5.020427)">&#10;	<rect
   x="-0.001"
   y="0.001"
   style="fill:#ffffff"
   width="500"
   height="500"
   id="rect1" />&#10;</g>&#10;<g
   id="g167"
   transform="matrix(0.66945943,0,0,0.80646468,-50.88034,-3.8573234)">&#10;		<path
   style="opacity:0.3;fill:#bcbcbc"
   d="m 224.999,204.86 c 0,12.916 -31.557,23.387 -70.483,23.387 -38.927,0 -70.483,-10.471 -70.483,-23.387 0,-12.917 31.557,-23.388 70.483,-23.388 38.926,0 70.483,10.471 70.483,23.388 z"
   id="path1" />&#10;		<g
   id="g10">&#10;			<polygon
   style="fill:#3b328c"
   points="139.225,124.878 139.21,98.336 183.024,98.193 181.382,124.741 "
   id="polygon1" />&#10;			<g
   id="g3">&#10;				<polygon
   style="fill:#635ba7"
   points="137.378,137.286 131.264,137.516 132.076,85.45 136.968,85.266 "
   id="polygon2" />&#10;				<polygon
   style="fill:#3b328c"
   points="137.378,137.286 136.968,85.266 140.533,87.884 140.579,137.166 "
   id="polygon3" />&#10;			</g>&#10;			<g
   id="g5">&#10;				<polygon
   style="fill:#635ba7"
   points="184.715,138.594 178.596,138.614 181.12,86.605 186.015,86.589 "
   id="polygon4" />&#10;				<polygon
   style="fill:#3b328c"
   points="184.715,138.594 186.015,86.589 189.493,89.328 187.917,138.583 "
   id="polygon5" />&#10;			</g>&#10;			<g
   id="g7">&#10;				<polygon
   style="fill:#635ba7"
   points="145.027,140.951 139.047,140.794 140.41,191.682 145.194,191.808 "
   id="polygon6" />&#10;				<polygon
   style="fill:#3b328c"
   points="145.027,140.951 145.194,191.808 148.651,189.21 148.157,141.033 "
   id="polygon7" />&#10;			</g>&#10;			<g
   id="g9">&#10;				<polygon
   style="fill:#635ba7"
   points="186.457,143.383 180.476,143.342 182.766,194.194 187.551,194.227 "
   id="polygon8" />&#10;				<polygon
   style="fill:#3b328c"
   points="186.457,143.383 187.551,194.227 190.96,191.561 189.588,143.404 "
   id="polygon9" />&#10;			</g>&#10;			<polygon
   style="fill:#635ba7"
   points="137.257,121.884 136.005,93.726 181.057,95.2 179.415,121.747 "
   id="polygon10" />&#10;		</g>&#10;		<g
   id="g166">&#10;			<g
   id="g29">&#10;				<g
   id="g19">&#10;					<path
   style="fill:#ed9996"
   d="m 142.193,162.046 1.506,12.491 c 3.988,-2.605 8.415,-4.386 13.032,-5.467 l 0.163,-7.024 z"
   id="path10" />&#10;					<path
   style="fill:#f9c1b9"
   d="m 145.645,190.671 10.583,0.125 0.503,-21.726 c -4.618,1.081 -9.044,2.862 -13.032,5.467 z"
   id="path11" />&#10;					<g
   id="g18">&#10;						<path
   style="fill:#635ba8"
   d="m 145.593,191.239 c 12.636,4.307 10.17,-4.973 10.969,-0.443 0,0 -4.417,15.667 -12.516,15.171 -7.192,-0.44 1.547,-14.728 1.547,-14.728 z"
   id="path12" />&#10;						<path
   style="fill:#f27fb2"
   d="m 152.248,199.363 c 2.648,-4.165 3.981,-9.124 3.981,-9.124 -3.667,0.917 -10.636,0 -10.636,0 0,0 -2.823,4.618 -3.938,8.685 3.493,-1.176 7.137,-0.837 10.593,0.439 z"
   id="path13" />&#10;						<g
   id="g14">&#10;							<path
   style="fill:#f16790"
   d="m 148.649,192.551 c 1.242,-1.112 2.783,-2.47 2.973,-4.218 0.085,-0.756 -0.568,-1.283 -1.167,-0.725 -0.398,0.372 -0.572,1.111 -0.73,1.623 -0.344,1.124 -0.396,2.347 -0.466,3.518 -0.297,-0.011 -0.59,-0.025 -0.882,-0.04 0.069,-1.156 0.167,-2.305 0.161,-3.465 -0.004,-0.424 -0.499,-4.962 -1.653,-3.251 -0.592,0.882 0.497,2.855 0.86,3.643 0.449,0.981 0.983,1.922 1.531,2.854 0.345,0.576 -0.587,1.066 -0.917,0.483 -0.864,-1.518 -4.189,-6.771 -1.565,-8.01 3.312,-1.565 2.531,6.461 2.466,7.786 -0.03,0.568 -0.911,0.531 -0.882,-0.04 0.087,-1.807 0.288,-3.795 1.267,-5.368 0.398,-0.646 1.493,-1.332 2.201,-0.73 2.394,2.049 -1.289,5.346 -2.915,6.338 -0.24,0.148 -0.489,-0.215 -0.282,-0.398 z"
   id="path14" />&#10;						</g>&#10;						<path
   style="fill:#635ba8"
   d="m 141.654,198.924 c -0.847,3.085 -0.711,5.853 2.392,6.043 3.476,0.213 6.21,-2.472 8.202,-5.604 -3.456,-1.276 -7.1,-1.615 -10.594,-0.439 z"
   id="path15" />&#10;						<g
   id="g16">&#10;							<path
   style="fill:#f16790"
   d="m 144.812,193.742 c 2.917,-0.209 5.601,-0.732 8.455,0.217 0.18,0.06 0.306,-0.23 0.13,-0.308 -2.7,-1.197 -5.774,-0.499 -8.585,-0.133 -0.14,0.017 -0.147,0.235 0,0.224 z"
   id="path16" />&#10;						</g>&#10;						<g
   id="g17">&#10;							<path
   style="fill:#f16790"
   d="m 143.962,195.998 c 2.917,-0.209 5.601,-0.732 8.455,0.217 0.18,0.06 0.306,-0.23 0.13,-0.308 -2.7,-1.197 -5.774,-0.499 -8.585,-0.133 -0.139,0.018 -0.147,0.235 0,0.224 z"
   id="path17" />&#10;						</g>&#10;					</g>&#10;				</g>&#10;				<g
   id="g28">&#10;					<path
   style="fill:#ed9996"
   d="m 157.001,162.046 1.506,12.491 c 3.988,-2.605 8.415,-4.386 13.032,-5.467 l 0.163,-7.024 z"
   id="path19" />&#10;					<path
   style="fill:#f9c1b9"
   d="m 160.453,190.671 10.583,0.125 0.503,-21.726 c -4.618,1.081 -9.044,2.862 -13.032,5.467 z"
   id="path20" />&#10;					<g
   id="g27">&#10;						<path
   style="fill:#635ba8"
   d="m 160.4,191.239 c 12.636,4.307 10.17,-4.973 10.969,-0.443 0,0 -4.417,15.667 -12.516,15.171 -7.192,-0.44 1.547,-14.728 1.547,-14.728 z"
   id="path21" />&#10;						<path
   style="fill:#f27fb2"
   d="m 167.055,199.363 c 2.648,-4.165 3.981,-9.124 3.981,-9.124 -3.667,0.917 -10.636,0 -10.636,0 0,0 -2.823,4.618 -3.938,8.685 3.494,-1.176 7.138,-0.837 10.593,0.439 z"
   id="path22" />&#10;						<g
   id="g23">&#10;							<path
   style="fill:#f16790"
   d="m 163.457,192.551 c 1.242,-1.112 2.783,-2.47 2.973,-4.218 0.086,-0.756 -0.568,-1.283 -1.167,-0.725 -0.398,0.372 -0.572,1.111 -0.73,1.623 -0.344,1.124 -0.396,2.347 -0.466,3.518 -0.297,-0.011 -0.59,-0.025 -0.882,-0.04 0.069,-1.156 0.167,-2.305 0.161,-3.465 -0.004,-0.424 -0.5,-4.962 -1.653,-3.251 -0.592,0.882 0.497,2.855 0.86,3.643 0.449,0.981 0.983,1.922 1.531,2.854 0.345,0.576 -0.587,1.066 -0.917,0.483 -0.864,-1.518 -4.189,-6.771 -1.565,-8.01 3.312,-1.565 2.531,6.461 2.466,7.786 -0.03,0.568 -0.911,0.531 -0.882,-0.04 0.087,-1.807 0.288,-3.795 1.267,-5.368 0.398,-0.646 1.493,-1.332 2.201,-0.73 2.394,2.049 -1.289,5.346 -2.915,6.338 -0.24,0.148 -0.49,-0.215 -0.282,-0.398 z"
   id="path23" />&#10;						</g>&#10;						<path
   style="fill:#635ba8"
   d="m 156.462,198.924 c -0.847,3.085 -0.712,5.853 2.392,6.043 3.476,0.213 6.21,-2.472 8.202,-5.604 -3.456,-1.276 -7.1,-1.615 -10.594,-0.439 z"
   id="path24" />&#10;						<g
   id="g25">&#10;							<path
   style="fill:#f16790"
   d="m 159.62,193.742 c 2.917,-0.209 5.601,-0.732 8.455,0.217 0.18,0.06 0.306,-0.23 0.13,-0.308 -2.7,-1.197 -5.774,-0.499 -8.585,-0.133 -0.14,0.017 -0.148,0.235 0,0.224 z"
   id="path25" />&#10;						</g>&#10;						<g
   id="g26">&#10;							<path
   style="fill:#f16790"
   d="m 158.77,195.998 c 2.917,-0.209 5.601,-0.732 8.455,0.217 0.18,0.06 0.306,-0.23 0.13,-0.308 -2.7,-1.197 -5.774,-0.499 -8.585,-0.133 -0.14,0.018 -0.147,0.235 0,0.224 z"
   id="path26" />&#10;						</g>&#10;					</g>&#10;				</g>&#10;				<path
   style="fill:#b4aad3"
   d="m 134.395,157.713 c 0,0 -0.5,6.083 -1.375,8.458 -0.875,2.375 38.135,-1.639 45.25,0 v -20.44 l -43.406,3.482 z"
   id="path28" />&#10;			</g>&#10;			<path
   style="fill:#f1583a"
   d="m 126.472,74.586 1.196,6.204 c 0,0 -14.17,2.404 -20.381,19.17 0,0 1.326,-2.197 2.506,-3.07 0,0 -6.828,10.199 -4.811,22.744 0.05,0.313 0.072,-1.718 3.999,-1.725 2.654,-0.004 9.245,-1.297 12.209,-3.482 5.801,-4.277 9.544,-12.674 10.676,-17.196 2.496,-9.966 1.819,-14.791 1.819,-14.791 0,0 -3.391,-7.128 -7.213,-7.854 z"
   id="path29" />&#10;			<path
   style="fill:#51c0b1"
   d="m 129.781,77.479 c 0,0 -4.247,1.229 -1.694,5.194 2.553,3.966 8.759,6.523 8.813,3.063 0.053,-3.461 -7.119,-8.257 -7.119,-8.257 z"
   id="path30" />&#10;			<path
   style="fill:#f1583a"
   d="m 180.441,76.225 -1.387,6.164 c 0,0 14.088,2.841 19.78,19.79 0,0 -1.258,-2.236 -2.41,-3.146 0,0 6.51,10.405 4.105,22.881 -0.059,0.311 -0.018,-1.72 -3.943,-1.848 -2.653,-0.086 -9.2,-1.582 -12.096,-3.857 -5.667,-4.454 -9.148,-12.963 -10.141,-17.517 -2.187,-10.038 -1.361,-14.84 -1.361,-14.84 0,0 3.611,-7.02 7.453,-7.627 z"
   id="path31" />&#10;			<path
   style="fill:#51c0b1"
   d="m 177.044,79.014 c 0,0 4.207,1.36 1.533,5.245 -2.674,3.885 -8.956,6.249 -8.903,2.789 0.054,-3.462 7.37,-8.034 7.37,-8.034 z"
   id="path32" />&#10;			<g
   id="g70">&#10;				<g
   id="g40">&#10;					<g
   id="g34">&#10;						<path
   style="fill:#f9c1b9"
   d="m 117.211,70.964 c 0.474,3.544 4.098,7.047 11.3,4.53 l 0.077,-5.003 c -3.519,-1.953 -8.01,-1.81 -11.377,0.473 z"
   id="path33" />&#10;						<path
   style="fill:#ed9996"
   d="m 119.382,65.975 c -1.695,0.945 -2.441,2.975 -2.171,4.99 3.367,-2.284 7.858,-2.426 11.377,-0.473 l 0.053,-3.445 c 0.001,-10e-4 -4.581,-3.679 -9.259,-1.072 z"
   id="path34" />&#10;					</g>&#10;					<g
   id="g39">&#10;						<g
   id="g36">&#10;							<g
   id="g35">&#10;								<path
   style="fill:#8e4f4f"
   d="m 120.698,69.969 c 1.897,0.035 4,-0.746 5.538,0.809 1.088,1.1 0.882,3.106 0.906,4.515 0.004,0.268 0.402,0.266 0.413,0 0.071,-1.634 0.022,-3.448 -1.073,-4.761 -1.342,-1.61 -4.053,-1.104 -5.802,-0.696 -0.076,0.018 -0.057,0.132 0.018,0.133 z"
   id="path35" />&#10;							</g>&#10;						</g>&#10;						<g
   id="g38">&#10;							<g
   id="g37">&#10;								<path
   style="fill:#8e4f4f"
   d="m 123.88,71.88 c 0.8,-0.352 1.475,-0.437 2.174,0.16 0.497,0.424 0.769,1.028 1.167,1.531 0.169,0.213 0.437,-0.059 0.346,-0.267 -0.665,-1.529 -2.262,-2.907 -3.845,-1.694 -0.16,0.123 -0.029,0.352 0.158,0.27 z"
   id="path36" />&#10;							</g>&#10;						</g>&#10;					</g>&#10;				</g>&#10;				<g
   id="g47">&#10;					<g
   id="g41">&#10;						<path
   style="fill:#f9c1b9"
   d="m 191.497,72.111 c -0.582,3.528 -4.314,6.917 -11.433,4.179 l 0.077,-5.003 c 3.575,-1.844 8.06,-1.562 11.356,0.824 z"
   id="path40" />&#10;						<path
   style="fill:#ed9996"
   d="m 188.092,67.894 c 1.665,0.997 3.736,2.212 3.404,4.218 -3.296,-2.387 -7.78,-2.668 -11.356,-0.824 l 0.053,-3.445 c 10e-4,-0.001 3.304,-2.7 7.899,0.051 z"
   id="path41" />&#10;					</g>&#10;					<g
   id="g46">&#10;						<g
   id="g43">&#10;							<g
   id="g42">&#10;								<path
   style="fill:#8e4f4f"
   d="m 188.063,70.876 c -1.843,-0.489 -4.051,-0.909 -5.667,0.371 -1.354,1.071 -1.389,3.327 -1.372,4.879 0.003,0.268 0.401,0.265 0.413,0 0.071,-1.513 0.007,-3.168 0.995,-4.423 1.322,-1.681 3.859,-0.714 5.613,-0.694 0.077,0 0.092,-0.113 0.018,-0.133 z"
   id="path42" />&#10;							</g>&#10;						</g>&#10;						<g
   id="g45">&#10;							<g
   id="g44">&#10;								<path
   style="fill:#8e4f4f"
   d="m 184.998,72.578 c -1.562,-1.274 -3.2,0.014 -3.928,1.558 -0.1,0.212 0.174,0.471 0.346,0.267 0.377,-0.447 0.663,-0.953 1.079,-1.372 0.701,-0.707 1.477,-0.605 2.313,-0.207 0.15,0.071 0.337,-0.127 0.19,-0.246 z"
   id="path43" />&#10;							</g>&#10;						</g>&#10;					</g>&#10;				</g>&#10;				<path
   style="fill:#f9c1b9"
   d="m 149.04,97.496 c -0.112,0.46 -0.269,0.897 -0.492,1.289 0,0 5.707,6.235 13.173,1.165 0,0 -0.104,-2.143 0.146,-4.693 -4.352,0.208 -8.6,0.903 -12.827,2.239 z"
   id="path47" />&#10;				<path
   style="fill:#ed9996"
   d="m 162.918,90.273 -14.253,0.956 c 0,0 1.047,3.538 0.375,6.267 4.227,-1.336 8.475,-2.03 12.827,-2.24 0.16,-1.644 0.47,-3.458 1.051,-4.983 z"
   id="path48" />&#10;				<path
   style="fill:#f9c1b9"
   d="m 127.925,65.253 c 0,0 -0.425,9.708 1.837,14.553 2.26,4.845 10.008,10.324 20.434,11.446 10.427,1.122 24.354,-2.098 27.631,-9.604 3.276,-7.509 4.593,-12.709 3.75,-20.417 -0.842,-7.708 -1.201,-11.148 -8.292,-14.693 -7.091,-3.543 -45.701,-21.512 -45.36,18.715 z"
   id="path49" />&#10;				<path
   style="fill:#111111"
   d="m 143.119,69.054 c -0.016,1.024 -0.722,1.844 -1.575,1.831 -0.854,-0.013 -1.533,-0.854 -1.517,-1.878 0.016,-1.024 0.72,-1.844 1.575,-1.831 0.852,0.013 1.533,0.855 1.517,1.878 z"
   id="path50" />&#10;				<path
   style="fill:#111111"
   d="m 168.463,69.446 c -0.016,1.024 -0.72,1.844 -1.573,1.831 -0.855,-0.013 -1.533,-0.854 -1.517,-1.878 0.016,-1.024 0.72,-1.844 1.575,-1.831 0.853,0.012 1.531,0.854 1.515,1.878 z"
   id="path51" />&#10;				<g
   id="g53">&#10;					<g
   id="g52">&#10;						<path
   style="fill:#8e4f4f"
   d="m 153.386,65.686 c -0.254,0.766 -0.334,1.653 -0.526,2.447 -0.15,0.618 -0.282,1.279 -0.067,1.895 0.107,0.306 0.507,0.734 0.86,0.728 0.244,-0.004 0.413,-0.062 0.63,-0.172 0.119,-0.073 0.235,-0.149 0.349,-0.23 0.059,-0.038 0.119,-0.077 0.178,-0.116 0.997,0.75 1.047,1.265 0.152,1.545 -0.298,0.106 -0.169,0.585 0.132,0.477 0.734,-0.265 1.205,-0.815 1.248,-1.604 0.03,-0.543 -0.609,-1.115 -1.142,-1.032 -0.382,0.059 -0.654,0.25 -0.965,0.472 -1.398,0.996 -1.078,-1.413 -0.983,-1.854 0.158,-0.731 0.694,-1.855 0.303,-2.578 -0.039,-0.074 -0.145,-0.05 -0.169,0.022 z"
   id="path52" />&#10;					</g>&#10;				</g>&#10;				<g
   id="g55">&#10;					<g
   id="g54">&#10;						<path
   style="fill:#8e4f4f"
   d="m 152.299,76.596 c -0.459,1.302 1.395,2.204 2.383,2.314 1.485,0.167 2.803,-0.925 2.837,-2.423 0.008,-0.325 -0.527,-0.41 -0.577,-0.078 -0.176,1.182 -0.859,1.923 -2.095,1.953 -0.509,0.013 -0.997,-0.165 -1.423,-0.428 -0.537,-0.33 -0.634,-0.888 -0.973,-1.357 -0.043,-0.06 -0.127,-0.053 -0.152,0.019 z"
   id="path53" />&#10;					</g>&#10;				</g>&#10;				<g
   id="g57">&#10;					<g
   id="g56">&#10;						<path
   style="fill:#8e4f4f"
   d="m 135.571,61.818 c 1.269,-1.71 2.643,-2.669 4.746,-3.072 0.258,-0.049 0.176,-0.416 -0.059,-0.433 -1.812,-0.129 -4.503,1.583 -4.906,3.412 -0.031,0.139 0.139,0.2 0.219,0.093 z"
   id="path55" />&#10;					</g>&#10;				</g>&#10;				<g
   id="g59">&#10;					<g
   id="g58">&#10;						<path
   style="fill:#8e4f4f"
   d="m 166.263,58.457 c 1.763,0.464 3.493,0.75 4.807,2.144 0.273,0.291 0.669,-0.131 0.429,-0.429 -1.09,-1.35 -3.519,-2.309 -5.235,-1.994 -0.146,0.026 -0.134,0.244 -0.001,0.279 z"
   id="path57" />&#10;					</g>&#10;				</g>&#10;				<path
   style="fill:#ed9996"
   d="m 145.446,78.503 c -0.041,2.656 -2.365,4.772 -5.191,4.729 -2.827,-0.044 -5.084,-2.23 -5.043,-4.886 0.041,-2.656 2.365,-4.773 5.192,-4.729 2.825,0.043 5.083,2.231 5.042,4.886 z"
   id="path59" />&#10;				<path
   style="fill:#ed9996"
   d="m 173.436,78.936 c -0.041,2.656 -2.365,4.772 -5.192,4.729 -2.826,-0.044 -5.085,-2.23 -5.044,-4.886 0.041,-2.656 2.366,-4.773 5.192,-4.729 2.827,0.042 5.085,2.23 5.044,4.886 z"
   id="path60" />&#10;				<path
   style="fill:#8e4f4f"
   d="m 139.016,76.789 c -0.004,0.296 -0.22,0.534 -0.483,0.53 -0.263,-0.004 -0.47,-0.248 -0.465,-0.544 0.005,-0.297 0.219,-0.534 0.482,-0.529 0.262,0.003 0.47,0.246 0.466,0.543 z"
   id="path61" />&#10;				<path
   style="fill:#8e4f4f"
   d="m 142.253,79.94 c -0.004,0.296 -0.222,0.534 -0.484,0.53 -0.262,-0.004 -0.471,-0.248 -0.466,-0.544 0.004,-0.297 0.221,-0.535 0.482,-0.53 0.263,0.003 0.473,0.248 0.468,0.544 z"
   id="path62" />&#10;				<path
   style="fill:#8e4f4f"
   d="m 138.22,81.974 c -0.004,0.296 -0.221,0.532 -0.483,0.528 -0.262,-0.004 -0.471,-0.247 -0.466,-0.543 0.005,-0.297 0.221,-0.535 0.483,-0.53 0.261,0.004 0.47,0.248 0.466,0.545 z"
   id="path63" />&#10;				<path
   style="fill:#8e4f4f"
   d="m 144.663,76.098 c -0.004,0.296 -0.221,0.533 -0.481,0.529 -0.263,-0.004 -0.473,-0.248 -0.468,-0.544 0.004,-0.297 0.222,-0.534 0.484,-0.53 0.26,0.004 0.469,0.248 0.465,0.545 z"
   id="path64" />&#10;				<path
   style="fill:#8e4f4f"
   d="m 147.396,81.094 c -0.004,0.296 -0.221,0.533 -0.483,0.529 -0.263,-0.004 -0.471,-0.248 -0.466,-0.544 0.005,-0.297 0.22,-0.534 0.483,-0.53 0.262,0.005 0.471,0.248 0.466,0.545 z"
   id="path65" />&#10;				<path
   style="fill:#8e4f4f"
   d="m 163.424,77.166 c -0.004,0.296 -0.219,0.534 -0.482,0.53 -0.263,-0.004 -0.472,-0.248 -0.467,-0.544 0.005,-0.297 0.221,-0.533 0.484,-0.529 0.262,0.003 0.47,0.246 0.465,0.543 z"
   id="path66" />&#10;				<path
   style="fill:#8e4f4f"
   d="m 165.277,82.391 c -0.004,0.296 -0.22,0.532 -0.482,0.528 -0.263,-0.004 -0.471,-0.247 -0.466,-0.543 0.004,-0.297 0.22,-0.534 0.483,-0.53 0.261,0.005 0.47,0.248 0.465,0.545 z"
   id="path67" />&#10;				<path
   style="fill:#8e4f4f"
   d="m 169.361,77.553 c -0.004,0.296 -0.22,0.533 -0.482,0.529 -0.26,-0.004 -0.47,-0.248 -0.465,-0.544 0.004,-0.297 0.222,-0.534 0.482,-0.53 0.261,0.004 0.47,0.248 0.465,0.545 z"
   id="path68" />&#10;				<path
   style="fill:#8e4f4f"
   d="m 172.175,81.477 c -0.004,0.296 -0.22,0.533 -0.481,0.529 -0.262,-0.004 -0.472,-0.248 -0.467,-0.544 0.005,-0.297 0.222,-0.534 0.484,-0.53 0.26,0.004 0.468,0.247 0.464,0.545 z"
   id="path69" />&#10;				<path
   style="fill:#8e4f4f"
   d="m 168.266,80.88 c -0.004,0.295 -0.22,0.533 -0.481,0.529 -0.262,-0.004 -0.472,-0.248 -0.467,-0.543 0.005,-0.297 0.222,-0.535 0.484,-0.531 0.26,0.004 0.468,0.248 0.464,0.545 z"
   id="path70" />&#10;			</g>&#10;			<path
   style="fill:#f26952"
   d="m 143.226,33.753 c -5.885,9.265 -13.093,17.526 -21.99,23.922 0.737,2.279 1.902,4.796 3.587,7.594 l 2.665,1.032 c 0,0 0.523,-0.031 1.422,-0.156 10.361,-8.622 16.667,-20.554 20.782,-33.62 -2.08,0.112 -4.25,0.483 -6.466,1.228 z"
   id="path71" />&#10;			<path
   style="fill:#f1583a"
   d="m 149.691,32.525 c -4.115,13.065 -10.421,24.998 -20.782,33.62 2.985,-0.414 10.296,-1.91 17.879,-7.133 0,0 -0.357,2.694 -1.919,3.764 -0.349,0.239 0.22,0.411 1.359,0.431 5.049,-9.407 8.093,-19.735 9.673,-30.258 -1.933,-0.353 -4.015,-0.541 -6.21,-0.424 z"
   id="path72" />&#10;			<path
   style="fill:#f26952"
   d="m 155.901,32.948 c -1.58,10.523 -4.624,20.851 -9.673,30.258 1.957,0.035 5.608,-0.386 9.243,-1.697 2.252,-8.864 4.656,-17.948 5.934,-27.011 -1.618,-0.614 -3.469,-1.179 -5.504,-1.55 z"
   id="path73" />&#10;			<path
   style="fill:#f1583a"
   d="m 169.769,38.155 c 1.368,-2.081 3.668,-4.402 1.392,-4.402 -0.837,0 -2.377,2.176 -3.1,3.551 -0.288,-1.773 -2.045,-6.859 -3.257,-6.591 -0.976,0.216 -0.064,3.424 0.704,5.667 -1.076,-0.584 -2.463,-1.258 -4.102,-1.881 -1.278,9.063 -3.682,18.147 -5.934,27.011 3.731,-1.345 7.445,-3.627 9.293,-7.334 l 2.448,-3.796 c 0,0 6.924,14.103 14.594,16.245 0,0 1.933,-2.988 3.336,-10.467 1.336,-7.124 -3.735,-15.99 -15.374,-18.003 z"
   id="path74" />&#10;			<path
   style="fill:#f1583a"
   d="m 142.965,33.836 c -11.568,4.036 -26.744,8.331 -21.73,23.839 8.897,-6.396 16.105,-14.657 21.99,-23.922 -0.086,0.029 -0.173,0.053 -0.26,0.083 z"
   id="path75" />&#10;			<g
   id="g80">&#10;				<path
   style="fill:#ed9996"
   d="m 179.605,92.392 2.511,17.533 c 4.072,-3.247 9.893,-11.726 14.288,-20.929 -5.116,2.927 -10.794,4.379 -16.799,3.396 z"
   id="path76" />&#10;				<path
   style="fill:#f9c1b9"
   d="m 201.586,55.666 c -1.283,-0.142 -2.34,4.913 -2.499,5.714 -0.014,0.068 -0.023,0.117 -0.023,0.117 0,0 0.01,-0.049 0.023,-0.117 0.167,-0.851 1.209,-6.486 -0.256,-6.821 -1.584,-0.362 -2.928,5.983 -2.928,5.983 0,0 1.128,-5.951 -0.464,-6.112 -1.593,-0.161 -2.161,6.844 -2.161,6.844 0,0 -0.279,-3.142 -2.044,-1.943 -1.764,1.198 1.447,7.082 1.447,7.082 0,0 -0.038,0.998 -1.82,6.433 -1.781,5.434 -11.449,18.188 -11.449,18.188 l 0.194,1.358 c 6.005,0.983 11.682,-0.468 16.799,-3.396 1.723,-3.606 3.226,-7.325 4.319,-10.883 3.882,-12.64 2.255,-22.294 0.862,-22.447 z"
   id="path77" />&#10;				<path
   style="fill:#c4badc"
   d="m 175.723,117.714 c 0,0 2.184,-1.827 4.088,-4.014 0.745,-0.856 1.45,-1.767 1.962,-2.646 0.629,-1.083 0.524,-3.881 0.116,-7.077 -0.323,-2.538 -0.835,-5.326 -1.322,-7.708 -0.671,-3.284 -1.291,-5.793 -1.291,-5.793 0,0 -9.948,3.805 -11.288,4.907 l -5.535,0.871 c 0,0 -7.297,3.619 -12.731,-0.953 0,0 -4.463,-1.221 -9.804,2.553 -0.823,0.582 -1.679,1.351 -2.538,2.236 -1.064,1.093 -2.132,2.373 -3.157,3.74 -0.595,0.794 -1.167,1.618 -1.722,2.447 12.514,7.915 27.924,11.614 43.35,12.096 -0.08,-0.41 -0.128,-0.659 -0.128,-0.659 z"
   id="path78" />&#10;				<path
   style="fill:#b4aad3"
   d="m 178.444,131.839 c -0.559,-2.944 -1.128,-5.902 -1.602,-8.352 -0.452,-2.337 -0.811,-4.185 -0.992,-5.113 -15.425,-0.482 -30.836,-4.181 -43.35,-12.096 -0.855,1.279 -1.658,2.573 -2.357,3.818 -0.473,0.838 -0.907,1.655 -1.28,2.42 0,0 3.619,5.165 9.677,6.098 0,0 1.256,2.678 0.971,5.943 -0.221,2.527 -0.486,5.595 -0.735,8.558 -0.255,3.023 -0.494,5.927 -0.649,8.007 -0.093,1.258 -0.157,2.215 -0.176,2.716 -0.123,3.192 12.577,5.479 21.184,5.11 8.607,-0.369 21.383,-3.874 21.679,-3.763 0.084,0.031 -0.288,-2.154 -0.864,-5.303 -0.424,-2.324 -0.96,-5.171 -1.506,-8.043 z"
   id="path79" />&#10;				<path
   style="fill:#f16790"
   d="m 158.894,133.627 c -0.632,0.398 -18.703,-10.659 -12.277,-22.048 7.153,-8.032 11.86,4.576 11.86,4.576 0,0 0.879,-12.352 8.911,-13.08 8.03,-0.727 4.952,22.083 -8.494,30.552 z"
   id="path80" />&#10;				<polygon
   style="fill:#ffcb73"
   points="188.295,145.046 201.313,124.65 120.948,123.046 98.52,145.046 "
   id="polygon80" />&#10;			</g>&#10;			<polygon
   style="fill:#fab21b"
   points="201.063,124.65 188.045,145.046 186.95,153.379 201.063,132.046 "
   id="polygon81" />&#10;			<g
   id="g83">&#10;				<polygon
   style="fill:#fab21b"
   points="134.864,149.213 128.614,149.213 131.364,201.213 136.364,201.213 "
   id="polygon82" />&#10;				<polygon
   style="fill:#f79828"
   points="134.864,149.213 136.364,201.213 139.908,198.463 138.136,149.213 "
   id="polygon83" />&#10;			</g>&#10;			<g
   id="g85">&#10;				<polygon
   style="fill:#fab21b"
   points="193.775,149.213 188.812,148.483 190.275,201.213 195.275,201.213 "
   id="polygon84" />&#10;				<polygon
   style="fill:#f79828"
   points="193.775,149.213 195.275,201.213 198.819,198.463 197.324,143.947 "
   id="polygon85" />&#10;			</g>&#10;			<polygon
   style="fill:#f79828"
   points="187.755,162.046 186.95,153.379 104.609,153.379 104.609,162.046 "
   id="polygon86" />&#10;			<polygon
   style="fill:#f79828"
   points="199.395,134.567 186.95,153.379 187.755,162.046 199.395,141.796 "
   id="polygon87" />&#10;			<g
   id="g89">&#10;				<polygon
   style="fill:#fab21b"
   points="114.145,162.046 107.895,162.046 110.645,214.046 115.645,214.046 "
   id="polygon88" />&#10;				<polygon
   style="fill:#f79828"
   points="114.145,162.046 115.645,214.046 119.188,211.296 117.416,162.046 "
   id="polygon89" />&#10;			</g>&#10;			<g
   id="g91">&#10;				<polygon
   style="fill:#fab21b"
   points="181.906,162.046 175.656,162.046 178.406,214.046 183.406,214.046 "
   id="polygon90" />&#10;				<polygon
   style="fill:#f79828"
   points="181.906,162.046 183.406,214.046 186.95,211.296 185.178,162.046 "
   id="polygon91" />&#10;			</g>&#10;			<path
   style="fill:#fab21b"
   d="m 98.27,145.046 1.542,8.333 h 21.595 c -1.934,-2.217 -3.929,-5.925 -5.762,-8.333 z"
   id="path91" />&#10;			<path
   style="fill:#ffbb43"
   d="m 115.645,145.046 c 1.833,2.409 3.829,6.116 5.762,8.333 h 6.533 c -1.78,-2.391 -4.215,-5.977 -6.148,-8.333 z"
   id="path92" />&#10;			<path
   style="fill:#fab21b"
   d="m 121.792,145.046 c 1.933,2.357 4.368,5.943 6.148,8.333 h 7.451 c -1.29,-2.413 -3.456,-5.945 -4.746,-8.333 z"
   id="path93" />&#10;			<path
   style="fill:#fab21b"
   d="m 188.045,145.046 h -45.852 c 1.263,2.532 3.418,5.876 4.972,8.333 h 39.784 z"
   id="path94" />&#10;			<path
   style="fill:#ffbb43"
   d="m 130.645,145.046 c 1.29,2.388 3.456,5.921 4.746,8.333 h 11.774 c -1.554,-2.458 -3.709,-5.802 -4.972,-8.333 z"
   id="path95" />&#10;			<path
   style="fill:#ed9996"
   d="m 139.757,118.939 c 0,0 -7.433,-2.826 -10.066,-5.378 0,0 -1.652,2.952 -3.052,6.591 4.288,0.67 8.384,2.74 12.635,3.963 0.084,-2.362 0.483,-5.176 0.483,-5.176 z"
   id="path96" />&#10;			<path
   style="fill:#f4b2ab"
   d="m 161.94,133.249 c -12.471,2.009 -25.653,-0.275 -37.212,-5.18 -0.055,1.95 0.387,3.618 1.664,4.606 5.167,4 32.949,3.333 35.475,2.167 1.343,-0.62 0.838,-1.192 0.073,-1.593 z"
   id="path97" />&#10;			<g
   id="g165">&#10;				<g
   id="g105">&#10;					<path
   style="fill:#ebe9f4"
   d="m 146.432,124.65 -8.204,17.896 h 25.879 l 5.621,-17.896 z m 15.963,16.146 c -0.483,0 -0.875,-0.324 -0.875,-0.724 0,-0.4 0.392,-0.724 0.875,-0.724 0.483,0 0.875,0.324 0.875,0.724 0,0.4 -0.392,0.724 -0.875,0.724 z m 2.588,-7.198 c -0.483,0 -0.875,-0.324 -0.875,-0.724 0,-0.4 0.392,-0.724 0.875,-0.724 0.483,0 0.875,0.324 0.875,0.724 0,0.4 -0.392,0.724 -0.875,0.724 z m 1.75,-5.994 c -0.483,0 -0.875,-0.324 -0.875,-0.724 0,-0.4 0.392,-0.724 0.875,-0.724 0.483,0 0.875,0.324 0.875,0.724 0,0.399 -0.392,0.724 -0.875,0.724 z"
   id="path98" />&#10;					<g
   id="g99">&#10;						<path
   style="fill:#f1583a"
   d="m 159.819,141.427 c 1.995,-5.098 3.74,-10.584 5.032,-15.908 0.066,-0.272 -0.314,-0.365 -0.411,-0.113 -1.982,5.118 -3.572,10.622 -4.968,15.926 -0.061,0.229 0.264,0.307 0.347,0.095 z"
   id="path99" />&#10;					</g>&#10;					<g
   id="g100">&#10;						<path
   style="fill:#7acfe7"
   d="m 141.628,137.736 c 5.463,0.351 15.819,0.346 21.285,-0.042 0.279,-0.02 0.253,-0.41 -0.018,-0.426 -5.478,-0.332 -15.805,-0.174 -21.282,0.108 -0.237,0.012 -0.213,0.345 0.015,0.36 z"
   id="path100" />&#10;					</g>&#10;					<g
   id="g101">&#10;						<path
   style="fill:#7acfe7"
   d="m 142.375,134.665 c 5.463,0.35 15.819,0.346 21.285,-0.042 0.279,-0.02 0.252,-0.41 -0.018,-0.426 -5.478,-0.332 -15.805,-0.174 -21.282,0.108 -0.236,0.012 -0.212,0.345 0.015,0.36 z"
   id="path101" />&#10;					</g>&#10;					<g
   id="g102">&#10;						<path
   style="fill:#7acfe7"
   d="m 144.418,132.128 c 5.086,0.301 14.731,0.255 19.822,-0.124 0.26,-0.019 0.236,-0.378 -0.015,-0.392 -5.101,-0.284 -14.718,-0.097 -19.82,0.185 -0.22,0.012 -0.199,0.319 0.013,0.331 z"
   id="path102" />&#10;					</g>&#10;					<g
   id="g103">&#10;						<path
   style="fill:#7acfe7"
   d="m 144.852,129.669 c 5.086,0.301 14.731,0.255 19.822,-0.124 0.26,-0.019 0.236,-0.378 -0.015,-0.392 -5.101,-0.284 -14.718,-0.097 -19.82,0.185 -0.221,0.012 -0.199,0.319 0.013,0.331 z"
   id="path103" />&#10;					</g>&#10;					<g
   id="g104">&#10;						<path
   style="fill:#7acfe7"
   d="m 145.623,127.169 c 5.086,0.301 14.731,0.255 19.822,-0.124 0.26,-0.019 0.236,-0.378 -0.015,-0.392 -5.101,-0.284 -14.718,-0.097 -19.82,0.185 -0.22,0.012 -0.199,0.319 0.013,0.331 z"
   id="path104" />&#10;					</g>&#10;				</g>&#10;				<g
   id="g109">&#10;					<path
   style="fill:#51c0b1"
   d="m 126.982,142.28 -25.184,-3.733 c 0,0 10.771,-7.075 12.817,-11.543 l 20.573,3.093 c 0,0 7.447,-1.06 5.783,2.758 -1.663,3.817 -12.727,8.392 -13.989,9.425 z"
   id="path105" />&#10;					<path
   style="fill:#ebe9f4"
   d="m 135.203,131.31 5.274,1.391 c 0,0 -6.154,6.277 -11.998,7.627 l -24.4,-3.617 10.537,-9.708 z"
   id="path106" />&#10;					<path
   style="fill:#ebe9f4"
   d="m 134.857,129.985 5.274,1.391 c 0,0 -6.154,6.277 -11.998,7.628 l -24.4,-3.617 10.537,-9.708 z"
   id="path107" />&#10;					<path
   style="fill:#51c0b1"
   d="m 127.448,138.003 -25.531,-3.784 c 0,0 10.94,-8.084 13.985,-9.365 2.715,-1.143 21.08,2.336 21.08,2.336 0,0 4.307,0.3 3.151,2.835 -1.157,2.535 -11.573,7.291 -12.685,7.978 z"
   id="path108" />&#10;					<path
   style="fill:#009599"
   d="m 101.917,134.218 25.531,3.784 c 0,0 1.321,3.029 -0.465,4.277 l -25.184,-3.733 c 0,0.001 -1.296,-0.876 0.118,-4.328 z"
   id="path109" />&#10;				</g>&#10;				<g
   id="g156">&#10;					<g
   id="g155">&#10;						<path
   style="fill:#3b328c"
   d="m 188.447,130.2 -0.28,-0.069 0.366,0.63 c 0.02,0.026 0.015,0.058 -0.011,0.072 -0.026,0.015 -0.063,0.005 -0.083,-0.02 l -0.332,-0.426 -0.281,0.155 0.333,0.426 c 0.02,0.026 0.015,0.058 -0.011,0.073 -0.026,0.013 -0.063,0.005 -0.083,-0.021 l -0.333,-0.426 -0.262,0.146 0.332,0.425 c 0.02,0.026 0.015,0.058 -0.01,0.072 -0.026,0.015 -0.063,0.005 -0.083,-0.02 l -0.333,-0.426 -0.232,0.129 0.499,0.641 c 0.045,0.058 0.034,0.131 -0.024,0.163 -0.059,0.032 -0.143,0.012 -0.188,-0.045 l -0.5,-0.642 -0.291,0.161 0.332,0.426 c 0.021,0.025 0.016,0.058 -0.011,0.072 -0.026,0.015 -0.063,0.005 -0.083,-0.021 l -0.332,-0.425 -0.319,0.177 0.332,0.425 c 0.019,0.026 0.015,0.058 -0.011,0.073 -0.027,0.014 -0.064,0.006 -0.083,-0.02 l -0.332,-0.426 -0.312,0.171 0.333,0.426 c 0.02,0.026 0.015,0.058 -0.011,0.073 -0.026,0.013 -0.063,0.005 -0.083,-0.021 l -0.333,-0.426 -0.281,0.155 0.333,0.426 c 0.02,0.026 0.015,0.058 -0.011,0.071 -0.026,0.015 -0.063,0.005 -0.083,-0.02 l -0.333,-0.426 -0.263,0.145 0.333,0.426 c 0.02,0.026 0.015,0.058 -0.011,0.072 -0.026,0.014 -0.063,0.005 -0.083,-0.021 l -0.332,-0.426 -0.317,0.175 0.501,0.642 c 0.045,0.058 0.034,0.13 -0.024,0.163 -0.059,0.032 -0.143,0.012 -0.188,-0.046 l -0.5,-0.64 -0.292,0.16 0.333,0.426 c 0.019,0.026 0.014,0.058 -0.011,0.072 -0.026,0.015 -0.063,0.005 -0.083,-0.021 l -0.333,-0.426 -0.32,0.178 0.333,0.426 c 0.02,0.025 0.015,0.057 -0.011,0.072 -0.026,0.015 -0.063,0.005 -0.082,-0.021 l -0.333,-0.426 -0.311,0.173 0.331,0.425 c 0.02,0.026 0.015,0.058 -0.011,0.072 -0.025,0.015 -0.063,0.006 -0.083,-0.02 l -0.333,-0.426 -0.28,0.156 0.332,0.426 c 0.02,0.026 0.015,0.058 -0.01,0.072 -0.026,0.014 -0.063,0.005 -0.083,-0.02 l -0.331,-0.426 -0.263,0.145 0.332,0.426 c 0.02,0.026 0.015,0.058 -0.011,0.072 -0.026,0.014 -0.063,0.006 -0.082,-0.019 l -0.333,-0.428 -0.317,0.177 0.5,0.641 c 0.045,0.058 0.035,0.131 -0.025,0.163 -0.059,0.033 -0.142,0.012 -0.188,-0.045 l -0.5,-0.641 -0.292,0.161 0.333,0.426 c 0.02,0.025 0.015,0.057 -0.01,0.072 -0.026,0.014 -0.063,0.005 -0.083,-0.021 l -0.332,-0.425 -0.321,0.177 0.333,0.426 c 0.02,0.026 0.015,0.057 -0.011,0.072 -0.026,0.015 -0.063,0.004 -0.083,-0.02 l -0.333,-0.426 -0.311,0.172 0.332,0.427 c 0.02,0.025 0.015,0.058 -0.011,0.071 -0.025,0.015 -0.063,0.006 -0.082,-0.02 l -0.333,-0.426 -0.281,0.155 0.333,0.426 c 0.02,0.025 0.015,0.058 -0.011,0.071 -0.025,0.014 -0.063,0.005 -0.083,-0.02 l -0.332,-0.426 -0.263,0.145 0.332,0.426 c 0.02,0.025 0.015,0.058 -0.011,0.072 -0.026,0.014 -0.063,0.005 -0.082,-0.021 l -0.332,-0.426 -0.318,0.176 0.499,0.641 c 0.046,0.058 0.035,0.132 -0.024,0.164 -0.059,0.032 -0.143,0.012 -0.188,-0.046 l -0.5,-0.641 -0.29,0.162 0.331,0.425 c 0.02,0.026 0.016,0.058 -0.011,0.072 -0.025,0.014 -0.063,0.005 -0.083,-0.021 l -0.332,-0.426 -0.32,0.177 0.333,0.426 c 0.02,0.025 0.015,0.058 -0.011,0.072 -0.025,0.015 -0.063,0.006 -0.083,-0.02 l -0.332,-0.425 -0.313,0.172 0.333,0.426 c 0.02,0.025 0.015,0.058 -0.011,0.073 -0.026,0.014 -0.063,0.004 -0.083,-0.02 l -0.332,-0.427 -0.28,0.155 0.332,0.427 c 0.02,0.025 0.015,0.058 -0.011,0.072 -0.027,0.013 -0.063,0.005 -0.083,-0.02 l -0.333,-0.426 -0.263,0.145 0.332,0.426 c 0.02,0.026 0.015,0.058 -0.01,0.071 -0.026,0.015 -0.064,0.006 -0.083,-0.02 l -0.333,-0.426 -0.317,0.175 0.501,0.641 c 0.045,0.058 0.034,0.131 -0.025,0.164 -0.058,0.032 -0.142,0.013 -0.187,-0.046 l -0.501,-0.641 -0.291,0.162 0.333,0.426 c 0.02,0.025 0.016,0.057 -0.01,0.071 -0.026,0.016 -0.063,0.007 -0.083,-0.02 l -0.332,-0.425 -0.319,0.176 0.332,0.426 c 0.02,0.025 0.015,0.058 -0.011,0.072 -0.026,0.013 -0.063,0.005 -0.083,-0.02 l -0.332,-0.426 -0.311,0.172 0.332,0.426 c 0.02,0.025 0.015,0.057 -0.011,0.072 -0.026,0.014 -0.063,0.006 -0.083,-0.021 l -0.332,-0.425 -0.28,0.155 0.332,0.426 c 0.02,0.026 0.015,0.059 -0.01,0.072 -0.026,0.014 -0.063,0.006 -0.083,-0.02 l -0.332,-0.427 -0.263,0.146 0.333,0.426 c 0.02,0.026 0.015,0.058 -0.011,0.073 -0.026,0.014 -0.063,0.005 -0.083,-0.021 l -0.333,-0.426 -0.317,0.176 0.5,0.642 c 0.045,0.058 0.034,0.131 -0.025,0.163 -0.059,0.031 -0.143,0.012 -0.188,-0.046 l -0.5,-0.641 -0.292,0.161 0.333,0.426 c 0.02,0.025 0.014,0.058 -0.011,0.072 -0.026,0.015 -0.063,0.005 -0.083,-0.02 l -0.333,-0.426 -0.32,0.177 0.332,0.426 c 0.02,0.025 0.015,0.058 -0.011,0.072 -0.026,0.014 -0.063,0.005 -0.083,-0.021 l -0.333,-0.426 -0.312,0.172 0.333,0.427 c 0.019,0.025 0.015,0.058 -0.012,0.071 -0.025,0.014 -0.063,0.005 -0.083,-0.02 l -0.333,-0.426 -0.28,0.155 0.332,0.426 c 0.02,0.026 0.015,0.058 -0.011,0.072 -0.026,0.014 -0.063,0.006 -0.083,-0.02 l -0.333,-0.426 -0.263,0.146 0.332,0.426 c 0.021,0.026 0.016,0.058 -0.011,0.072 -0.025,0.014 -0.063,0.005 -0.083,-0.021 l -0.332,-0.425 -0.317,0.174 0.501,0.642 c 0.045,0.058 0.034,0.131 -0.024,0.164 -0.059,0.032 -0.144,0.012 -0.188,-0.046 l -0.501,-0.641 -0.29,0.162 0.332,0.426 c 0.02,0.024 0.014,0.057 -0.011,0.072 -0.026,0.013 -0.063,0.005 -0.083,-0.021 l -0.333,-0.426 -0.319,0.178 0.332,0.425 c 0.02,0.026 0.015,0.058 -0.011,0.072 -0.025,0.015 -0.063,0.006 -0.083,-0.02 l -0.332,-0.425 -0.311,0.172 0.332,0.426 c 0.02,0.026 0.014,0.058 -0.011,0.073 -0.026,0.014 -0.063,0.005 -0.083,-0.02 l -0.333,-0.426 -0.104,0.057 2.468,3.455 17.666,-9.775 z"
   id="path110" />&#10;						<path
   style="fill:#3b328c"
   d="m 172.548,142.421 0.638,0.819 17.509,-9.687 -0.993,-1.344 c -4.845,4.286 -10.959,7.51 -17.154,10.212 z"
   id="path111" />&#10;						<path
   style="fill:#635ba7"
   d="m 189.702,132.208 -1.534,-2.078 -0.247,0.136 0.333,0.425 c 0.019,0.027 0.015,0.058 -0.011,0.072 -0.026,0.015 -0.063,0.006 -0.083,-0.02 l -0.333,-0.426 -0.28,0.155 0.332,0.426 c 0.021,0.025 0.016,0.058 -0.011,0.071 -0.025,0.015 -0.063,0.005 -0.082,-0.02 l -0.332,-0.425 -0.263,0.145 0.332,0.426 c 0.02,0.025 0.015,0.058 -0.011,0.072 -0.025,0.014 -0.063,0.005 -0.083,-0.021 l -0.332,-0.425 -0.232,0.128 0.499,0.642 c 0.045,0.058 0.035,0.131 -0.024,0.163 -0.059,0.033 -0.143,0.012 -0.189,-0.045 l -0.499,-0.642 -0.291,0.161 0.331,0.426 c 0.021,0.025 0.015,0.057 -0.01,0.073 -0.026,0.014 -0.063,0.004 -0.083,-0.021 l -0.332,-0.426 -0.32,0.177 0.332,0.426 c 0.02,0.025 0.015,0.058 -0.011,0.071 -0.025,0.015 -0.063,0.006 -0.083,-0.02 l -0.331,-0.426 -0.313,0.172 0.332,0.426 c 0.021,0.025 0.016,0.058 -0.01,0.072 -0.026,0.015 -0.063,0.005 -0.083,-0.02 l -0.332,-0.426 -0.281,0.155 0.332,0.426 c 0.02,0.026 0.015,0.059 -0.011,0.072 -0.025,0.014 -0.062,0.005 -0.083,-0.021 l -0.332,-0.426 -0.262,0.146 0.333,0.426 c 0.02,0.026 0.015,0.058 -0.011,0.072 -0.026,0.014 -0.064,0.005 -0.083,-0.02 l -0.332,-0.426 -0.317,0.175 0.5,0.641 c 0.044,0.058 0.034,0.131 -0.024,0.163 -0.058,0.032 -0.143,0.011 -0.188,-0.046 l -0.501,-0.641 -0.29,0.162 0.332,0.425 c 0.02,0.026 0.015,0.058 -0.011,0.072 -0.025,0.015 -0.063,0.006 -0.083,-0.019 l -0.332,-0.427 -0.32,0.177 0.332,0.426 c 0.019,0.026 0.015,0.058 -0.011,0.072 -0.026,0.015 -0.062,0.005 -0.083,-0.02 l -0.332,-0.426 -0.313,0.173 0.333,0.426 c 0.02,0.026 0.015,0.058 -0.01,0.071 -0.026,0.015 -0.063,0.006 -0.083,-0.019 l -0.332,-0.427 -0.281,0.155 0.332,0.426 c 0.019,0.025 0.015,0.058 -0.011,0.072 -0.026,0.015 -0.063,0.005 -0.083,-0.02 l -0.333,-0.426 -0.263,0.146 0.332,0.425 c 0.02,0.026 0.015,0.058 -0.01,0.073 -0.026,0.014 -0.063,0.005 -0.083,-0.021 l -0.333,-0.426 -0.317,0.175 0.501,0.641 c 0.045,0.057 0.033,0.131 -0.025,0.163 -0.058,0.032 -0.143,0.011 -0.188,-0.046 l -0.499,-0.641 -0.292,0.162 0.333,0.426 c 0.02,0.025 0.015,0.058 -0.011,0.072 -0.025,0.014 -0.063,0.005 -0.082,-0.02 l -0.333,-0.427 -0.32,0.178 0.332,0.425 c 0.02,0.026 0.016,0.058 -0.011,0.072 -0.024,0.015 -0.062,0.006 -0.083,-0.02 l -0.332,-0.426 -0.312,0.172 0.332,0.426 c 0.021,0.026 0.016,0.058 -0.011,0.072 -0.025,0.014 -0.063,0.005 -0.083,-0.02 l -0.333,-0.426 -0.28,0.156 0.332,0.425 c 0.02,0.025 0.015,0.058 -0.011,0.072 -0.026,0.015 -0.063,0.005 -0.082,-0.02 l -0.332,-0.426 -0.263,0.145 0.333,0.426 c 0.02,0.026 0.015,0.058 -0.01,0.073 -0.026,0.014 -0.063,0.005 -0.083,-0.021 l -0.332,-0.426 -0.318,0.176 0.501,0.642 c 0.045,0.057 0.034,0.13 -0.024,0.163 -0.059,0.032 -0.142,0.011 -0.189,-0.047 l -0.499,-0.641 -0.292,0.162 0.333,0.425 c 0.02,0.026 0.014,0.058 -0.012,0.072 -0.025,0.015 -0.063,0.005 -0.083,-0.02 l -0.332,-0.426 -0.32,0.177 0.332,0.426 c 0.021,0.024 0.016,0.057 -0.01,0.071 -0.026,0.015 -0.063,0.005 -0.083,-0.02 l -0.332,-0.426 -0.312,0.172 0.332,0.426 c 0.02,0.026 0.015,0.058 -0.011,0.072 -0.026,0.014 -0.063,0.006 -0.083,-0.02 l -0.332,-0.426 -0.28,0.155 0.333,0.425 c 0.02,0.026 0.015,0.058 -0.011,0.073 -0.026,0.015 -0.063,0.005 -0.083,-0.021 l -0.331,-0.425 -0.263,0.145 0.331,0.425 c 0.021,0.026 0.016,0.058 -0.01,0.072 -0.026,0.014 -0.064,0.006 -0.084,-0.02 l -0.332,-0.425 -0.318,0.176 0.5,0.641 c 0.045,0.056 0.035,0.13 -0.024,0.163 -0.058,0.032 -0.143,0.011 -0.188,-0.046 l -0.5,-0.64 -0.291,0.16 0.332,0.426 c 0.02,0.026 0.016,0.058 -0.011,0.072 -0.025,0.014 -0.063,0.005 -0.083,-0.02 l -0.333,-0.426 -0.32,0.177 0.333,0.426 c 0.019,0.026 0.015,0.058 -0.011,0.072 -0.026,0.014 -0.063,0.005 -0.083,-0.02 l -0.332,-0.426 -0.312,0.172 0.333,0.426 c 0.02,0.026 0.015,0.058 -0.011,0.072 -0.026,0.015 -0.063,0.005 -0.083,-0.02 l -0.332,-0.426 -0.281,0.155 0.333,0.426 c 0.02,0.026 0.015,0.057 -0.011,0.073 -0.026,0.013 -0.063,0.004 -0.083,-0.021 l -0.332,-0.426 -0.263,0.146 0.332,0.427 c 0.02,0.025 0.016,0.057 -0.01,0.071 -0.026,0.015 -0.063,0.006 -0.083,-0.02 l -0.333,-0.426 -0.317,0.176 0.499,0.641 c 0.046,0.058 0.034,0.131 -0.024,0.164 -0.058,0.033 -0.143,0.012 -0.188,-0.046 l -0.499,-0.641 -0.291,0.161 0.331,0.426 c 0.021,0.025 0.015,0.058 -0.011,0.072 -0.025,0.014 -0.063,0.005 -0.083,-0.02 l -0.333,-0.425 -0.32,0.176 0.332,0.426 c 0.02,0.026 0.015,0.058 -0.011,0.072 -0.026,0.014 -0.063,0.005 -0.082,-0.02 l -0.333,-0.426 -0.311,0.173 0.332,0.426 c 0.02,0.025 0.015,0.057 -0.011,0.072 -0.026,0.014 -0.063,0.006 -0.083,-0.02 l -0.332,-0.426 -0.281,0.155 0.333,0.426 c 0.02,0.026 0.015,0.058 -0.01,0.072 -0.026,0.015 -0.063,0.006 -0.083,-0.02 l -0.332,-0.426 -0.263,0.145 0.333,0.426 c 0.02,0.025 0.015,0.057 -0.011,0.072 -0.026,0.015 -0.063,0.005 -0.083,-0.021 l -0.333,-0.426 -0.316,0.176 0.499,0.64 c 0.045,0.058 0.035,0.131 -0.024,0.164 -0.059,0.033 -0.143,0.012 -0.188,-0.045 l -0.499,-0.642 -0.292,0.162 0.332,0.425 c 0.02,0.026 0.015,0.059 -0.011,0.072 -0.025,0.015 -0.063,0.005 -0.081,-0.02 l -0.333,-0.426 -0.321,0.177 0.333,0.426 c 0.02,0.025 0.014,0.058 -0.011,0.072 -0.026,0.014 -0.063,0.004 -0.083,-0.02 l -0.332,-0.427 -0.312,0.173 0.332,0.425 c 0.02,0.026 0.015,0.057 -0.011,0.073 -0.025,0.014 -0.063,0.004 -0.083,-0.021 l -0.332,-0.425 -0.104,0.057 1.988,2.548 c 6.196,-2.695 12.31,-5.919 17.155,-10.206 z"
   id="path112" />&#10;						<path
   style="fill:#3b328c"
   d="m 187.339,131.655 c 0.059,-0.032 0.069,-0.105 0.024,-0.163 l -0.499,-0.642 -0.212,0.118 0.499,0.642 c 0.045,0.057 0.13,0.078 0.188,0.045 z"
   id="path113" />&#10;						<path
   style="fill:#3b328c"
   d="m 184.875,133.019 c 0.058,-0.032 0.069,-0.105 0.024,-0.163 l -0.5,-0.641 -0.213,0.117 0.501,0.641 c 0.045,0.057 0.13,0.078 0.188,0.046 z"
   id="path114" />&#10;						<path
   style="fill:#3b328c"
   d="m 182.411,134.382 c 0.058,-0.033 0.07,-0.106 0.025,-0.163 l -0.501,-0.641 -0.212,0.117 0.499,0.641 c 0.047,0.058 0.131,0.079 0.189,0.046 z"
   id="path115" />&#10;						<path
   style="fill:#3b328c"
   d="m 179.947,135.746 c 0.058,-0.033 0.069,-0.106 0.024,-0.163 l -0.501,-0.642 -0.211,0.117 0.499,0.641 c 0.047,0.058 0.131,0.079 0.189,0.047 z"
   id="path116" />&#10;						<path
   style="fill:#3b328c"
   d="m 177.483,137.109 c 0.059,-0.033 0.069,-0.106 0.024,-0.163 l -0.5,-0.641 -0.212,0.117 0.5,0.64 c 0.045,0.059 0.13,0.08 0.188,0.047 z"
   id="path117" />&#10;						<path
   style="fill:#3b328c"
   d="m 175.019,138.473 c 0.059,-0.033 0.07,-0.105 0.024,-0.164 l -0.499,-0.641 -0.212,0.117 0.499,0.641 c 0.045,0.058 0.13,0.08 0.188,0.047 z"
   id="path118" />&#10;						<path
   style="fill:#3b328c"
   d="m 172.555,139.836 c 0.06,-0.032 0.07,-0.106 0.024,-0.164 l -0.499,-0.64 -0.212,0.117 0.499,0.642 c 0.046,0.057 0.13,0.078 0.188,0.045 z"
   id="path119" />&#10;						<path
   style="fill:#3b328c"
   d="m 186.682,131.628 c 0.025,-0.016 0.031,-0.048 0.01,-0.073 l -0.331,-0.426 -0.094,0.052 0.332,0.426 c 0.02,0.026 0.057,0.036 0.083,0.021 z"
   id="path120" />&#10;						<path
   style="fill:#3b328c"
   d="m 184.218,132.991 c 0.025,-0.014 0.03,-0.046 0.011,-0.072 l -0.332,-0.425 -0.094,0.051 0.332,0.427 c 0.02,0.025 0.057,0.033 0.083,0.019 z"
   id="path121" />&#10;						<path
   style="fill:#3b328c"
   d="m 181.753,134.355 c 0.026,-0.015 0.031,-0.047 0.011,-0.072 l -0.333,-0.426 -0.094,0.051 0.333,0.427 c 0.02,0.025 0.058,0.034 0.083,0.02 z"
   id="path122" />&#10;						<path
   style="fill:#3b328c"
   d="m 179.29,135.718 c 0.026,-0.014 0.031,-0.046 0.012,-0.072 l -0.333,-0.425 -0.094,0.052 0.332,0.426 c 0.02,0.024 0.057,0.034 0.083,0.019 z"
   id="path123" />&#10;						<path
   style="fill:#3b328c"
   d="m 176.826,137.082 c 0.026,-0.014 0.031,-0.046 0.011,-0.072 l -0.332,-0.426 -0.094,0.052 0.333,0.426 c 0.019,0.025 0.056,0.033 0.082,0.02 z"
   id="path124" />&#10;						<path
   style="fill:#3b328c"
   d="m 174.362,138.445 c 0.026,-0.014 0.031,-0.047 0.011,-0.072 l -0.331,-0.426 -0.094,0.052 0.333,0.425 c 0.018,0.026 0.055,0.035 0.081,0.021 z"
   id="path125" />&#10;						<path
   style="fill:#3b328c"
   d="m 171.897,139.808 c 0.026,-0.014 0.031,-0.046 0.011,-0.072 l -0.332,-0.425 -0.093,0.051 0.333,0.426 c 0.019,0.025 0.056,0.035 0.081,0.02 z"
   id="path126" />&#10;						<path
   style="fill:#3b328c"
   d="m 186.268,131.856 c 0.026,-0.014 0.031,-0.046 0.011,-0.071 l -0.332,-0.426 -0.093,0.052 0.331,0.426 c 0.02,0.025 0.057,0.034 0.083,0.019 z"
   id="path127" />&#10;						<path
   style="fill:#3b328c"
   d="m 183.804,133.22 c 0.026,-0.015 0.03,-0.046 0.011,-0.072 l -0.332,-0.426 -0.093,0.052 0.332,0.426 c 0.02,0.025 0.056,0.034 0.082,0.02 z"
   id="path128" />&#10;						<path
   style="fill:#3b328c"
   d="m 181.34,134.583 c 0.026,-0.015 0.031,-0.046 0.011,-0.072 l -0.332,-0.425 -0.093,0.051 0.332,0.426 c 0.02,0.026 0.057,0.035 0.082,0.02 z"
   id="path129" />&#10;						<path
   style="fill:#3b328c"
   d="m 178.876,135.946 c 0.026,-0.014 0.031,-0.046 0.01,-0.071 l -0.332,-0.426 -0.093,0.052 0.332,0.426 c 0.02,0.025 0.057,0.034 0.083,0.019 z"
   id="path130" />&#10;						<path
   style="fill:#3b328c"
   d="m 176.413,137.311 c 0.026,-0.014 0.03,-0.046 0.011,-0.072 l -0.333,-0.426 -0.093,0.052 0.332,0.426 c 0.019,0.025 0.057,0.033 0.083,0.02 z"
   id="path131" />&#10;						<path
   style="fill:#3b328c"
   d="m 173.948,138.673 c 0.026,-0.014 0.031,-0.046 0.011,-0.072 l -0.332,-0.426 -0.094,0.052 0.333,0.426 c 0.019,0.026 0.056,0.035 0.082,0.02 z"
   id="path132" />&#10;						<path
   style="fill:#3b328c"
   d="m 171.484,140.038 c 0.025,-0.015 0.031,-0.047 0.011,-0.072 l -0.333,-0.426 -0.093,0.051 0.332,0.427 c 0.02,0.024 0.057,0.033 0.083,0.02 z"
   id="path133" />&#10;						<path
   style="fill:#3b328c"
   d="m 185.863,132.081 c 0.026,-0.014 0.031,-0.046 0.01,-0.072 l -0.332,-0.426 -0.093,0.052 0.332,0.426 c 0.02,0.026 0.057,0.035 0.083,0.02 z"
   id="path134" />&#10;						<path
   style="fill:#3b328c"
   d="m 183.399,133.444 c 0.025,-0.014 0.031,-0.045 0.01,-0.071 l -0.333,-0.426 -0.093,0.052 0.332,0.427 c 0.021,0.024 0.058,0.032 0.084,0.018 z"
   id="path135" />&#10;						<path
   style="fill:#3b328c"
   d="m 180.934,134.808 c 0.027,-0.015 0.032,-0.046 0.011,-0.072 l -0.332,-0.426 -0.094,0.052 0.333,0.426 c 0.02,0.026 0.057,0.034 0.082,0.02 z"
   id="path136" />&#10;						<path
   style="fill:#3b328c"
   d="m 178.471,136.171 c 0.026,-0.014 0.031,-0.046 0.011,-0.072 l -0.332,-0.426 -0.094,0.052 0.332,0.426 c 0.02,0.026 0.056,0.034 0.083,0.02 z"
   id="path137" />&#10;						<path
   style="fill:#3b328c"
   d="m 176.007,137.535 c 0.025,-0.015 0.03,-0.046 0.011,-0.072 l -0.333,-0.426 -0.093,0.052 0.332,0.426 c 0.02,0.025 0.057,0.034 0.083,0.02 z"
   id="path138" />&#10;						<path
   style="fill:#3b328c"
   d="m 173.543,138.898 c 0.025,-0.015 0.031,-0.047 0.011,-0.072 l -0.332,-0.426 -0.094,0.051 0.332,0.426 c 0.02,0.027 0.057,0.035 0.083,0.021 z"
   id="path139" />&#10;						<path
   style="fill:#3b328c"
   d="m 171.079,140.262 c 0.026,-0.016 0.031,-0.046 0.011,-0.073 l -0.332,-0.425 -0.093,0.052 0.332,0.425 c 0.019,0.025 0.056,0.034 0.082,0.021 z"
   id="path140" />&#10;						<path
   style="fill:#3b328c"
   d="m 185.488,132.288 c 0.026,-0.014 0.031,-0.046 0.011,-0.072 l -0.332,-0.426 -0.094,0.051 0.332,0.426 c 0.021,0.027 0.057,0.035 0.083,0.021 z"
   id="path141" />&#10;						<path
   style="fill:#3b328c"
   d="m 183.024,133.651 c 0.026,-0.014 0.03,-0.046 0.011,-0.072 l -0.332,-0.426 -0.094,0.052 0.333,0.426 c 0.019,0.026 0.057,0.035 0.082,0.02 z"
   id="path142" />&#10;						<path
   style="fill:#3b328c"
   d="m 180.56,135.015 c 0.026,-0.014 0.031,-0.046 0.011,-0.072 l -0.332,-0.425 -0.094,0.051 0.332,0.426 c 0.02,0.025 0.057,0.035 0.083,0.02 z"
   id="path143" />&#10;						<path
   style="fill:#3b328c"
   d="m 178.097,136.378 c 0.026,-0.015 0.031,-0.046 0.011,-0.073 l -0.333,-0.425 -0.094,0.052 0.331,0.425 c 0.022,0.027 0.059,0.036 0.085,0.021 z"
   id="path144" />&#10;						<path
   style="fill:#3b328c"
   d="m 175.633,137.743 c 0.025,-0.016 0.03,-0.047 0.011,-0.073 l -0.333,-0.426 -0.094,0.052 0.332,0.426 c 0.02,0.025 0.057,0.034 0.084,0.021 z"
   id="path145" />&#10;						<path
   style="fill:#3b328c"
   d="m 173.169,139.105 c 0.025,-0.015 0.03,-0.046 0.01,-0.072 l -0.333,-0.426 -0.093,0.052 0.332,0.426 c 0.02,0.026 0.058,0.035 0.084,0.02 z"
   id="path146" />&#10;						<path
   style="fill:#3b328c"
   d="m 185.132,132.485 c 0.026,-0.014 0.031,-0.046 0.011,-0.072 l -0.333,-0.426 -0.094,0.052 0.332,0.426 c 0.021,0.026 0.058,0.034 0.084,0.02 z"
   id="path147" />&#10;						<path
   style="fill:#3b328c"
   d="m 188.243,130.764 c 0.026,-0.014 0.03,-0.045 0.011,-0.072 l -0.333,-0.425 -0.094,0.052 0.333,0.426 c 0.019,0.025 0.056,0.034 0.083,0.019 z"
   id="path148" />&#10;						<path
   style="fill:#3b328c"
   d="m 187.868,130.971 c 0.026,-0.014 0.032,-0.046 0.011,-0.071 l -0.332,-0.426 -0.094,0.052 0.332,0.425 c 0.02,0.025 0.057,0.035 0.083,0.02 z"
   id="path149" />&#10;						<path
   style="fill:#3b328c"
   d="m 187.511,131.169 c 0.026,-0.014 0.031,-0.047 0.011,-0.072 l -0.332,-0.426 -0.094,0.052 0.332,0.425 c 0.02,0.026 0.058,0.035 0.083,0.021 z"
   id="path150" />&#10;						<path
   style="fill:#3b328c"
   d="m 182.668,133.849 c 0.025,-0.015 0.03,-0.046 0.01,-0.073 l -0.332,-0.425 -0.094,0.052 0.333,0.426 c 0.02,0.025 0.057,0.034 0.083,0.02 z"
   id="path151" />&#10;						<path
   style="fill:#3b328c"
   d="m 180.205,135.212 c 0.025,-0.015 0.03,-0.047 0.01,-0.073 l -0.333,-0.426 -0.093,0.052 0.332,0.426 c 0.021,0.026 0.057,0.036 0.084,0.021 z"
   id="path152" />&#10;						<path
   style="fill:#3b328c"
   d="m 177.741,136.576 c 0.025,-0.014 0.03,-0.046 0.01,-0.072 l -0.331,-0.425 -0.094,0.052 0.332,0.425 c 0.019,0.026 0.056,0.033 0.083,0.02 z"
   id="path153" />&#10;						<path
   style="fill:#3b328c"
   d="m 175.276,137.939 c 0.026,-0.014 0.03,-0.046 0.01,-0.071 l -0.332,-0.427 -0.093,0.052 0.333,0.426 c 0.019,0.026 0.056,0.035 0.082,0.02 z"
   id="path154" />&#10;						<path
   style="fill:#3b328c"
   d="m 172.812,139.302 c 0.026,-0.015 0.031,-0.046 0.011,-0.072 l -0.333,-0.426 -0.093,0.052 0.333,0.426 c 0.019,0.026 0.056,0.035 0.082,0.02 z"
   id="path155" />&#10;					</g>&#10;				</g>&#10;				<g
   id="g164">&#10;					<path
   style="fill:#f27fb2"
   d="m 169.812,130.348 c 0.078,-0.204 0.405,-0.326 0.79,-0.4 -0.048,0.356 -0.18,0.82 -0.518,1.176 -0.21,-0.297 -0.347,-0.583 -0.272,-0.776 z"
   id="path156" />&#10;					<g
   id="g160">&#10;						<path
   style="fill:#f16790"
   d="m 178.941,134.253 c 0.78,0.019 1.296,-0.491 1.643,-1.144 l 0.442,0.17 -0.927,2.409 -8.891,-3.419 -0.016,0.04 c 0,0 -0.019,-0.018 -0.049,-0.049 0.046,-0.106 0.073,-0.219 0.089,-0.324 2.246,0.969 5.194,2.185 7.709,2.317 z"
   id="path157" />&#10;						<path
   style="fill:#f27fb2"
   d="m 171.685,130.433 c 0.354,-0.084 0.439,-0.343 0.431,-0.59 0.017,-10e-4 0.027,-0.002 0.027,-0.002 l -0.007,0.019 8.449,3.249 c -0.347,0.653 -0.863,1.163 -1.643,1.144 -2.515,-0.132 -5.464,-1.347 -7.708,-2.317 0.037,-0.234 0.019,-0.432 0.019,-0.432 0.866,-0.184 0.432,-1.071 0.432,-1.071 z"
   id="path158" />&#10;						<path
   style="fill:#ffd4cc"
   d="m 171.145,132.259 c -0.104,-0.105 -0.359,-0.363 -0.604,-0.624 0.23,0.098 0.462,0.199 0.692,0.3 -0.015,0.106 -0.042,0.218 -0.088,0.324 z"
   id="path159" />&#10;						<path
   style="fill:#ffe1d9"
   d="m 170.602,129.947 c 0.353,-0.052 1.343,-0.097 1.514,-0.104 0.008,0.247 -0.077,0.506 -0.431,0.59 0,0 0.434,0.887 -0.433,1.07 0,0 0.018,0.198 -0.019,0.432 -0.23,-0.101 -0.462,-0.202 -0.692,-0.3 -0.177,-0.188 -0.348,-0.378 -0.457,-0.512 0.338,-0.355 0.47,-0.82 0.518,-1.176 z"
   id="path160" />&#10;					</g>&#10;					<path
   style="fill:#f95d91"
   d="m 181.873,135.113 -0.196,0.51 c -0.043,0.11 -0.301,0.524 -0.604,0.41 l -0.647,-0.22 c -0.081,-0.031 -0.112,-0.147 -0.07,-0.259 l 0.145,-0.374 c 0.454,0.181 0.953,0.173 1.372,-0.067 z"
   id="path161" />&#10;					<path
   style="fill:#fa7098"
   d="m 180.772,134.474 0.362,-0.942 c 0.044,-0.111 0.144,-0.176 0.225,-0.145 l 0.627,0.27 c 0.302,0.117 0.217,0.598 0.173,0.71 l -0.238,0.619 -0.007,0.018 -0.042,0.109 c -0.419,0.24 -0.917,0.248 -1.373,0.066 l 0.219,-0.566 z"
   id="path162" />&#10;					<path
   style="fill:#e3e5e4"
   d="m 180.681,135.24 -0.226,0.584 -0.355,-0.137 0.227,-0.589 c 0.114,0.061 0.233,0.108 0.354,0.142 z"
   id="path163" />&#10;					<path
   style="fill:#f1f3f2"
   d="m 181.389,133.398 -0.708,1.842 c -0.121,-0.034 -0.24,-0.081 -0.354,-0.141 l 0.707,-1.838 z"
   id="path164" />&#10;				</g>&#10;			</g>&#10;			<path
   style="fill:#f9c1b9"
   d="m 161.94,133.249 c -0.674,-0.352 -1.548,-0.574 -1.548,-0.574 0,0 2.063,-0.5 3.031,-1.5 0.969,-1 -3.198,-2.166 -3.198,-2.166 0,0 2.333,0.083 3.489,-1.584 1.156,-1.667 -5.094,-1.563 -5.094,-1.563 0,0 1.895,-4.063 -0.438,-3.063 -2.333,1 -3.313,2.625 -3.313,2.625 0,0 -15.652,1.568 -15.609,-0.869 0.003,-0.145 0.007,-0.292 0.012,-0.441 -4.251,-1.223 -8.347,-3.293 -12.635,-3.963 -0.985,2.562 -1.842,5.462 -1.912,7.916 11.562,4.907 24.744,7.191 37.215,5.182 z"
   id="path165" />&#10;		</g>&#10;	</g><g
   id="g557"
   transform="matrix(0.61860704,0,0,0.82770847,-74.595682,-194.45803)">&#10;		<path
   style="opacity:0.3;fill:#bcbcbc"
   d="m 424.148,430.407 c 0,12.916 -31.557,23.387 -70.482,23.387 -38.928,0 -70.484,-10.471 -70.484,-23.387 0,-12.917 31.557,-23.389 70.484,-23.389 38.925,0 70.482,10.472 70.482,23.389 z"
   id="path442" />&#10;		<g
   id="g453">&#10;			<polygon
   style="fill:#3b328c"
   points="338.374,350.424 338.361,323.882 382.173,323.741 380.533,350.288 "
   id="polygon442" />&#10;			<g
   id="g444">&#10;				<polygon
   style="fill:#635ba7"
   points="336.529,362.832 330.414,363.063 331.226,310.997 336.117,310.813 "
   id="polygon443" />&#10;				<polygon
   style="fill:#3b328c"
   points="336.529,362.832 336.117,310.813 339.683,313.43 339.728,362.712 "
   id="polygon444" />&#10;			</g>&#10;			<g
   id="g446">&#10;				<polygon
   style="fill:#635ba7"
   points="383.865,364.141 377.746,364.161 380.269,312.153 385.164,312.136 "
   id="polygon445" />&#10;				<polygon
   style="fill:#3b328c"
   points="383.865,364.141 385.164,312.136 388.642,314.875 387.068,364.13 "
   id="polygon446" />&#10;			</g>&#10;			<g
   id="g448">&#10;				<polygon
   style="fill:#635ba7"
   points="344.177,366.499 338.197,366.34 339.56,417.229 344.343,417.354 "
   id="polygon447" />&#10;				<polygon
   style="fill:#3b328c"
   points="344.177,366.499 344.343,417.354 347.8,414.756 347.306,366.581 "
   id="polygon448" />&#10;			</g>&#10;			<g
   id="g450">&#10;				<polygon
   style="fill:#635ba7"
   points="385.607,368.93 379.626,368.889 381.916,419.741 386.701,419.774 "
   id="polygon449" />&#10;				<polygon
   style="fill:#3b328c"
   points="385.607,368.93 386.701,419.774 390.109,417.108 388.738,368.951 "
   id="polygon450" />&#10;			</g>&#10;			<g
   id="g452">&#10;				<polygon
   style="fill:#635ba7"
   points="370.046,369.216 364.066,369.175 366.355,420.027 371.14,420.06 "
   id="polygon451" />&#10;				<polygon
   style="fill:#3b328c"
   points="370.046,369.216 371.14,420.06 374.548,417.394 373.177,369.237 "
   id="polygon452" />&#10;			</g>&#10;			<polygon
   style="fill:#635ba7"
   points="336.406,347.43 335.156,319.273 380.207,320.747 378.564,347.293 "
   id="polygon453" />&#10;		</g>&#10;		<g
   id="g495">&#10;			<path
   style="fill:#f9c1b9"
   d="m 397.804,276.854 c -0.012,0.07 -0.02,0.122 -0.02,0.122 0,0 0.008,-0.051 0.02,-0.122 z"
   id="path453" />&#10;			<path
   style="fill:#ffffff"
   d="M 347.273,314.773"
   id="path454" />&#10;			<g
   id="g491">&#10;				<g
   id="g462">&#10;					<g
   id="g456">&#10;						<path
   style="fill:#f9c1b9"
   d="m 316.441,286.467 c 0.529,3.539 4.209,6.984 11.373,4.357 v -5.005 c -3.551,-1.901 -8.039,-1.688 -11.373,0.648 z"
   id="path455" />&#10;						<path
   style="fill:#ed9996"
   d="m 318.537,281.442 c -1.682,0.973 -2.396,3.014 -2.096,5.025 3.334,-2.336 7.822,-2.549 11.373,-0.648 v -3.449 c 0,0 -4.639,-3.608 -9.277,-0.928 z"
   id="path456" />&#10;					</g>&#10;					<g
   id="g461">&#10;						<g
   id="g458">&#10;							<g
   id="g457">&#10;								<path
   style="fill:#8e4f4f"
   d="m 319.912,285.416 c 1.961,0.01 4.327,-0.891 5.756,0.983 0.875,1.147 0.732,2.885 0.773,4.241 0.009,0.267 0.406,0.267 0.414,0 0.043,-1.617 -0.031,-3.379 -1.09,-4.688 -1.344,-1.661 -4.111,-1.107 -5.871,-0.67 -0.075,0.019 -0.059,0.134 0.018,0.134 z"
   id="path457" />&#10;							</g>&#10;						</g>&#10;						<g
   id="g460">&#10;							<g
   id="g459">&#10;								<path
   style="fill:#8e4f4f"
   d="m 323.124,287.282 c 0.792,-0.362 1.469,-0.463 2.177,0.123 0.504,0.416 0.785,1.017 1.191,1.514 0.171,0.208 0.441,-0.058 0.347,-0.268 -0.706,-1.556 -2.323,-2.864 -3.904,-1.614 -0.151,0.118 0.039,0.313 0.189,0.245 z"
   id="path458" />&#10;							</g>&#10;						</g>&#10;					</g>&#10;				</g>&#10;				<g
   id="g469">&#10;					<g
   id="g463">&#10;						<path
   style="fill:#f9c1b9"
   d="m 390.765,286.467 c -0.529,3.539 -4.211,6.984 -11.373,4.357 v -5.005 c 3.549,-1.901 8.039,-1.688 11.373,0.648 z"
   id="path462" />&#10;						<path
   style="fill:#ed9996"
   d="m 388.669,281.442 c 1.682,0.973 2.396,3.014 2.096,5.025 -3.334,-2.336 -7.824,-2.549 -11.373,-0.648 v -3.449 c 0,0 4.639,-3.608 9.277,-0.928 z"
   id="path463" />&#10;					</g>&#10;					<g
   id="g468">&#10;						<g
   id="g465">&#10;							<g
   id="g464">&#10;								<path
   style="fill:#8e4f4f"
   d="m 387.31,285.283 c -1.85,-0.459 -4.065,-0.847 -5.661,0.458 -1.337,1.093 -1.339,3.347 -1.298,4.9 0.008,0.267 0.405,0.267 0.414,0 0.045,-1.451 -0.018,-2.96 0.772,-4.241 1.198,-1.945 3.951,-0.975 5.755,-0.983 0.077,-10e-4 0.093,-0.116 0.018,-0.134 z"
   id="path464" />&#10;							</g>&#10;						</g>&#10;						<g
   id="g467">&#10;							<g
   id="g466">&#10;								<path
   style="fill:#8e4f4f"
   d="m 384.272,287.037 c -1.581,-1.25 -3.199,0.057 -3.904,1.614 -0.095,0.21 0.176,0.476 0.347,0.268 0.37,-0.454 0.647,-0.964 1.057,-1.39 0.691,-0.718 1.472,-0.63 2.312,-0.247 0.148,0.068 0.338,-0.127 0.188,-0.245 z"
   id="path465" />&#10;							</g>&#10;						</g>&#10;					</g>&#10;				</g>&#10;				<path
   style="fill:#f9c1b9"
   d="m 348.689,312.514 c -0.105,0.461 -0.256,0.901 -0.473,1.297 0,0 4.123,4.811 13.195,0.962 0,0 -0.139,-2.142 0.072,-4.696 -4.349,0.275 -8.587,1.035 -12.794,2.437 z"
   id="path469" />&#10;				<path
   style="fill:#ed9996"
   d="m 362.458,305.076 -14.242,1.175 c 0,0 1.102,3.523 0.473,6.264 4.207,-1.402 8.445,-2.162 12.795,-2.438 0.135,-1.649 0.414,-3.467 0.974,-5.001 z"
   id="path470" />&#10;				<path
   style="fill:#f9c1b9"
   d="m 327.07,280.59 c 0,0 -0.275,9.717 2.061,14.527 2.338,4.81 10.172,10.172 20.617,11.133 10.445,0.963 24.328,-2.473 27.49,-10.033 3.16,-7.559 4.396,-12.782 3.436,-20.479 -0.963,-7.696 -1.375,-11.132 -8.522,-14.568 -7.149,-3.437 -46.045,-20.812 -45.082,19.42 z"
   id="path471" />&#10;				<g
   id="g473">&#10;					<g
   id="g472">&#10;						<path
   style="fill:#8e4f4f"
   d="m 352.544,280.628 c -0.242,0.772 -0.307,1.655 -0.488,2.454 -0.122,0.542 -0.358,1.434 -0.02,1.946 0.255,0.388 0.537,0.679 1.023,0.662 0.224,-0.007 0.448,-0.171 0.625,-0.286 0.114,-0.083 0.231,-0.163 0.35,-0.241 0.104,-0.05 0.21,-0.101 0.314,-0.151 0.754,0.853 0.711,1.416 -0.13,1.69 -0.297,0.11 -0.167,0.59 0.131,0.477 0.728,-0.274 1.196,-0.828 1.227,-1.62 0.021,-0.541 -0.622,-1.11 -1.154,-1.018 -0.382,0.064 -0.651,0.259 -0.959,0.485 -1.385,1.019 -1.102,-1.39 -1.014,-1.835 0.147,-0.733 0.667,-1.869 0.265,-2.585 -0.041,-0.073 -0.146,-0.054 -0.17,0.022 z"
   id="path472" />&#10;					</g>&#10;				</g>&#10;				<g
   id="g475">&#10;					<g
   id="g474">&#10;						<path
   style="fill:#8e4f4f"
   d="m 351.626,291.556 c -0.44,1.308 1.426,2.184 2.414,2.28 1.486,0.144 2.794,-0.962 2.804,-2.463 0.003,-0.391 -0.54,-0.363 -0.588,0 -0.163,1.229 -0.97,1.931 -2.216,1.908 -0.531,-0.009 -1.064,-0.228 -1.476,-0.556 -0.406,-0.323 -0.495,-0.798 -0.786,-1.19 -0.042,-0.056 -0.127,-0.051 -0.152,0.021 z"
   id="path473" />&#10;					</g>&#10;				</g>&#10;				<g
   id="g477">&#10;					<g
   id="g476">&#10;						<path
   style="fill:#8e4f4f"
   d="m 334.664,277.037 c 1.239,-1.731 2.604,-2.708 4.697,-3.146 0.255,-0.054 0.178,-0.418 -0.059,-0.434 -1.808,-0.113 -4.487,1.659 -4.857,3.487 -0.028,0.138 0.14,0.203 0.219,0.093 z"
   id="path475" />&#10;					</g>&#10;				</g>&#10;				<g
   id="g479">&#10;					<g
   id="g478">&#10;						<path
   style="fill:#8e4f4f"
   d="m 365.309,273.199 c 1.77,0.437 3.504,0.695 4.841,2.067 0.277,0.284 0.676,-0.134 0.43,-0.43 -1.113,-1.332 -3.557,-2.26 -5.271,-1.917 -0.142,0.029 -0.136,0.247 0,0.28 z"
   id="path477" />&#10;					</g>&#10;				</g>&#10;				<path
   style="fill:#ed9996"
   d="m 344.8,293.573 c 0,2.656 -2.293,4.81 -5.119,4.81 -2.828,0 -5.121,-2.154 -5.121,-4.81 0,-2.657 2.293,-4.811 5.121,-4.811 2.826,0 5.119,2.154 5.119,4.811 z"
   id="path479" />&#10;				<path
   style="fill:#ed9996"
   d="m 372.804,293.573 c 0,2.656 -2.293,4.81 -5.119,4.81 -2.828,0 -5.121,-2.154 -5.121,-4.81 0,-2.657 2.293,-4.811 5.121,-4.811 2.826,0 5.119,2.154 5.119,4.811 z"
   id="path480" />&#10;				<g
   id="g486">&#10;					<path
   style="fill:#fcb31d"
   d="m 381.085,261.582 c -1.65,4.124 -5.773,2.474 -8.248,0.825 -0.824,-1.65 -3.297,-2.475 -3.297,-4.949 0,4.124 -2.475,9.897 -6.598,8.248 -2.475,-1.65 -4.123,-4.949 -6.598,-7.423 -2.475,15.669 -18.967,4.948 -26.389,0.825 -2.746,6.861 -2.65,14.859 -6.334,21.629 2.42,0.477 4.191,1.633 4.191,1.633 5.555,-1.099 4.615,-20.101 4.615,-20.101 0,0 12.096,7.972 18.279,8.521 6.186,0.55 7.148,-5.498 7.148,-5.498 0,0 2.475,4.124 7.01,4.536 4.537,0.412 4.262,-4.536 4.262,-4.536 5.496,7.01 8.109,2.612 8.109,2.612 0,0 0,12.782 4.348,13.258 4.348,0.477 4.402,-3.917 4.402,-3.917 0.447,0.157 0.871,0.138 1.26,0.024 -3.97,-3.023 -5.41,-9.689 -6.16,-15.687 z"
   id="path481" />&#10;					<path
   style="fill:#ffbd48"
   d="m 389.47,275.327 c 3.779,-6.666 -1.238,-8.246 -1.238,-8.246 0.412,-7.836 -6.459,-7.561 -6.459,-7.561 -2.381,-11.27 -18.143,-7.972 -18.143,-7.972 0,0 2.059,-5.36 -8.938,-5.773 -10.994,-0.412 -23.344,8.516 -23.344,8.516 0,0 1.924,-6.872 -1.512,-7.147 -3.438,-0.274 -1.455,8.109 -1.455,8.109 0,0 -4.199,-6.316 -6.256,-2.468 -2.055,3.848 4.521,7.559 4.521,7.559 -2.668,1.234 -2.021,-0.726 -4.555,1.237 -4.563,4.261 -1.119,10.583 -1.119,10.583 -4.172,4.125 0,8.395 0,8.395 0.928,-0.068 1.824,0.016 2.648,0.178 3.684,-6.77 3.588,-14.767 6.334,-21.629 7.422,4.123 23.914,14.844 26.389,-0.825 2.475,2.474 4.123,5.772 6.598,7.423 4.123,1.648 6.598,-4.124 6.598,-8.248 0,2.475 2.473,3.299 3.297,4.949 2.475,1.648 6.598,3.299 8.248,-0.825 0.75,5.998 2.189,12.664 6.162,15.688 1.32,-0.391 2.224,-1.943 2.224,-1.943 z"
   id="path482" />&#10;					<g
   id="g483">&#10;						<path
   style="fill:#ffc76c"
   d="m 339.121,258.471 c 0.484,1.745 3.955,6.7 6.346,4.575 0.844,-0.75 0.94,-1.794 0.926,-2.868 -0.01,-0.691 -0.172,-1.386 -0.336,-2.053 -0.281,-1.134 -0.9,-0.959 -0.244,-0.138 1.355,1.698 6.07,3.902 6.984,0.517 0.779,-2.883 -0.435,-7.446 -2.902,-9.266 -0.264,-0.194 -0.604,0.247 -0.35,0.452 1.617,1.313 2.299,3.498 2.738,5.46 0.486,2.17 0.049,5.079 -3.02,4.481 -1.52,-0.296 -2.904,-1.587 -3.695,-2.85 -0.178,-0.283 -0.563,-0.037 -0.436,0.254 0.604,1.401 0.918,2.95 0.676,4.472 -0.269,1.681 -2.201,1.341 -3.287,0.781 -1.479,-0.763 -2.459,-2.429 -3.035,-3.919 -0.086,-0.222 -0.432,-0.138 -0.365,0.102 z"
   id="path483" />&#10;					</g>&#10;					<g
   id="g484">&#10;						<path
   style="fill:#ffc76c"
   d="m 373.902,259.156 c 0.645,2.463 1.604,6.909 4.707,7.197 2.492,0.232 3.43,-4.108 3.443,-5.87 0.004,-0.337 -0.439,-0.355 -0.551,-0.074 -0.682,1.73 -0.527,5.877 -3.432,5.26 -2.473,-0.524 -2.791,-4.829 -3.838,-6.651 -0.103,-0.18 -0.38,-0.058 -0.329,0.138 z"
   id="path484" />&#10;					</g>&#10;					<g
   id="g485">&#10;						<path
   style="fill:#ffc76c"
   d="m 322.818,274.577 c 0.912,1.439 3.891,4.268 5.398,1.895 1.252,-1.97 0.693,-5.063 -0.035,-7.134 -0.125,-0.358 -0.695,-0.209 -0.574,0.158 0.533,1.616 0.807,3.352 0.662,5.052 -0.09,1.077 -0.557,2.168 -1.75,2.313 -1.402,0.17 -2.576,-1.648 -3.471,-2.461 -0.119,-0.11 -0.322,0.03 -0.23,0.177 z"
   id="path485" />&#10;					</g>&#10;				</g>&#10;				<g
   id="g488">&#10;					<g
   id="g487">&#10;						<path
   style="fill:#8e4f4f"
   d="m 361.868,285.68 c 0.148,-1.581 -0.247,-3.964 1.474,-4.816 2.243,-1.111 2.843,2.518 3.339,3.865 0.067,0.185 0.382,0.173 0.364,-0.049 -0.117,-1.465 -1.201,-4.836 -3.229,-4.415 -2.405,0.498 -2.422,3.467 -2.215,5.415 0.018,0.171 0.25,0.173 0.267,0 z"
   id="path486" />&#10;					</g>&#10;				</g>&#10;				<g
   id="g490">&#10;					<g
   id="g489">&#10;						<path
   style="fill:#8e4f4f"
   d="m 346.194,285.68 c 0.207,-1.948 0.19,-4.917 -2.215,-5.415 -2.028,-0.421 -3.112,2.95 -3.23,4.415 -0.017,0.222 0.297,0.233 0.364,0.049 0.492,-1.336 0.887,-4.427 2.956,-4.01 2.117,0.427 1.71,3.393 1.856,4.961 0.018,0.173 0.25,0.171 0.269,0 z"
   id="path488" />&#10;					</g>&#10;				</g>&#10;			</g>&#10;			<g
   id="g494">&#10;				<path
   style="fill:#ed9996"
   d="m 331.085,309.875 -2.293,18.144 c -4.26,-3.282 -10.414,-11.937 -15.107,-21.362 5.332,2.935 11.219,4.337 17.4,3.218 z"
   id="path491" />&#10;				<path
   style="fill:#f9c1b9"
   d="m 307.765,272.336 c 1.322,-0.169 2.5,5.032 2.678,5.855 0.016,0.071 0.025,0.121 0.025,0.121 0,0 -0.01,-0.051 -0.025,-0.121 -0.186,-0.875 -1.359,-6.676 0.148,-7.046 1.629,-0.4 3.123,6.128 3.123,6.128 0,0 -1.266,-6.124 0.377,-6.318 1.641,-0.194 2.348,7.029 2.348,7.029 0,0 0.232,-3.25 2.076,-2.042 1.842,1.207 -1.373,7.336 -1.373,7.336 0,0 0.057,1.03 1.99,6.61 1.932,5.58 12.131,18.582 12.131,18.582 l -0.178,1.404 c -6.182,1.118 -12.068,-0.283 -17.4,-3.219 -1.84,-3.694 -3.457,-7.507 -4.646,-11.162 -4.225,-12.981 -2.709,-22.975 -1.274,-23.157 z"
   id="path492" />&#10;				<path
   style="fill:#009599"
   d="m 329.167,329.18 c 0.543,0.899 1.285,1.826 2.07,2.698 2.004,2.226 4.289,4.073 4.289,4.073 0,0 -0.441,2.487 -1.059,5.98 -0.447,2.536 -0.982,5.602 -1.51,8.65 -0.516,2.974 -1.02,5.923 -1.418,8.329 -0.541,3.261 -0.885,5.524 -0.801,5.49 0.303,-0.121 13.553,3.28 22.445,3.514 8.891,0.234 21.965,-2.345 21.783,-5.639 -0.029,-0.517 1.131,-1.298 1.016,-2.595 -0.197,-2.145 -0.283,-3.885 -0.6,-7.001 -0.092,-0.918 -0.197,-1.948 -0.307,-3.005 -16.882,-5.322 -32.957,-14.409 -46.367,-25.309 -0.127,2.209 -0.033,3.999 0.459,4.815 z"
   id="path493" />&#10;				<path
   style="fill:#4fc1b2"
   d="m 373.316,336.415 c 6.24,-1.066 10.498,-6.629 10.498,-6.629 -0.397,-0.784 -0.859,-1.619 -1.361,-2.478 -1.227,-2.098 -2.723,-4.341 -4.32,-6.398 -1.08,-1.394 -2.205,-2.696 -3.322,-3.808 -0.902,-0.898 -1.799,-1.678 -2.66,-2.265 -5.576,-3.806 -10.164,-2.469 -10.164,-2.469 -5.531,4.813 -13.127,1.202 -13.127,1.202 l -5.728,-0.806 c -1.404,-1.114 -11.736,-4.872 -11.736,-4.872 0,0 -0.598,2.6 -1.236,6.002 -0.461,2.467 -0.943,5.355 -1.232,7.98 -0.096,0.868 -0.169,1.705 -0.215,2.491 13.41,10.899 29.485,19.986 46.367,25.309 -0.254,-2.456 -0.529,-5.073 -0.719,-6.895 -0.354,-3.362 -1.045,-6.364 -1.045,-6.364 z"
   id="path494" />&#10;			</g>&#10;			<path
   style="fill:#635ba8"
   d="m 350.117,332.392 c 0,0 1.111,-8.098 3.118,-8.073 2.007,0.025 5.132,5.851 5.132,5.851 0,0 8.026,0.1 8.517,1.987 0.487,1.89 -4.887,5.56 -4.887,5.56 0,0 4.96,7.173 3.61,8.383 -1.349,1.211 -9.16,-2.888 -9.16,-2.888 0,0 -5.743,5.771 -7.873,5.272 -1.302,-0.303 0.827,-8.626 0.827,-8.626 0,0 -7.31,-2.353 -6.958,-4.256 0.349,-1.903 7.674,-3.21 7.674,-3.21 z"
   id="path495" />&#10;		</g>&#10;		<g
   id="g538">&#10;			<g
   id="g515">&#10;				<g
   id="g505">&#10;					<path
   style="fill:#b4aad3"
   d="m 335.026,387.951 5.725,11.247 c 3.652,-3.997 8.064,-7.383 12.917,-10.178 l -2.083,-6.712 z"
   id="path496" />&#10;					<path
   style="fill:#c4badc"
   d="m 348.147,413.721 11.961,-3.944 -6.44,-20.757 c -4.853,2.795 -9.265,6.181 -12.917,10.178 z"
   id="path497" />&#10;					<g
   id="g504">&#10;						<path
   style="fill:#635ba8"
   d="m 348.269,414.28 c 15.625,-0.774 9.854,-8.611 12.216,-4.631 0,0 0.077,16.526 -9.206,19.166 -8.243,2.345 -3.01,-14.535 -3.01,-14.535 z"
   id="path498" />&#10;						<path
   style="fill:#ebe9f4"
   d="m 358.388,419.416 c 1.639,-4.96 1.54,-10.165 1.54,-10.165 -3.834,2.275 -11.982,4.083 -11.982,4.083 0,0 -1.688,5.455 -1.634,9.732 3.558,-2.454 7.771,-3.532 12.076,-3.65 z"
   id="path499" />&#10;						<g
   id="g500">&#10;							<path
   style="fill:#635ba8"
   d="m 352.137,414.348 c 1.04,-1.529 2.336,-3.406 1.987,-5.134 -0.148,-0.748 -1.054,-0.997 -1.549,-0.238 -0.327,0.505 -0.284,1.271 -0.299,1.817 -0.023,1.196 0.311,2.373 0.611,3.508 -0.338,0.104 -0.672,0.202 -1.007,0.302 -0.296,-1.121 -0.557,-2.245 -0.936,-3.342 -0.141,-0.4 -2.165,-4.505 -2.91,-2.442 -0.382,1.061 1.478,2.513 2.144,3.117 0.821,0.758 1.725,1.442 2.646,2.114 0.573,0.412 -0.318,1.235 -0.88,0.81 -1.462,-1.105 -6.9,-4.802 -4.346,-6.982 3.226,-2.753 4.936,5.145 5.29,6.423 0.148,0.55 -0.856,0.853 -1.007,0.302 -0.485,-1.744 -0.901,-3.702 -0.303,-5.568 0.237,-0.764 1.251,-1.834 2.244,-1.535 3.354,1.021 0.271,5.555 -1.241,7.118 -0.22,0.231 -0.618,-0.016 -0.444,-0.27 z"
   id="path500" />&#10;						</g>&#10;						<path
   style="fill:#635ba8"
   d="m 346.313,423.066 c 0.042,3.246 1.088,5.814 4.644,4.802 3.983,-1.133 6.198,-4.724 7.432,-8.452 -4.306,0.118 -8.519,1.196 -12.076,3.65 z"
   id="path501" />&#10;						<g
   id="g502">&#10;							<path
   style="fill:#635ba8"
   d="m 348.201,416.948 c 3.216,-1.316 6.069,-2.842 9.593,-3.04 0.223,-0.013 0.27,-0.335 0.047,-0.341 -3.428,-0.098 -6.666,1.743 -9.713,3.168 -0.153,0.072 -0.092,0.28 0.073,0.213 z"
   id="path502" />&#10;						</g>&#10;						<g
   id="g503">&#10;							<path
   style="fill:#635ba8"
   d="m 347.971,419.41 c 3.217,-1.317 6.071,-2.843 9.592,-3.039 0.223,-0.014 0.27,-0.336 0.047,-0.343 -3.428,-0.097 -6.665,1.744 -9.712,3.17 -0.153,0.07 -0.093,0.279 0.073,0.212 z"
   id="path503" />&#10;						</g>&#10;					</g>&#10;				</g>&#10;				<g
   id="g514">&#10;					<path
   style="fill:#b4aad3"
   d="m 351.15,387.592 1.795,12.492 c 4.746,-2.605 10.012,-4.387 15.506,-5.467 l 0.195,-7.025 z"
   id="path505" />&#10;					<path
   style="fill:#c4badc"
   d="m 355.259,416.217 12.592,0.125 0.6,-21.725 c -5.494,1.08 -10.76,2.861 -15.506,5.467 z"
   id="path506" />&#10;					<g
   id="g513">&#10;						<path
   style="fill:#635ba8"
   d="m 355.197,416.786 c 15.035,4.307 12.102,-4.973 13.053,-0.443 0,0 -5.256,15.668 -14.895,15.172 -8.559,-0.44 1.842,-14.729 1.842,-14.729 z"
   id="path507" />&#10;						<path
   style="fill:#ebe9f4"
   d="m 363.115,424.911 c 3.152,-4.166 4.736,-9.125 4.736,-9.125 -4.361,0.917 -12.654,0 -12.654,0 0,0 -3.359,4.619 -4.688,8.685 4.158,-1.176 8.494,-0.837 12.606,0.44 z"
   id="path508" />&#10;						<g
   id="g509">&#10;							<path
   style="fill:#635ba8"
   d="m 358.833,418.098 c 1.477,-1.112 3.313,-2.471 3.537,-4.219 0.104,-0.756 -0.676,-1.283 -1.389,-0.725 -0.473,0.372 -0.68,1.111 -0.867,1.623 -0.41,1.125 -0.473,2.347 -0.555,3.518 -0.353,-0.011 -0.703,-0.025 -1.051,-0.04 0.082,-1.156 0.199,-2.305 0.191,-3.465 -0.004,-0.424 -0.594,-4.962 -1.969,-3.251 -0.703,0.882 0.594,2.855 1.025,3.643 0.533,0.982 1.17,1.922 1.82,2.854 0.412,0.575 -0.697,1.066 -1.09,0.482 -1.029,-1.517 -4.986,-6.77 -1.861,-8.01 3.939,-1.566 3.012,6.461 2.934,7.786 -0.035,0.567 -1.084,0.53 -1.051,-0.04 0.104,-1.807 0.344,-3.795 1.508,-5.368 0.475,-0.647 1.775,-1.332 2.619,-0.73 2.85,2.049 -1.533,5.346 -3.467,6.338 -0.285,0.15 -0.58,-0.212 -0.334,-0.396 z"
   id="path509" />&#10;						</g>&#10;						<path
   style="fill:#635ba8"
   d="m 350.509,424.471 c -1.008,3.086 -0.846,5.854 2.846,6.043 4.139,0.213 7.393,-2.472 9.76,-5.603 -4.112,-1.277 -8.448,-1.616 -12.606,-0.44 z"
   id="path510" />&#10;						<g
   id="g511">&#10;							<path
   style="fill:#635ba8"
   d="m 354.267,419.289 c 3.471,-0.209 6.666,-0.731 10.061,0.217 0.215,0.06 0.365,-0.23 0.156,-0.308 -3.215,-1.197 -6.873,-0.5 -10.217,-0.134 -0.166,0.018 -0.174,0.235 0,0.225 z"
   id="path511" />&#10;						</g>&#10;						<g
   id="g512">&#10;							<path
   style="fill:#635ba8"
   d="m 353.255,421.545 c 3.471,-0.209 6.666,-0.732 10.063,0.217 0.213,0.06 0.365,-0.23 0.154,-0.309 -3.213,-1.197 -6.871,-0.499 -10.217,-0.133 -0.164,0.018 -0.173,0.235 0,0.225 z"
   id="path512" />&#10;						</g>&#10;					</g>&#10;				</g>&#10;			</g>&#10;			<polygon
   style="fill:#fab21b"
   points="400.212,350.197 387.195,370.592 386.099,378.926 400.212,357.592 "
   id="polygon515" />&#10;			<g
   id="g517">&#10;				<polygon
   style="fill:#fab21b"
   points="334.013,374.76 327.763,374.76 330.513,426.76 335.513,426.76 "
   id="polygon516" />&#10;				<polygon
   style="fill:#f79828"
   points="334.013,374.76 335.513,426.76 339.058,424.01 337.285,374.76 "
   id="polygon517" />&#10;			</g>&#10;			<g
   id="g519">&#10;				<polygon
   style="fill:#fab21b"
   points="392.925,374.76 387.96,374.03 389.425,426.76 394.425,426.76 "
   id="polygon518" />&#10;				<polygon
   style="fill:#f79828"
   points="392.925,374.76 394.425,426.76 397.968,424.01 396.474,369.495 "
   id="polygon519" />&#10;			</g>&#10;			<g
   id="g529">&#10;				<path
   style="fill:#f26952"
   d="m 392.55,380.915 c 0,0 1.882,-5.326 7.688,-6.986 5.805,-1.661 8.616,3.377 8.616,3.377 l -1.732,0.195 c 0,0 -1.876,-2.154 -5.986,-1.276 -4.677,1.003 -5.722,3.659 -5.722,3.659 z"
   id="path519" />&#10;				<g
   id="g528">&#10;					<path
   style="fill:#3b328c"
   d="m 397.139,377.826 c 0,0 -15.01,2.527 -14.276,12.736 0.737,10.206 -0.326,33.554 4.423,41.803 1.98,3.438 18.475,0.552 24.951,-2.003 6.478,-2.553 6.73,-9.343 6.1,-16.258 -0.629,-6.916 -2.409,-23.292 -4.48,-30.625 -1.329,-4.695 -3.358,-8.084 -16.718,-5.653 z"
   id="path520" />&#10;					<path
   style="fill:#635ba8"
   d="m 400.617,378.02 c 0,0 -15.012,2.527 -14.273,12.736 0.736,10.206 -0.327,33.553 4.422,41.803 1.98,3.439 18.474,0.551 24.95,-2.002 6.479,-2.555 6.731,-9.344 6.101,-16.26 -0.63,-6.916 -2.409,-23.291 -4.481,-30.624 -1.331,-4.694 -3.359,-8.085 -16.719,-5.653 z"
   id="path521" />&#10;					<path
   style="fill:#ffcc72"
   d="m 420.761,410.612 c -0.346,-1.447 -0.754,-2.734 -1.252,-3.672 -1.255,-2.365 -4.125,-3.397 -17.502,-1.414 0,0 -11.436,2.521 -13.03,7.49 10.495,2.631 21.403,1.26 31.784,-2.404 z"
   id="path522" />&#10;					<path
   style="fill:#fcb31d"
   d="m 388.977,413.016 c -0.073,0.232 -0.136,0.469 -0.163,0.713 -0.125,1.023 -0.275,2.268 -0.41,3.637 10.549,1.24 22.152,-0.119 32.76,-4.862 -0.124,-0.651 -0.258,-1.284 -0.402,-1.892 -10.382,3.664 -21.29,5.035 -31.785,2.404 z"
   id="path523" />&#10;					<path
   style="fill:#f26952"
   d="m 422.619,423.194 c -0.336,-2.272 -0.714,-6.773 -1.455,-10.691 -10.607,4.743 -22.211,6.103 -32.76,4.862 -0.053,0.527 -0.098,1.078 -0.142,1.64 8.863,8.823 21.457,11.012 33.442,9.868 1.224,-1.663 1.211,-3.667 0.915,-5.679 z"
   id="path524" />&#10;					<path
   style="fill:#f1583a"
   d="m 391.343,434.342 c 1.924,1.676 18.434,-0.713 24.939,-2.387 2.822,-0.727 4.484,-1.805 5.421,-3.082 -11.985,1.143 -24.579,-1.045 -33.442,-9.868 -0.426,5.543 -0.304,12.385 3.082,15.337 z"
   id="path525" />&#10;					<g
   id="g526">&#10;						<path
   style="fill:#3b328c"
   d="m 407.023,391.191 -4.358,-3.763 c -0.247,-0.212 -0.611,-0.147 -0.814,0.145 l -3.673,5.268 c -0.205,0.293 -0.171,0.702 0.077,0.914 l 4.359,3.763 c 0.244,0.214 0.609,0.148 0.813,-0.145 l 3.672,-5.269 c 0.203,-0.291 0.168,-0.7 -0.076,-0.913 z m -5.582,4.003 c -0.284,0.033 -0.543,-0.916 -0.58,-2.117 -0.038,-1.201 0.158,-2.201 0.443,-2.232 0.281,-0.031 0.539,0.916 0.578,2.118 0.037,1.2 -0.16,2.2 -0.441,2.231 z m 2.307,-0.662 c -0.281,0.031 -0.54,-0.916 -0.578,-2.119 -0.037,-1.199 0.16,-2.199 0.44,-2.23 0.283,-0.033 0.542,0.916 0.579,2.117 0.038,1.2 -0.158,2.199 -0.441,2.232 z"
   id="path526" />&#10;					</g>&#10;					<g
   id="g527">&#10;						<path
   style="fill:#ffcc72"
   d="m 407.293,390.774 -4.357,-3.761 c -0.247,-0.214 -0.611,-0.148 -0.814,0.144 l -3.674,5.27 c -0.205,0.291 -0.172,0.699 0.077,0.913 l 4.358,3.763 c 0.246,0.212 0.609,0.148 0.815,-0.145 l 3.672,-5.268 c 0.204,-0.292 0.169,-0.701 -0.077,-0.916 z m -5.583,4.006 c -0.281,0.031 -0.541,-0.917 -0.578,-2.119 -0.038,-1.201 0.16,-2.201 0.441,-2.233 0.282,-0.031 0.542,0.916 0.58,2.117 0.038,1.204 -0.159,2.203 -0.443,2.235 z m 2.309,-0.664 c -0.279,0.032 -0.54,-0.917 -0.578,-2.117 -0.037,-1.202 0.16,-2.201 0.441,-2.232 0.281,-0.031 0.539,0.916 0.578,2.118 0.038,1.2 -0.16,2.2 -0.441,2.231 z"
   id="path527" />&#10;					</g>&#10;				</g>&#10;			</g>&#10;			<polygon
   style="fill:#f79828"
   points="386.904,387.592 386.099,378.926 303.759,378.926 303.759,387.592 "
   id="polygon529" />&#10;			<polygon
   style="fill:#f79828"
   points="398.544,359.851 386.099,378.926 386.904,387.592 398.544,367.342 "
   id="polygon530" />&#10;			<g
   id="g532">&#10;				<polygon
   style="fill:#fab21b"
   points="313.294,387.592 307.044,387.592 309.794,439.592 314.794,439.592 "
   id="polygon531" />&#10;				<polygon
   style="fill:#f79828"
   points="313.294,387.592 314.794,439.592 318.337,436.842 316.566,387.592 "
   id="polygon532" />&#10;			</g>&#10;			<g
   id="g534">&#10;				<polygon
   style="fill:#fab21b"
   points="381.056,387.592 374.806,387.592 377.556,439.592 382.556,439.592 "
   id="polygon533" />&#10;				<polygon
   style="fill:#f79828"
   points="381.056,387.592 382.556,439.592 386.099,436.842 384.328,387.592 "
   id="polygon534" />&#10;			</g>&#10;			<path
   style="fill:#fab21b"
   d="m 297.419,370.592 1.543,8.334 h 21.594 c -1.934,-2.217 -3.928,-5.925 -5.762,-8.334 z"
   id="path534" />&#10;			<path
   style="fill:#ffbb43"
   d="m 314.794,370.592 c 1.834,2.409 3.828,6.117 5.762,8.334 h 6.533 c -1.779,-2.391 -4.215,-5.977 -6.146,-8.334 z"
   id="path535" />&#10;			<path
   style="fill:#fab21b"
   d="m 320.943,370.592 c 1.932,2.357 4.367,5.943 6.146,8.334 h 7.451 c -1.289,-2.412 -3.455,-5.945 -4.746,-8.334 z"
   id="path536" />&#10;			<path
   style="fill:#fab21b"
   d="m 387.195,370.592 h -45.852 c 1.262,2.532 3.418,5.876 4.973,8.334 h 39.783 z"
   id="path537" />&#10;			<path
   style="fill:#ffbb43"
   d="m 329.794,370.592 c 1.291,2.389 3.457,5.922 4.746,8.334 h 11.775 c -1.555,-2.458 -3.711,-5.802 -4.973,-8.334 z"
   id="path538" />&#10;			<polygon
   style="fill:#ffcb73"
   points="387.445,370.592 400.462,350.197 320.097,348.592 297.669,370.592 "
   id="polygon538" />&#10;		</g>&#10;		<g
   id="g546">&#10;			<path
   style="fill:#ebe9f4"
   d="m 341.376,350.666 -7.916,18.023 25.875,-0.411 5.336,-17.982 z m 16.219,15.89 c -0.482,0.008 -0.881,-0.311 -0.887,-0.71 -0.006,-0.4 0.381,-0.73 0.863,-0.738 0.484,-0.008 0.881,0.311 0.887,0.711 0.006,0.399 -0.378,0.729 -0.863,0.737 z m 2.473,-7.238 c -0.482,0.008 -0.881,-0.311 -0.887,-0.711 -0.006,-0.4 0.381,-0.729 0.863,-0.737 0.484,-0.008 0.881,0.311 0.887,0.71 0.006,0.399 -0.379,0.73 -0.863,0.738 z m 1.654,-6.022 c -0.482,0.008 -0.879,-0.31 -0.887,-0.711 -0.006,-0.4 0.381,-0.73 0.863,-0.738 0.484,-0.008 0.881,0.311 0.887,0.711 0.006,0.4 -0.378,0.731 -0.863,0.738 z"
   id="path539" />&#10;			<g
   id="g540">&#10;				<path
   style="fill:#f1583a"
   d="m 355.029,367.228 c 1.914,-5.13 3.572,-10.643 4.779,-15.986 0.063,-0.273 -0.32,-0.36 -0.414,-0.106 -1.899,5.148 -3.402,10.678 -4.715,16.003 -0.056,0.229 0.272,0.302 0.35,0.089 z"
   id="path540" />&#10;			</g>&#10;			<g
   id="g541">&#10;				<path
   style="fill:#7acfe7"
   d="m 336.783,363.827 c 5.467,0.264 15.822,0.094 21.281,-0.381 0.277,-0.024 0.246,-0.414 -0.025,-0.427 -5.482,-0.244 -15.805,0.078 -21.277,0.447 -0.237,0.016 -0.208,0.349 0.021,0.361 z"
   id="path541" />&#10;			</g>&#10;			<g
   id="g542">&#10;				<path
   style="fill:#7acfe7"
   d="m 337.48,360.744 c 5.469,0.265 15.824,0.094 21.281,-0.381 0.279,-0.023 0.246,-0.413 -0.023,-0.427 -5.482,-0.244 -15.805,0.078 -21.277,0.448 -0.239,0.016 -0.208,0.349 0.019,0.36 z"
   id="path542" />&#10;			</g>&#10;			<g
   id="g543">&#10;				<path
   style="fill:#7acfe7"
   d="m 339.482,358.174 c 5.092,0.221 14.734,0.022 19.818,-0.438 0.26,-0.023 0.23,-0.382 -0.022,-0.393 -5.103,-0.202 -14.717,0.138 -19.814,0.501 -0.22,0.016 -0.193,0.322 0.018,0.33 z"
   id="path543" />&#10;			</g>&#10;			<g
   id="g544">&#10;				<path
   style="fill:#7acfe7"
   d="m 339.876,355.708 c 5.09,0.221 14.732,0.022 19.818,-0.439 0.26,-0.023 0.23,-0.381 -0.021,-0.392 -5.104,-0.202 -14.717,0.137 -19.815,0.5 -0.22,0.017 -0.192,0.324 0.018,0.331 z"
   id="path544" />&#10;			</g>&#10;			<g
   id="g545">&#10;				<path
   style="fill:#7acfe7"
   d="m 340.609,353.197 c 5.09,0.221 14.732,0.021 19.818,-0.439 0.258,-0.023 0.23,-0.382 -0.021,-0.393 -5.105,-0.201 -14.717,0.138 -19.815,0.501 -0.22,0.016 -0.195,0.322 0.018,0.331 z"
   id="path545" />&#10;			</g>&#10;		</g>&#10;		<path
   style="fill:#ed9996"
   d="m 373.316,336.415 c 0,0 7.865,-4.076 10.498,-6.629 0,0 3.289,10.67 4.688,14.31 -4.287,0.67 -8.383,2.74 -12.635,3.963 -0.084,-2.363 -2.551,-11.644 -2.551,-11.644 z"
   id="path546" />&#10;		<g
   id="g555">&#10;			<path
   style="fill:#1d262d"
   d="m 347.518,357.275 c 0.255,0.256 0.831,0.221 1.463,0.074 -0.313,-0.506 -0.823,-1.119 -1.571,-1.429 -0.12,0.589 -0.134,1.114 0.108,1.355 z"
   id="path547" />&#10;			<g
   id="g551">&#10;				<path
   style="fill:#fab21b"
   d="m 358.686,345.25 c 1.165,-0.552 2.287,-0.129 3.249,0.624 l 0.554,-0.554 -3.017,-3.017 -11.134,11.133 -0.05,-0.05 c 0,0 -0.015,0.038 -0.04,0.107 0.14,0.128 0.256,0.28 0.352,0.43 2.737,-2.971 6.375,-6.788 10.086,-8.673 z"
   id="path548" />&#10;				<path
   style="fill:#ffcb73"
   d="m 350.29,355.889 c 0.592,-0.111 0.893,0.224 1.048,0.602 0.026,-0.01 0.04,-0.016 0.04,-0.016 l -0.023,-0.022 10.58,-10.579 c -0.962,-0.753 -2.084,-1.176 -3.249,-0.624 -3.711,1.886 -7.349,5.702 -10.086,8.674 0.212,0.328 0.317,0.64 0.317,0.64 1.433,-0.307 1.373,1.325 1.373,1.325 z"
   id="path549" />&#10;				<path
   style="fill:#ffd4cc"
   d="m 348.249,353.494 c -0.087,0.227 -0.299,0.788 -0.493,1.348 0.282,-0.305 0.564,-0.612 0.845,-0.918 -0.097,-0.15 -0.213,-0.302 -0.352,-0.43 z"
   id="path550" />&#10;				<path
   style="fill:#ffe1d9"
   d="m 348.981,357.349 c 0.566,-0.158 2.093,-0.755 2.356,-0.858 -0.154,-0.378 -0.456,-0.713 -1.048,-0.602 0,0 0.061,-1.632 -1.372,-1.326 0,0 -0.105,-0.311 -0.317,-0.64 -0.28,0.306 -0.563,0.613 -0.845,0.918 -0.141,0.402 -0.272,0.804 -0.346,1.079 0.749,0.31 1.259,0.923 1.572,1.429 z"
   id="path551" />&#10;			</g>&#10;			<path
   style="fill:#f95d91"
   d="m 362.536,341.983 -0.639,-0.639 c -0.139,-0.139 -0.808,-0.591 -1.187,-0.214 l -0.83,0.766 c -0.101,0.102 -0.07,0.298 0.068,0.438 l 0.47,0.47 c 0.566,-0.581 1.325,-0.903 2.118,-0.821 z"
   id="path552" />&#10;			<path
   style="fill:#fa7098"
   d="m 361.302,343.686 1.18,1.18 c 0.14,0.14 0.335,0.17 0.436,0.069 l 0.767,-0.83 c 0.377,-0.379 -0.075,-1.048 -0.215,-1.189 l -0.775,-0.774 -0.022,-0.023 -0.137,-0.136 c -0.793,-0.082 -1.552,0.24 -2.117,0.82 l 0.709,0.709 z"
   id="path553" />&#10;			<path
   style="fill:#e3e5e4"
   d="m 360.65,342.59 -0.732,-0.732 -0.445,0.445 0.737,0.736 c 0.132,-0.165 0.281,-0.317 0.44,-0.449 z"
   id="path554" />&#10;			<path
   style="fill:#f1f3f2"
   d="m 362.957,344.897 -2.307,-2.307 c -0.159,0.132 -0.308,0.283 -0.44,0.449 l 2.303,2.302 z"
   id="path555" />&#10;		</g>&#10;		<path
   style="fill:#f4b2ab"
   d="m 354.242,356.469 c 0.3,0.095 0.508,0.148 0.508,0.148 0,0 -4,1 -1.475,2.167 2.525,1.166 30.309,1.833 35.475,-2.167 1.624,-1.258 1.9,-3.613 1.517,-6.253 -11.252,5.271 -23.95,7.562 -36.025,6.105 z"
   id="path556" />&#10;		<path
   style="fill:#f9c1b9"
   d="m 375.867,348.058 c 0.006,0.148 0.01,0.297 0.012,0.441 0.045,2.437 -15.607,0.868 -15.607,0.868 0,0 -0.98,-1.625 -3.313,-2.625 -2.334,-1 -0.438,3.063 -0.438,3.063 0,0 -6.25,-0.104 -5.094,1.563 1.156,1.667 3.488,1.583 3.488,1.583 0,0 -4.166,1.167 -3.197,2.167 0.67,0.691 1.852,1.139 2.523,1.352 12.075,1.457 24.773,-0.834 36.024,-6.104 -0.298,-2.046 -0.993,-4.263 -1.765,-6.27 -4.286,0.669 -8.381,2.74 -12.633,3.962 z"
   id="path557" />&#10;	</g><g
   id="g561"
   transform="translate(-195.14411,-261.89021)">&#10;		<path
   style="fill:#f0593a"
   d="m 313.13,358.83 c -0.965,1.736 -1.046,4.488 0.164,6.727 2.434,4.5 6.566,0.942 6.566,0.942 1.563,0.319 4.396,1.176 5.608,-0.803 -4.618,-1.119 -8.942,-3.496 -12.338,-6.866 z"
   id="path558" />&#10;		<path
   style="fill:#f06952"
   d="m 325.985,361.952 c -1.125,-10.968 -7.647,-3.688 -7.647,-3.688 -2.357,-1.906 -4.233,-1.189 -5.207,0.565 3.396,3.37 7.72,5.747 12.339,6.866 0.467,-0.762 0.7,-1.935 0.515,-3.743 z"
   id="path559" />&#10;		<path
   style="fill:#4fc1b2"
   d="m 317.642,357.774 c 0,0 -2.37,-6.936 -1.826,-7.577 0.544,-0.642 3.217,8.558 2.521,8.067 -0.695,-0.49 -1.244,-0.801 -1.244,-0.801"
   id="path560" />&#10;		<path
   style="fill:#4fc1b2"
   d="m 318.27,358.247 c 0,0 -0.926,-6.364 2.491,-6.858 1.013,2.077 -1.133,6.677 -2.491,6.858 z"
   id="path561" />&#10;	</g>&#10;&#10;</svg>
