<?xml version="1.0" encoding="UTF-8" standalone="no"?>
<svg
   xmlns:dc="http://purl.org/dc/elements/1.1/"
   xmlns:cc="http://creativecommons.org/ns#"
   xmlns:rdf="http://www.w3.org/1999/02/22-rdf-syntax-ns#"
   xmlns:svg="http://www.w3.org/2000/svg"
   xmlns="http://www.w3.org/2000/svg"
   xmlns:sodipodi="http://sodipodi.sourceforge.net/DTD/sodipodi-0.dtd"
   xmlns:inkscape="http://www.inkscape.org/namespaces/inkscape"
   version="1.1"
   id="svg2"
   xml:space="preserve"
   width="200"
   height="200"
   viewBox="0 0 200 200"
   sodipodi:docname="download.svg"
   inkscape:version="1.0.2-2 (e86c870879, 2021-01-15)"
   inkscape:export-filename="D:\xamp\htdocs\2021\cursos\ci4\ome_v2\public\img\teens\activities\avance\download.png"
   inkscape:export-xdpi="45.349998"
   inkscape:export-ydpi="45.349998"><metadata
     id="metadata8"><rdf:RDF><cc:Work
         rdf:about=""><dc:format>image/svg+xml</dc:format><dc:type
           rdf:resource="http://purl.org/dc/dcmitype/StillImage" /><dc:title></dc:title></cc:Work></rdf:RDF></metadata><defs
     id="defs6"><clipPath
       clipPathUnits="userSpaceOnUse"
       id="clipPath20"><path
         d="m 111.951,396.105 c -5.523,0 -10,-4.477 -10,-10 v 0 -105 c 0,-5.523 4.477,-10 10,-10 v 0 h 105 c 5.523,0 10,4.477 10,10 v 0 105 c 0,5.523 -4.477,10 -10,10 v 0 z"
         id="path18" /></clipPath><linearGradient
       x1="0"
       y1="0"
       x2="1"
       y2="0"
       gradientUnits="userSpaceOnUse"
       gradientTransform="matrix(0,-154.76875,-154.76875,0,164.45094,413.64777)"
       spreadMethod="pad"
       id="linearGradient34"><stop
         style="stop-opacity:1;stop-color:#ffffff"
         offset="0"
         id="stop26" /><stop
         style="stop-opacity:1;stop-color:#ffffff"
         offset="0.00345155"
         id="stop28" /><stop
         style="stop-opacity:1;stop-color:#ffffff"
         offset="0.6851288"
         id="stop30" /><stop
         style="stop-opacity:1;stop-color:#ccd1ef"
         offset="1"
         id="stop32" /></linearGradient><clipPath
       clipPathUnits="userSpaceOnUse"
       id="clipPath44"><path
         d="m 102.241,311.105 v -32.4 c 1.075,-4.364 5.014,-7.6 9.71,-7.6 v 0 h 105 c 4.696,0 8.635,3.236 9.71,7.6 v 0 32.4 z"
         id="path42" /></clipPath><linearGradient
       x1="0"
       y1="0"
       x2="1"
       y2="0"
       gradientUnits="userSpaceOnUse"
       gradientTransform="matrix(0,-58.750305,-58.750305,0,164.45094,318.9111)"
       spreadMethod="pad"
       id="linearGradient56"><stop
         style="stop-opacity:1;stop-color:#fc644b"
         offset="0"
         id="stop50" /><stop
         style="stop-opacity:1;stop-color:#fc644b"
         offset="0.16397746"
         id="stop52" /><stop
         style="stop-opacity:1;stop-color:#da1700"
         offset="1"
         id="stop54" /></linearGradient><clipPath
       clipPathUnits="userSpaceOnUse"
       id="clipPath66"><path
         d="m 111.951,396.105 c -5.523,0 -10,-4.477 -10,-10 v 0 -105 c 0,-5.523 4.477,-10 10,-10 v 0 h 105 c 5.523,0 10,4.477 10,10 v 0 105 c 0,5.523 -4.477,10 -10,10 v 0 z"
         id="path64" /></clipPath><clipPath
       clipPathUnits="userSpaceOnUse"
       id="clipPath86"><path
         d="M 0,500 H 500 V 0 H 0 Z"
         id="path84" /></clipPath><clipPath
       clipPathUnits="userSpaceOnUse"
       id="clipPath98"><path
         d="m 283.049,228.895 c -5.523,0 -10,-4.477 -10,-10 v 0 -105 c 0,-5.523 4.477,-10 10,-10 v 0 h 105 c 5.523,0 10,4.477 10,10 v 0 105 c 0,5.523 -4.477,10 -10,10 v 0 z"
         id="path96" /></clipPath><linearGradient
       x1="0"
       y1="0"
       x2="1"
       y2="0"
       gradientUnits="userSpaceOnUse"
       gradientTransform="matrix(0,-84.716202,-84.716202,0,335.54904,214.16049)"
       spreadMethod="pad"
       id="linearGradient112"><stop
         style="stop-opacity:1;stop-color:#ffffff"
         offset="0"
         id="stop104" /><stop
         style="stop-opacity:1;stop-color:#ffffff"
         offset="0.00345155"
         id="stop106" /><stop
         style="stop-opacity:1;stop-color:#ffffff"
         offset="0.6851288"
         id="stop108" /><stop
         style="stop-opacity:1;stop-color:#ccd1ef"
         offset="1"
         id="stop110" /></linearGradient><clipPath
       clipPathUnits="userSpaceOnUse"
       id="clipPath122"><path
         d="m 273.339,143.895 v -32.4 c 1.075,-4.364 5.014,-7.6 9.71,-7.6 v 0 h 105 c 4.696,0 8.636,3.236 9.71,7.6 v 0 32.4 z"
         id="path120" /></clipPath><linearGradient
       x1="0"
       y1="0"
       x2="1"
       y2="0"
       gradientUnits="userSpaceOnUse"
       gradientTransform="matrix(0,-58.160042,-58.160042,0,335.54904,165.43773)"
       spreadMethod="pad"
       id="linearGradient136"><stop
         style="stop-opacity:1;stop-color:#2faf41"
         offset="0"
         id="stop128" /><stop
         style="stop-opacity:1;stop-color:#2faf41"
         offset="0.00095073"
         id="stop130" /><stop
         style="stop-opacity:1;stop-color:#2faf41"
         offset="0.39333167"
         id="stop132" /><stop
         style="stop-opacity:1;stop-color:#007600"
         offset="1"
         id="stop134" /></linearGradient><clipPath
       clipPathUnits="userSpaceOnUse"
       id="clipPath146"><path
         d="m 283.049,228.895 c -5.523,0 -10,-4.477 -10,-10 v 0 -105 c 0,-5.523 4.477,-10 10,-10 v 0 h 105 c 5.523,0 10,4.477 10,10 v 0 105 c 0,5.523 -4.477,10 -10,10 v 0 z"
         id="path144" /></clipPath><clipPath
       clipPathUnits="userSpaceOnUse"
       id="clipPath160"><path
         d="M 0,500 H 500 V 0 H 0 Z"
         id="path158" /></clipPath><clipPath
       clipPathUnits="userSpaceOnUse"
       id="clipPath172"><path
         d="m 283.049,396.105 c -5.523,0 -10,-4.477 -10,-10 v 0 -105 c 0,-5.523 4.477,-10 10,-10 v 0 h 105 c 5.523,0 10,4.477 10,10 v 0 105 c 0,5.523 -4.477,10 -10,10 v 0 z"
         id="path170" /></clipPath><linearGradient
       x1="0"
       y1="0"
       x2="1"
       y2="0"
       gradientUnits="userSpaceOnUse"
       gradientTransform="matrix(0,-154.76875,-154.76875,0,335.54904,413.64777)"
       spreadMethod="pad"
       id="linearGradient186"><stop
         style="stop-opacity:1;stop-color:#ffffff"
         offset="0"
         id="stop178" /><stop
         style="stop-opacity:1;stop-color:#ffffff"
         offset="0.00345155"
         id="stop180" /><stop
         style="stop-opacity:1;stop-color:#ffffff"
         offset="0.6851288"
         id="stop182" /><stop
         style="stop-opacity:1;stop-color:#ccd1ef"
         offset="1"
         id="stop184" /></linearGradient><clipPath
       clipPathUnits="userSpaceOnUse"
       id="clipPath196"><path
         d="m 273.339,311.105 v -32.4 c 1.075,-4.364 5.014,-7.6 9.71,-7.6 v 0 h 105 c 4.696,0 8.636,3.236 9.71,7.6 v 0 32.4 z"
         id="path194" /></clipPath><linearGradient
       x1="0"
       y1="0"
       x2="1"
       y2="0"
       gradientUnits="userSpaceOnUse"
       gradientTransform="matrix(0,-56.929642,-56.929642,0,335.54904,320.80585)"
       spreadMethod="pad"
       id="linearGradient210"><stop
         style="stop-opacity:1;stop-color:#fcd101"
         offset="0"
         id="stop202" /><stop
         style="stop-opacity:1;stop-color:#fcd101"
         offset="0.209967"
         id="stop204" /><stop
         style="stop-opacity:1;stop-color:#fcd101"
         offset="0.44074003"
         id="stop206" /><stop
         style="stop-opacity:1;stop-color:#cea300"
         offset="1"
         id="stop208" /></linearGradient><clipPath
       clipPathUnits="userSpaceOnUse"
       id="clipPath220"><path
         d="m 283.049,396.105 c -5.523,0 -10,-4.477 -10,-10 v 0 -105 c 0,-5.523 4.477,-10 10,-10 v 0 h 105 c 5.523,0 10,4.477 10,10 v 0 105 c 0,5.523 -4.477,10 -10,10 v 0 z"
         id="path218" /></clipPath><clipPath
       clipPathUnits="userSpaceOnUse"
       id="clipPath236"><path
         d="M 0,500 H 500 V 0 H 0 Z"
         id="path234" /></clipPath><clipPath
       clipPathUnits="userSpaceOnUse"
       id="clipPath248"><path
         d="m 111.951,228.895 c -5.523,0 -10,-4.477 -10,-10 v 0 -105 c 0,-5.523 4.477,-10 10,-10 v 0 h 105 c 5.523,0 10,4.477 10,10 v 0 105 c 0,5.523 -4.477,10 -10,10 v 0 z"
         id="path246" /></clipPath><linearGradient
       x1="0"
       y1="0"
       x2="1"
       y2="0"
       gradientUnits="userSpaceOnUse"
       gradientTransform="matrix(0,-84.716202,-84.716202,0,164.45094,221.67528)"
       spreadMethod="pad"
       id="linearGradient262"><stop
         style="stop-opacity:1;stop-color:#ffffff"
         offset="0"
         id="stop254" /><stop
         style="stop-opacity:1;stop-color:#ffffff"
         offset="0.00345155"
         id="stop256" /><stop
         style="stop-opacity:1;stop-color:#ffffff"
         offset="0.6851288"
         id="stop258" /><stop
         style="stop-opacity:1;stop-color:#ccd1ef"
         offset="1"
         id="stop260" /></linearGradient><clipPath
       clipPathUnits="userSpaceOnUse"
       id="clipPath272"><path
         d="m 102.241,143.895 v -32.4 c 1.075,-4.364 5.014,-7.6 9.71,-7.6 v 0 h 105 c 4.696,0 8.635,3.236 9.71,7.6 v 0 32.4 z"
         id="path270" /></clipPath><linearGradient
       x1="0"
       y1="0"
       x2="1"
       y2="0"
       gradientUnits="userSpaceOnUse"
       gradientTransform="matrix(0,-61.344368,-61.344368,0,164.45094,166.06931)"
       spreadMethod="pad"
       id="linearGradient284"><stop
         style="stop-opacity:1;stop-color:#4c8dfc"
         offset="0"
         id="stop278" /><stop
         style="stop-opacity:1;stop-color:#4c8dfc"
         offset="0.48497147"
         id="stop280" /><stop
         style="stop-opacity:1;stop-color:#024ce1"
         offset="1"
         id="stop282" /></linearGradient><clipPath
       clipPathUnits="userSpaceOnUse"
       id="clipPath294"><path
         d="m 111.951,228.895 c -5.523,0 -10,-4.477 -10,-10 v 0 -105 c 0,-5.523 4.477,-10 10,-10 v 0 h 105 c 5.523,0 10,4.477 10,10 v 0 105 c 0,5.523 -4.477,10 -10,10 v 0 z"
         id="path292" /></clipPath><clipPath
       clipPathUnits="userSpaceOnUse"
       id="clipPath308"><path
         d="M 0,500 H 500 V 0 H 0 Z"
         id="path306" /></clipPath></defs><sodipodi:namedview
     pagecolor="#ffffff"
     bordercolor="#666666"
     borderopacity="1"
     objecttolerance="10"
     gridtolerance="10"
     guidetolerance="10"
     inkscape:pageopacity="0"
     inkscape:pageshadow="2"
     inkscape:window-width="1920"
     inkscape:window-height="1017"
     id="namedview4"
     showgrid="false"
     inkscape:zoom="1.275"
     inkscape:cx="250.86224"
     inkscape:cy="216.90657"
     inkscape:window-x="-8"
     inkscape:window-y="-8"
     inkscape:window-maximized="1"
     inkscape:current-layer="g10" /><g
     id="g10"
     inkscape:groupmode="layer"
     inkscape:label="download"
     transform="matrix(1.3333333,0,0,-1.3333333,0,666.66667)"><g
       id="g242"
       transform="translate(-88.823534,258.82355)"><g
         id="g244"
         clip-path="url(#clipPath248)"><g
           id="g250"><g
             id="g252"><path
               d="m 111.951,228.895 c -5.523,0 -10,-4.477 -10,-10 v 0 -105 c 0,-5.523 4.477,-10 10,-10 v 0 h 105 c 5.523,0 10,4.477 10,10 v 0 105 c 0,5.523 -4.477,10 -10,10 v 0 z"
               style="fill:url(#linearGradient262);stroke:none"
               id="path264" /></g></g></g></g><g
       id="g266"
       transform="translate(-88.823534,258.82355)"><g
         id="g268"
         clip-path="url(#clipPath272)"><g
           id="g274"><g
             id="g276"><path
               d="m 102.241,143.895 v -32.4 c 1.075,-4.364 5.014,-7.6 9.71,-7.6 v 0 h 105 c 4.696,0 8.635,3.236 9.71,7.6 v 0 32.4 z"
               style="fill:url(#linearGradient284);stroke:none"
               id="path286" /></g></g></g></g><g
       id="g288"
       transform="translate(-88.823534,258.82355)"><g
         id="g290"
         clip-path="url(#clipPath294)"><g
           id="g296"
           transform="translate(176.3981,187.3024)"><path
             d="M 0,0 V 23.731 H -23.894 V 0 h -9.704 L -11.947,-15.684 9.704,0 Z"
             style="fill:#989aaf;fill-opacity:1;fill-rule:nonzero;stroke:none"
             id="path298" /></g><path
           d="m 186.102,168.279 h -43.301 v -6.703 h 43.301 z"
           style="fill:#989aaf;fill-opacity:1;fill-rule:nonzero;stroke:none"
           id="path300" /></g></g><g
       id="g302"
       transform="translate(-88.823534,258.82355)"><g
         id="g304"
         clip-path="url(#clipPath308)"><g
           id="g310"
           transform="translate(216.9509,103.8949)"><path
             d="m 0,0 h -105 c -5.523,0 -10,4.477 -10,10 v 105 c 0,5.523 4.477,10 10,10 H 0 c 5.523,0 10,-4.477 10,-10 V 10 C 10,4.477 5.523,0 0,0 Z"
             style="fill:none;stroke:#c3c7e2;stroke-width:2;stroke-linecap:round;stroke-linejoin:round;stroke-miterlimit:10;stroke-dasharray:none;stroke-opacity:1"
             id="path312" /></g></g></g><text
       xml:space="preserve"
       style="font-style:normal;font-weight:normal;font-size:30px;line-height:1.05;font-family:sans-serif;fill:#f9f9f9;fill-opacity:1;stroke:none;stroke-width:0.75"
       x="31.176474"
       y="-377.64706"
       id="text332"
       transform="scale(1,-1)"><tspan
         sodipodi:role="line"
         id="tspan330"
         x="31.176474"
         y="-377.64706"
         style="font-size:18px;fill:#f9f9f9;stroke-width:0.75">Download</tspan></text></g></svg>
