<?xml version="1.0" encoding="utf-8"?>
<!-- Generator: Adobe Illustrator 27.5.0, SVG Export Plug-In . SVG Version: 6.00 Build 0)  -->
<svg version="1.1" id="PRINT" xmlns="http://www.w3.org/2000/svg" xmlns:xlink="http://www.w3.org/1999/xlink" x="0px" y="0px"
	 viewBox="0 0 841.89 595.276" style="enable-background:new 0 0 841.89 595.276;" xml:space="preserve">
<g>
	<rect x="-8.546" y="-8.542" style="fill:#F9F6E8;" width="858.976" height="612.36"/>
	<g>
		<g>
			<polygon style="fill:#FAB594;" points="15.39,-8.504 -8.45,15.045 39.23,15.045 			"/>
			<polygon style="fill:#F58F8E;" points="15.39,38.595 39.23,15.045 -8.45,15.045 			"/>
			<polygon style="fill:#FFDEAA;" points="15.39,38.595 -8.45,62.144 39.23,62.144 			"/>
			<polygon style="fill:#FAB594;" points="15.39,85.693 39.23,62.144 -8.45,62.144 			"/>
			<polygon style="fill:#FFDEAA;" points="15.39,85.693 -8.45,109.243 39.23,109.243 			"/>
			<polygon style="fill:#FAB594;" points="15.39,132.792 39.23,109.243 -8.45,109.243 			"/>
			<polygon style="fill:#FAB594;" points="15.39,132.792 -8.45,156.341 39.23,156.341 			"/>
			<polygon style="fill:#946B7B;" points="15.39,179.891 39.23,156.341 -8.45,156.341 			"/>
			<polygon style="fill:#F58F8E;" points="15.39,179.891 -8.45,203.44 39.23,203.44 			"/>
			<polygon style="fill:#F58F8E;" points="15.39,226.989 39.23,203.44 -8.45,203.44 			"/>
			<polygon style="fill:#F58F8E;" points="15.39,226.989 -8.45,250.539 39.23,250.539 			"/>
			<polygon style="fill:#FAF2D5;" points="15.39,274.088 39.23,250.539 -8.45,250.539 			"/>
			<polygon style="fill:#F58F8E;" points="15.39,274.088 -8.45,297.637 39.23,297.637 			"/>
			<polygon style="fill:#F58F8E;" points="15.39,321.186 -8.45,344.736 39.23,344.736 			"/>
			<polygon style="fill:#F58F8E;" points="15.39,368.285 39.23,344.736 -8.45,344.736 			"/>
			<polygon style="fill:#FAF2D5;" points="15.39,415.384 39.23,391.835 -8.45,391.835 			"/>
			<polygon style="fill:#FFDEAA;" points="15.39,415.384 -8.45,438.933 39.23,438.933 			"/>
			<polygon style="fill:#FAB594;" points="15.39,462.482 39.23,438.933 -8.45,438.933 			"/>
			<polygon style="fill:#FAB594;" points="15.39,462.482 -8.45,486.032 39.23,486.032 			"/>
			<polygon style="fill:#FAB594;" points="15.39,509.581 -8.45,533.13 39.23,533.13 			"/>
			<polygon style="fill:#FFDEAA;" points="15.39,556.68 39.23,533.13 -8.45,533.13 			"/>
			<polygon style="fill:#F58F8E;" points="15.39,556.68 -8.45,580.229 39.23,580.229 			"/>
			<polygon style="fill:#FFDEAA;" points="15.39,603.778 39.23,580.229 -8.45,580.229 			"/>
			<polygon style="fill:#FAB594;" points="39.231,15.047 63.071,-8.503 15.392,-8.503 			"/>
			<polygon style="fill:#FAB594;" points="39.231,15.047 15.392,38.596 63.071,38.596 			"/>
			<polygon style="fill:#F58F8E;" points="39.231,62.145 63.071,38.596 15.392,38.596 			"/>
			<polygon style="fill:#946B7B;" points="39.231,62.145 15.392,85.695 63.071,85.695 			"/>
			<polygon style="fill:#FAB594;" points="39.231,109.244 63.071,85.695 15.392,85.695 			"/>
			<polygon style="fill:#FFDEAA;" points="39.231,109.244 15.392,132.793 63.071,132.793 			"/>
			<polygon style="fill:#946B7B;" points="39.231,156.342 63.071,132.793 15.392,132.793 			"/>
			<polygon style="fill:#F58F8E;" points="39.231,156.342 15.392,179.892 63.071,179.892 			"/>
			<polygon style="fill:#FAF2D5;" points="39.231,203.441 63.071,179.892 15.392,179.892 			"/>
			<polygon style="fill:#F58F8E;" points="39.231,203.441 15.392,226.99 63.071,226.99 			"/>
			<polygon style="fill:#FAB594;" points="39.231,250.54 63.071,226.99 15.392,226.99 			"/>
			<polygon style="fill:#946B7B;" points="39.231,250.54 15.392,274.089 63.071,274.089 			"/>
			<polygon style="fill:#F58F8E;" points="39.231,297.638 63.071,274.089 15.392,274.089 			"/>
			<polygon style="fill:#FAF2D5;" points="39.231,297.638 15.392,321.188 63.071,321.188 			"/>
			<polygon style="fill:#FAB594;" points="39.231,344.737 63.071,321.188 15.392,321.188 			"/>
			<polygon style="fill:#FAF2D5;" points="39.231,344.737 15.392,368.286 63.071,368.286 			"/>
			<polygon style="fill:#FAB594;" points="39.231,391.836 63.071,368.286 15.392,368.286 			"/>
			<polygon style="fill:#946B7B;" points="39.231,391.836 15.392,415.385 63.071,415.385 			"/>
			<polygon style="fill:#FAB594;" points="39.231,438.934 63.071,415.385 15.392,415.385 			"/>
			<polygon style="fill:#946B7B;" points="39.231,438.934 15.392,462.484 63.071,462.484 			"/>
			<polygon style="fill:#FAB594;" points="39.231,486.033 63.071,462.484 15.392,462.484 			"/>
			<polygon style="fill:#FFDEAA;" points="39.231,486.033 15.392,509.582 63.071,509.582 			"/>
			<polygon style="fill:#FFDEAA;" points="39.231,533.132 63.071,509.582 15.392,509.582 			"/>
			<polygon style="fill:#FFDEAA;" points="39.231,533.132 15.392,556.681 63.071,556.681 			"/>
			<polygon style="fill:#946B7B;" points="39.231,580.23 63.071,556.681 15.392,556.681 			"/>
			<polygon style="fill:#FFDEAA;" points="39.231,580.23 15.392,603.779 63.071,603.779 			"/>
			<polygon style="fill:#F58F8E;" points="63.071,-8.504 39.231,15.045 86.911,15.045 			"/>
			<polygon style="fill:#FFDEAA;" points="63.071,38.595 39.231,62.144 86.911,62.144 			"/>
			<polygon style="fill:#FFDEAA;" points="63.071,85.693 86.911,62.144 39.231,62.144 			"/>
			<polygon style="fill:#946B7B;" points="63.071,85.693 39.231,109.243 86.911,109.243 			"/>
			<polygon style="fill:#FFDEAA;" points="63.071,132.792 86.911,109.243 39.231,109.243 			"/>
			<polygon style="fill:#F58F8E;" points="63.071,179.891 39.231,203.44 86.911,203.44 			"/>
			<polygon style="fill:#FAB594;" points="63.071,226.989 86.911,203.44 39.231,203.44 			"/>
			<polygon style="fill:#FFDEAA;" points="63.071,274.088 86.911,250.539 39.231,250.539 			"/>
			<polygon style="fill:#FFDEAA;" points="63.071,321.186 86.911,297.637 39.231,297.637 			"/>
			<polygon style="fill:#FAB594;" points="63.071,321.186 39.231,344.736 86.911,344.736 			"/>
			<polygon style="fill:#946B7B;" points="63.071,368.285 86.911,344.736 39.231,344.736 			"/>
			<polygon style="fill:#FAB594;" points="63.071,368.285 39.231,391.835 86.911,391.835 			"/>
			<polygon style="fill:#F58F8E;" points="63.071,415.384 86.911,391.835 39.231,391.835 			"/>
			<polygon style="fill:#FAB594;" points="63.071,415.384 39.231,438.933 86.911,438.933 			"/>
			<polygon style="fill:#F58F8E;" points="63.071,462.482 86.911,438.933 39.231,438.933 			"/>
			<polygon style="fill:#FFDEAA;" points="63.071,462.482 39.231,486.032 86.911,486.032 			"/>
			<polygon style="fill:#946B7B;" points="63.071,509.581 86.911,486.032 39.231,486.032 			"/>
			<polygon style="fill:#FAB594;" points="63.071,509.581 39.231,533.13 86.911,533.13 			"/>
			<polygon style="fill:#FAB594;" points="63.071,556.68 86.911,533.13 39.231,533.13 			"/>
			<polygon style="fill:#946B7B;" points="63.071,556.68 39.231,580.229 86.911,580.229 			"/>
			<polygon style="fill:#FAB594;" points="63.071,603.778 86.911,580.229 39.231,580.229 			"/>
			<polygon style="fill:#FAB594;" points="86.913,15.047 110.753,-8.503 63.073,-8.503 			"/>
			<polygon style="fill:#FAB594;" points="86.913,15.047 63.073,38.596 110.753,38.596 			"/>
			<polygon style="fill:#946B7B;" points="86.913,62.145 63.073,85.695 110.753,85.695 			"/>
			<polygon style="fill:#F58F8E;" points="86.913,109.244 110.753,85.695 63.073,85.695 			"/>
			<polygon style="fill:#FAB594;" points="86.913,109.244 63.073,132.793 110.753,132.793 			"/>
			<polygon style="fill:#F58F8E;" points="86.913,156.342 110.753,132.793 63.073,132.793 			"/>
			<polygon style="fill:#FFDEAA;" points="86.913,203.441 110.753,179.892 63.073,179.892 			"/>
			<polygon style="fill:#F58F8E;" points="86.913,203.441 63.073,226.99 110.753,226.99 			"/>
			<polygon style="fill:#FFDEAA;" points="86.913,250.54 110.753,226.99 63.073,226.99 			"/>
			<polygon style="fill:#FAB594;" points="86.913,250.54 63.073,274.089 110.753,274.089 			"/>
			<polygon style="fill:#FFDEAA;" points="86.913,297.638 63.073,321.188 110.753,321.188 			"/>
			<polygon style="fill:#FAB594;" points="86.913,344.737 110.753,321.188 63.073,321.188 			"/>
			<polygon style="fill:#946B7B;" points="86.913,344.737 63.073,368.286 110.753,368.286 			"/>
			<polygon style="fill:#F58F8E;" points="86.913,391.836 110.753,368.286 63.073,368.286 			"/>
			<polygon style="fill:#FFDEAA;" points="86.913,438.934 110.753,415.385 63.073,415.385 			"/>
			<polygon style="fill:#FFDEAA;" points="86.913,438.934 63.073,462.484 110.753,462.484 			"/>
			<polygon style="fill:#FAF2D5;" points="86.913,486.033 110.753,462.484 63.073,462.484 			"/>
			<polygon style="fill:#F58F8E;" points="86.913,486.033 63.073,509.582 110.753,509.582 			"/>
			<polygon style="fill:#FAB594;" points="86.913,533.132 110.753,509.582 63.073,509.582 			"/>
			<polygon style="fill:#F58F8E;" points="86.913,533.132 63.073,556.681 110.753,556.681 			"/>
			<polygon style="fill:#F58F8E;" points="86.913,580.23 63.073,603.779 110.753,603.779 			"/>
			<polygon style="fill:#946B7B;" points="110.753,-8.504 86.913,15.045 134.592,15.045 			"/>
			<polygon style="fill:#FAB594;" points="110.753,38.595 134.592,15.045 86.913,15.045 			"/>
			<polygon style="fill:#FAB594;" points="110.753,85.693 134.592,62.144 86.913,62.144 			"/>
			<polygon style="fill:#FAB594;" points="110.753,132.792 134.592,109.243 86.913,109.243 			"/>
			<polygon style="fill:#FAB594;" points="110.753,132.792 86.913,156.341 134.592,156.341 			"/>
			<polygon style="fill:#F58F8E;" points="110.753,179.891 134.592,156.341 86.913,156.341 			"/>
			<polygon style="fill:#F58F8E;" points="110.753,179.891 86.913,203.44 134.592,203.44 			"/>
			<polygon style="fill:#F58F8E;" points="110.753,226.989 134.592,203.44 86.913,203.44 			"/>
			<polygon style="fill:#FAB594;" points="110.753,226.989 86.913,250.539 134.592,250.539 			"/>
			<polygon style="fill:#FFDEAA;" points="110.753,274.088 134.592,250.539 86.913,250.539 			"/>
			<polygon style="fill:#FAB594;" points="110.753,274.088 86.913,297.637 134.592,297.637 			"/>
			<polygon style="fill:#FAF2D5;" points="110.753,321.186 134.592,297.637 86.913,297.637 			"/>
			<polygon style="fill:#FFDEAA;" points="110.753,321.186 86.913,344.736 134.592,344.736 			"/>
			<polygon style="fill:#946B7B;" points="110.753,368.285 134.592,344.736 86.913,344.736 			"/>
			<polygon style="fill:#946B7B;" points="110.753,368.285 86.913,391.835 134.592,391.835 			"/>
			<polygon style="fill:#FFDEAA;" points="110.753,415.384 134.592,391.835 86.913,391.835 			"/>
			<polygon style="fill:#FFDEAA;" points="110.753,415.384 86.913,438.933 134.592,438.933 			"/>
			<polygon style="fill:#FAB594;" points="110.753,462.482 134.592,438.933 86.913,438.933 			"/>
			<polygon style="fill:#FAB594;" points="110.753,462.482 86.913,486.032 134.592,486.032 			"/>
			<polygon style="fill:#F58F8E;" points="110.753,509.581 134.592,486.032 86.913,486.032 			"/>
			<polygon style="fill:#946B7B;" points="110.753,556.68 86.913,580.229 134.592,580.229 			"/>
			<polygon style="fill:#FFDEAA;" points="110.753,603.778 134.592,580.229 86.913,580.229 			"/>
			<polygon style="fill:#FFDEAA;" points="134.594,15.047 158.434,-8.503 110.754,-8.503 			"/>
			<polygon style="fill:#FFDEAA;" points="134.594,15.047 110.754,38.596 158.434,38.596 			"/>
			<polygon style="fill:#946B7B;" points="134.594,62.145 110.754,85.695 158.434,85.695 			"/>
			<polygon style="fill:#FAF2D5;" points="134.594,109.244 158.434,85.695 110.754,85.695 			"/>
			<polygon style="fill:#F58F8E;" points="134.594,109.244 110.754,132.793 158.434,132.793 			"/>
			<polygon style="fill:#FFDEAA;" points="134.594,156.342 110.754,179.892 158.434,179.892 			"/>
			<polygon style="fill:#946B7B;" points="134.594,203.441 158.434,179.892 110.754,179.892 			"/>
			<polygon style="fill:#FAF2D5;" points="134.594,203.441 110.754,226.99 158.434,226.99 			"/>
			<polygon style="fill:#F58F8E;" points="134.594,250.54 158.434,226.99 110.754,226.99 			"/>
			<polygon style="fill:#F58F8E;" points="134.594,250.54 110.754,274.089 158.434,274.089 			"/>
			<polygon style="fill:#FFDEAA;" points="134.594,297.638 158.434,274.089 110.754,274.089 			"/>
			<polygon style="fill:#FAF2D5;" points="134.594,297.638 110.754,321.188 158.434,321.188 			"/>
			<polygon style="fill:#FFDEAA;" points="134.594,344.737 158.434,321.188 110.754,321.188 			"/>
			<polygon style="fill:#FAB594;" points="134.594,391.836 158.434,368.286 110.754,368.286 			"/>
			<polygon style="fill:#946B7B;" points="134.594,391.836 110.754,415.385 158.434,415.385 			"/>
			<polygon style="fill:#FFDEAA;" points="134.594,438.934 158.434,415.385 110.754,415.385 			"/>
			<polygon style="fill:#FAF2D5;" points="134.594,438.934 110.754,462.484 158.434,462.484 			"/>
			<polygon style="fill:#946B7B;" points="134.594,486.033 158.434,462.484 110.754,462.484 			"/>
			<polygon style="fill:#FAB594;" points="134.594,486.033 110.754,509.582 158.434,509.582 			"/>
			<polygon style="fill:#FFDEAA;" points="134.594,533.132 158.434,509.582 110.754,509.582 			"/>
			<polygon style="fill:#F58F8E;" points="134.594,533.132 110.754,556.681 158.434,556.681 			"/>
			<polygon style="fill:#FAB594;" points="134.594,580.23 158.434,556.681 110.754,556.681 			"/>
			<polygon style="fill:#FAB594;" points="134.594,580.23 110.754,603.779 158.434,603.779 			"/>
			<polygon style="fill:#FAB594;" points="158.434,-8.504 134.594,15.045 182.274,15.045 			"/>
			<polygon style="fill:#F58F8E;" points="158.434,38.595 182.274,15.045 134.594,15.045 			"/>
			<polygon style="fill:#FAF2D5;" points="158.434,38.595 134.594,62.144 182.274,62.144 			"/>
			<polygon style="fill:#FFDEAA;" points="158.434,85.693 134.594,109.243 182.274,109.243 			"/>
			<polygon style="fill:#FAF2D5;" points="158.434,132.792 182.274,109.243 134.594,109.243 			"/>
			<polygon style="fill:#FAB594;" points="158.434,132.792 134.594,156.341 182.274,156.341 			"/>
			<polygon style="fill:#F58F8E;" points="158.434,179.891 134.594,203.44 182.274,203.44 			"/>
			<polygon style="fill:#FFDEAA;" points="158.434,226.989 182.274,203.44 134.594,203.44 			"/>
			<polygon style="fill:#946B7B;" points="158.434,226.989 134.594,250.539 182.274,250.539 			"/>
			<polygon style="fill:#F58F8E;" points="158.434,274.088 182.274,250.539 134.594,250.539 			"/>
			<polygon style="fill:#946B7B;" points="158.434,274.088 134.594,297.637 182.274,297.637 			"/>
			<polygon style="fill:#FFDEAA;" points="158.434,321.186 182.274,297.637 134.594,297.637 			"/>
			<polygon style="fill:#F58F8E;" points="158.434,368.285 134.594,391.835 182.274,391.835 			"/>
			<polygon style="fill:#FAB594;" points="158.434,415.384 182.274,391.835 134.594,391.835 			"/>
			<polygon style="fill:#FFDEAA;" points="158.434,415.384 134.594,438.933 182.274,438.933 			"/>
			<polygon style="fill:#F58F8E;" points="158.434,462.482 134.594,486.032 182.274,486.032 			"/>
			<polygon style="fill:#946B7B;" points="158.434,509.581 182.274,486.032 134.594,486.032 			"/>
			<polygon style="fill:#F58F8E;" points="158.434,509.581 134.594,533.13 182.274,533.13 			"/>
			<polygon style="fill:#FAF2D5;" points="158.434,556.68 134.594,580.229 182.274,580.229 			"/>
			<polygon style="fill:#F58F8E;" points="158.434,603.778 182.274,580.229 134.594,580.229 			"/>
			<polygon style="fill:#946B7B;" points="182.275,15.047 206.115,-8.503 158.436,-8.503 			"/>
			<polygon style="fill:#FAB594;" points="182.275,15.047 158.436,38.596 206.115,38.596 			"/>
			<polygon style="fill:#F58F8E;" points="182.275,62.145 206.115,38.596 158.436,38.596 			"/>
			<polygon style="fill:#F58F8E;" points="182.275,62.145 158.436,85.695 206.115,85.695 			"/>
			<polygon style="fill:#FFDEAA;" points="182.275,109.244 206.115,85.695 158.436,85.695 			"/>
			<polygon style="fill:#FAB594;" points="182.275,109.244 158.436,132.793 206.115,132.793 			"/>
			<polygon style="fill:#FFDEAA;" points="182.275,156.342 206.115,132.793 158.436,132.793 			"/>
			<polygon style="fill:#FAB594;" points="182.275,203.441 158.436,226.99 206.115,226.99 			"/>
			<polygon style="fill:#FFDEAA;" points="182.275,250.54 206.115,226.99 158.436,226.99 			"/>
			<polygon style="fill:#FAB594;" points="182.275,297.638 206.115,274.089 158.436,274.089 			"/>
			<polygon style="fill:#FFDEAA;" points="182.275,391.836 158.436,415.385 206.115,415.385 			"/>
			<polygon style="fill:#946B7B;" points="182.275,438.934 206.115,415.385 158.436,415.385 			"/>
			<polygon style="fill:#FAB594;" points="182.275,438.934 158.436,462.484 206.115,462.484 			"/>
			<polygon style="fill:#F58F8E;" points="182.275,486.033 206.115,462.484 158.436,462.484 			"/>
			<polygon style="fill:#FAB594;" points="182.275,486.033 158.436,509.582 206.115,509.582 			"/>
			<polygon style="fill:#946B7B;" points="182.275,533.132 206.115,509.582 158.436,509.582 			"/>
			<polygon style="fill:#FAF2D5;" points="15.393,-8.503 -8.504,-8.503 -8.504,14.99 -8.447,15.047 			"/>
			<polygon style="fill:#FFDEAA;" points="-8.447,15.047 -8.504,15.103 -8.504,38.596 15.393,38.596 			"/>
			<polygon style="fill:#946B7B;" points="15.393,38.596 -8.504,38.596 -8.504,62.089 -8.447,62.145 			"/>
			<polygon style="fill:#946B7B;" points="-8.447,62.145 -8.504,62.202 -8.504,85.695 15.393,85.695 			"/>
			<polygon style="fill:#F58F8E;" points="15.393,85.695 -8.504,85.695 -8.504,109.188 -8.447,109.244 			"/>
			<polygon style="fill:#946B7B;" points="-8.447,109.244 -8.504,109.3 -8.504,132.793 15.393,132.793 			"/>
			<polygon style="fill:#F58F8E;" points="15.393,132.793 -8.504,132.793 -8.504,156.286 -8.447,156.342 			"/>
			<polygon style="fill:#FAB594;" points="-8.447,156.342 -8.504,156.399 -8.504,179.892 15.393,179.892 			"/>
			<polygon style="fill:#FAB594;" points="15.393,179.892 -8.504,179.892 -8.504,203.385 -8.447,203.441 			"/>
			<polygon style="fill:#F58F8E;" points="-8.447,203.441 -8.504,203.497 -8.504,226.99 15.393,226.99 			"/>
			<polygon style="fill:#F58F8E;" points="15.393,226.99 -8.504,226.99 -8.504,250.483 -8.447,250.54 			"/>
			<polygon style="fill:#F58F8E;" points="-8.447,250.54 -8.504,250.596 -8.504,274.089 15.393,274.089 			"/>
			<polygon style="fill:#946B7B;" points="15.393,274.089 -8.504,274.089 -8.504,297.582 -8.447,297.638 			"/>
			<polygon style="fill:#FAF2D5;" points="-8.447,297.638 -8.504,297.695 -8.504,321.188 15.393,321.188 			"/>
			<polygon style="fill:#F58F8E;" points="15.393,321.188 -8.504,321.188 -8.504,344.681 -8.447,344.737 			"/>
			<polygon style="fill:#FAF2D5;" points="-8.447,344.737 -8.504,344.793 -8.504,368.286 15.393,368.286 			"/>
			<polygon style="fill:#F58F8E;" points="-8.447,391.836 -8.504,391.892 -8.504,415.385 15.393,415.385 			"/>
			<polygon style="fill:#FAB594;" points="15.393,415.385 -8.504,415.385 -8.504,438.878 -8.447,438.934 			"/>
			<polygon style="fill:#F58F8E;" points="-8.447,438.934 -8.504,438.991 -8.504,462.484 15.393,462.484 			"/>
			<polygon style="fill:#FAB594;" points="-8.447,486.033 -8.504,486.089 -8.504,509.582 15.393,509.582 			"/>
			<polygon style="fill:#FAB594;" points="15.393,509.582 -8.504,509.582 -8.504,533.075 -8.447,533.131 			"/>
			<polygon style="fill:#FFDEAA;" points="-8.447,533.131 -8.504,533.188 -8.504,556.681 15.393,556.681 			"/>
			<polygon style="fill:#946B7B;" points="15.393,556.681 -8.504,556.681 -8.504,580.174 -8.447,580.23 			"/>
			<polygon style="fill:#FFDEAA;" points="-8.504,580.287 -8.504,603.779 15.393,603.779 -8.447,580.23 			"/>
		</g>
		<g>
			<polygon style="fill:#946B7B;" points="683.439,-8.504 659.599,15.045 707.28,15.045 			"/>
			<polygon style="fill:#FAF2D5;" points="683.439,38.595 707.28,15.045 659.599,15.045 			"/>
			<polygon style="fill:#FAB594;" points="683.439,38.595 659.599,62.144 707.28,62.144 			"/>
			<polygon style="fill:#FFDEAA;" points="683.439,85.693 707.28,62.144 659.599,62.144 			"/>
			<polygon style="fill:#946B7B;" points="683.439,85.693 659.599,109.243 707.28,109.243 			"/>
			<polygon style="fill:#F58F8E;" points="683.439,132.792 707.28,109.243 659.599,109.243 			"/>
			<polygon style="fill:#F58F8E;" points="683.439,179.891 707.28,156.341 659.599,156.341 			"/>
			<polygon style="fill:#F58F8E;" points="683.439,179.891 659.599,203.44 707.28,203.44 			"/>
			<polygon style="fill:#FAF2D5;" points="683.439,226.989 707.28,203.44 659.599,203.44 			"/>
			<polygon style="fill:#FAB594;" points="683.439,226.989 659.599,250.539 707.28,250.539 			"/>
			<polygon style="fill:#FFDEAA;" points="683.439,274.088 707.28,250.539 659.599,250.539 			"/>
			<polygon style="fill:#FAB594;" points="683.439,321.186 707.28,297.637 659.599,297.637 			"/>
			<polygon style="fill:#FFDEAA;" points="683.439,321.186 659.599,344.736 707.28,344.736 			"/>
			<polygon style="fill:#946B7B;" points="683.439,368.285 659.599,391.835 707.28,391.835 			"/>
			<polygon style="fill:#FAB594;" points="683.439,415.384 707.28,391.835 659.599,391.835 			"/>
			<polygon style="fill:#FAB594;" points="683.439,415.384 659.599,438.933 707.28,438.933 			"/>
			<polygon style="fill:#F58F8E;" points="683.439,462.482 707.28,438.933 659.599,438.933 			"/>
			<polygon style="fill:#946B7B;" points="683.439,462.482 659.599,486.032 707.28,486.032 			"/>
			<polygon style="fill:#FAF2D5;" points="683.439,509.581 707.28,486.032 659.599,486.032 			"/>
			<polygon style="fill:#FFDEAA;" points="683.439,556.68 707.28,533.13 659.599,533.13 			"/>
			<polygon style="fill:#FFDEAA;" points="683.439,556.68 659.599,580.229 707.28,580.229 			"/>
			<polygon style="fill:#FAB594;" points="683.439,603.778 707.28,580.229 659.599,580.229 			"/>
			<polygon style="fill:#F58F8E;" points="707.281,15.047 731.122,-8.503 683.441,-8.503 			"/>
			<polygon style="fill:#F58F8E;" points="707.281,15.047 683.441,38.596 731.122,38.596 			"/>
			<polygon style="fill:#FFDEAA;" points="707.281,62.145 731.122,38.596 683.441,38.596 			"/>
			<polygon style="fill:#FAF2D5;" points="707.281,62.145 683.441,85.695 731.122,85.695 			"/>
			<polygon style="fill:#FFDEAA;" points="707.281,109.244 731.122,85.695 683.441,85.695 			"/>
			<polygon style="fill:#FAB594;" points="707.281,156.342 731.122,132.793 683.441,132.793 			"/>
			<polygon style="fill:#F58F8E;" points="707.281,156.342 683.441,179.892 731.122,179.892 			"/>
			<polygon style="fill:#FAB594;" points="707.281,203.441 731.122,179.892 683.441,179.892 			"/>
			<polygon style="fill:#FAB594;" points="707.281,203.441 683.441,226.99 731.122,226.99 			"/>
			<polygon style="fill:#FFDEAA;" points="707.281,250.54 731.122,226.99 683.441,226.99 			"/>
			<polygon style="fill:#946B7B;" points="707.281,250.54 683.441,274.089 731.122,274.089 			"/>
			<polygon style="fill:#FAB594;" points="707.281,297.638 731.122,274.089 683.441,274.089 			"/>
			<polygon style="fill:#FAB594;" points="707.281,297.638 683.441,321.188 731.122,321.188 			"/>
			<polygon style="fill:#946B7B;" points="707.281,344.737 731.122,321.188 683.441,321.188 			"/>
			<polygon style="fill:#F58F8E;" points="707.281,344.737 683.441,368.286 731.122,368.286 			"/>
			<polygon style="fill:#FAB594;" points="707.281,391.836 731.122,368.286 683.441,368.286 			"/>
			<polygon style="fill:#F58F8E;" points="707.281,391.836 683.441,415.385 731.122,415.385 			"/>
			<polygon style="fill:#FAB594;" points="707.281,438.934 731.122,415.385 683.441,415.385 			"/>
			<polygon style="fill:#946B7B;" points="707.281,438.934 683.441,462.484 731.122,462.484 			"/>
			<polygon style="fill:#FAB594;" points="707.281,486.033 731.122,462.484 683.441,462.484 			"/>
			<polygon style="fill:#FAF2D5;" points="707.281,486.033 683.441,509.582 731.122,509.582 			"/>
			<polygon style="fill:#F58F8E;" points="707.281,533.132 731.122,509.582 683.441,509.582 			"/>
			<polygon style="fill:#FAB594;" points="707.281,533.132 683.441,556.681 731.122,556.681 			"/>
			<polygon style="fill:#F58F8E;" points="707.281,580.23 683.441,603.779 731.122,603.779 			"/>
			<polygon style="fill:#FAF2D5;" points="731.122,-8.504 707.281,15.045 754.962,15.045 			"/>
			<polygon style="fill:#F58F8E;" points="731.122,38.595 754.962,15.045 707.281,15.045 			"/>
			<polygon style="fill:#946B7B;" points="731.122,38.595 707.281,62.144 754.962,62.144 			"/>
			<polygon style="fill:#FAB594;" points="731.122,85.693 754.962,62.144 707.281,62.144 			"/>
			<polygon style="fill:#F58F8E;" points="731.122,85.693 707.281,109.243 754.962,109.243 			"/>
			<polygon style="fill:#FAB594;" points="731.122,132.792 707.281,156.341 754.962,156.341 			"/>
			<polygon style="fill:#FFDEAA;" points="731.122,179.891 754.962,156.341 707.281,156.341 			"/>
			<polygon style="fill:#F58F8E;" points="731.122,179.891 707.281,203.44 754.962,203.44 			"/>
			<polygon style="fill:#FFDEAA;" points="731.122,226.989 754.962,203.44 707.281,203.44 			"/>
			<polygon style="fill:#FAB594;" points="731.122,226.989 707.281,250.539 754.962,250.539 			"/>
			<polygon style="fill:#FFDEAA;" points="731.122,274.088 754.962,250.539 707.281,250.539 			"/>
			<polygon style="fill:#F58F8E;" points="731.122,274.088 707.281,297.637 754.962,297.637 			"/>
			<polygon style="fill:#FAB594;" points="731.122,321.186 754.962,297.637 707.281,297.637 			"/>
			<polygon style="fill:#FFDEAA;" points="731.122,368.285 754.962,344.736 707.281,344.736 			"/>
			<polygon style="fill:#FAB594;" points="731.122,368.285 707.281,391.835 754.962,391.835 			"/>
			<polygon style="fill:#FFDEAA;" points="731.122,415.384 754.962,391.835 707.281,391.835 			"/>
			<polygon style="fill:#F58F8E;" points="731.122,415.384 707.281,438.933 754.962,438.933 			"/>
			<polygon style="fill:#FAF2D5;" points="731.122,462.482 754.962,438.933 707.281,438.933 			"/>
			<polygon style="fill:#FFDEAA;" points="731.122,509.581 754.962,486.032 707.281,486.032 			"/>
			<polygon style="fill:#F58F8E;" points="731.122,509.581 707.281,533.13 754.962,533.13 			"/>
			<polygon style="fill:#FAB594;" points="731.122,556.68 754.962,533.13 707.281,533.13 			"/>
			<polygon style="fill:#FFDEAA;" points="731.122,556.68 707.281,580.229 754.962,580.229 			"/>
			<polygon style="fill:#946B7B;" points="754.964,15.047 778.804,-8.503 731.124,-8.503 			"/>
			<polygon style="fill:#FFDEAA;" points="754.964,15.047 731.124,38.596 778.804,38.596 			"/>
			<polygon style="fill:#F58F8E;" points="754.964,62.145 778.804,38.596 731.124,38.596 			"/>
			<polygon style="fill:#F58F8E;" points="754.964,62.145 731.124,85.695 778.804,85.695 			"/>
			<polygon style="fill:#FAF2D5;" points="754.964,109.244 731.124,132.793 778.804,132.793 			"/>
			<polygon style="fill:#946B7B;" points="754.964,156.342 778.804,132.793 731.124,132.793 			"/>
			<polygon style="fill:#FFDEAA;" points="754.964,156.342 731.124,179.892 778.804,179.892 			"/>
			<polygon style="fill:#F58F8E;" points="754.964,203.441 731.124,226.99 778.804,226.99 			"/>
			<polygon style="fill:#F58F8E;" points="754.964,250.54 778.804,226.99 731.124,226.99 			"/>
			<polygon style="fill:#946B7B;" points="754.964,297.638 778.804,274.089 731.124,274.089 			"/>
			<polygon style="fill:#FFDEAA;" points="754.964,297.638 731.124,321.188 778.804,321.188 			"/>
			<polygon style="fill:#FFDEAA;" points="754.964,344.737 778.804,321.188 731.124,321.188 			"/>
			<polygon style="fill:#FAF2D5;" points="754.964,344.737 731.124,368.286 778.804,368.286 			"/>
			<polygon style="fill:#F58F8E;" points="754.964,391.836 778.804,368.286 731.124,368.286 			"/>
			<polygon style="fill:#F58F8E;" points="754.964,391.836 731.124,415.385 778.804,415.385 			"/>
			<polygon style="fill:#F58F8E;" points="754.964,438.934 778.804,415.385 731.124,415.385 			"/>
			<polygon style="fill:#FAB594;" points="754.964,438.934 731.124,462.484 778.804,462.484 			"/>
			<polygon style="fill:#F58F8E;" points="754.964,486.033 731.124,509.582 778.804,509.582 			"/>
			<polygon style="fill:#946B7B;" points="754.964,533.132 778.804,509.582 731.124,509.582 			"/>
			<polygon style="fill:#F58F8E;" points="754.964,533.132 731.124,556.681 778.804,556.681 			"/>
			<polygon style="fill:#F58F8E;" points="754.964,580.23 778.804,556.681 731.124,556.681 			"/>
			<polygon style="fill:#946B7B;" points="754.964,580.23 731.124,603.779 778.804,603.779 			"/>
			<polygon style="fill:#F58F8E;" points="778.804,-8.504 754.964,15.045 802.645,15.045 			"/>
			<polygon style="fill:#FAF2D5;" points="778.804,38.595 802.645,15.045 754.964,15.045 			"/>
			<polygon style="fill:#FAB594;" points="778.804,38.595 754.964,62.144 802.645,62.144 			"/>
			<polygon style="fill:#FFDEAA;" points="778.804,85.693 802.645,62.144 754.964,62.144 			"/>
			<polygon style="fill:#FAB594;" points="778.804,85.693 754.964,109.243 802.645,109.243 			"/>
			<polygon style="fill:#F58F8E;" points="778.804,132.792 802.645,109.243 754.964,109.243 			"/>
			<polygon style="fill:#F58F8E;" points="778.804,132.792 754.964,156.341 802.645,156.341 			"/>
			<polygon style="fill:#FFDEAA;" points="778.804,179.891 754.964,203.44 802.645,203.44 			"/>
			<polygon style="fill:#FAB594;" points="778.804,226.989 802.645,203.44 754.964,203.44 			"/>
			<polygon style="fill:#FFDEAA;" points="778.804,226.989 754.964,250.539 802.645,250.539 			"/>
			<polygon style="fill:#FAB594;" points="778.804,274.088 754.964,297.637 802.645,297.637 			"/>
			<polygon style="fill:#FFDEAA;" points="778.804,321.186 802.645,297.637 754.964,297.637 			"/>
			<polygon style="fill:#F58F8E;" points="778.804,321.186 754.964,344.736 802.645,344.736 			"/>
			<polygon style="fill:#946B7B;" points="778.804,368.285 802.645,344.736 754.964,344.736 			"/>
			<polygon style="fill:#946B7B;" points="778.804,415.384 802.645,391.835 754.964,391.835 			"/>
			<polygon style="fill:#F58F8E;" points="778.804,415.384 754.964,438.933 802.645,438.933 			"/>
			<polygon style="fill:#FFDEAA;" points="778.804,462.482 802.645,438.933 754.964,438.933 			"/>
			<polygon style="fill:#946B7B;" points="778.804,462.482 754.964,486.032 802.645,486.032 			"/>
			<polygon style="fill:#FAB594;" points="778.804,509.581 802.645,486.032 754.964,486.032 			"/>
			<polygon style="fill:#F58F8E;" points="778.804,509.581 754.964,533.13 802.645,533.13 			"/>
			<polygon style="fill:#FAB594;" points="778.804,556.68 802.645,533.13 754.964,533.13 			"/>
			<polygon style="fill:#FFDEAA;" points="778.804,556.68 754.964,580.229 802.645,580.229 			"/>
			<polygon style="fill:#FFDEAA;" points="778.804,603.778 802.645,580.229 754.964,580.229 			"/>
			<polygon style="fill:#F58F8E;" points="802.646,15.047 826.487,-8.503 778.806,-8.503 			"/>
			<polygon style="fill:#F58F8E;" points="802.646,15.047 778.806,38.596 826.487,38.596 			"/>
			<polygon style="fill:#F58F8E;" points="802.646,62.145 778.806,85.695 826.487,85.695 			"/>
			<polygon style="fill:#F58F8E;" points="802.646,109.244 826.487,85.695 778.806,85.695 			"/>
			<polygon style="fill:#FAF2D5;" points="802.646,109.244 778.806,132.793 826.487,132.793 			"/>
			<polygon style="fill:#FAB594;" points="802.646,156.342 826.487,132.793 778.806,132.793 			"/>
			<polygon style="fill:#FAB594;" points="802.646,156.342 778.806,179.892 826.487,179.892 			"/>
			<polygon style="fill:#946B7B;" points="802.646,203.441 826.487,179.892 778.806,179.892 			"/>
			<polygon style="fill:#FFDEAA;" points="802.646,203.441 778.806,226.99 826.487,226.99 			"/>
			<polygon style="fill:#FFDEAA;" points="802.646,250.54 826.487,226.99 778.806,226.99 			"/>
			<polygon style="fill:#FAF2D5;" points="802.646,250.54 778.806,274.089 826.487,274.089 			"/>
			<polygon style="fill:#F58F8E;" points="802.646,297.638 826.487,274.089 778.806,274.089 			"/>
			<polygon style="fill:#946B7B;" points="802.646,297.638 778.806,321.188 826.487,321.188 			"/>
			<polygon style="fill:#FFDEAA;" points="802.646,344.737 778.806,368.286 826.487,368.286 			"/>
			<polygon style="fill:#FFDEAA;" points="802.646,391.836 826.487,368.286 778.806,368.286 			"/>
			<polygon style="fill:#FAB594;" points="802.646,391.836 778.806,415.385 826.487,415.385 			"/>
			<polygon style="fill:#946B7B;" points="802.646,438.934 826.487,415.385 778.806,415.385 			"/>
			<polygon style="fill:#946B7B;" points="802.646,438.934 778.806,462.484 826.487,462.484 			"/>
			<polygon style="fill:#FAF2D5;" points="802.646,486.033 826.487,462.484 778.806,462.484 			"/>
			<polygon style="fill:#FAF2D5;" points="802.646,486.033 778.806,509.582 826.487,509.582 			"/>
			<polygon style="fill:#FFDEAA;" points="802.646,533.132 826.487,509.582 778.806,509.582 			"/>
			<polygon style="fill:#FFDEAA;" points="802.646,533.132 778.806,556.681 826.487,556.681 			"/>
			<polygon style="fill:#F58F8E;" points="802.646,580.23 778.806,603.779 826.487,603.779 			"/>
			<polygon style="fill:#FFDEAA;" points="826.487,-8.504 802.646,15.045 850.327,15.045 			"/>
			<polygon style="fill:#946B7B;" points="826.487,38.595 850.327,15.045 802.646,15.045 			"/>
			<polygon style="fill:#FFDEAA;" points="826.487,38.595 802.646,62.144 850.327,62.144 			"/>
			<polygon style="fill:#FFDEAA;" points="826.487,85.693 850.327,62.144 802.646,62.144 			"/>
			<polygon style="fill:#FAF2D5;" points="826.487,85.693 802.646,109.243 850.327,109.243 			"/>
			<polygon style="fill:#FAB594;" points="826.487,132.792 850.327,109.243 802.646,109.243 			"/>
			<polygon style="fill:#946B7B;" points="826.487,132.792 802.646,156.341 850.327,156.341 			"/>
			<polygon style="fill:#FAF2D5;" points="826.487,179.891 850.327,156.341 802.646,156.341 			"/>
			<polygon style="fill:#946B7B;" points="826.487,179.891 802.646,203.44 850.327,203.44 			"/>
			<polygon style="fill:#FFDEAA;" points="826.487,226.989 850.327,203.44 802.646,203.44 			"/>
			<polygon style="fill:#FAF2D5;" points="826.487,226.989 802.646,250.539 850.327,250.539 			"/>
			<polygon style="fill:#FFDEAA;" points="826.487,274.088 850.327,250.539 802.646,250.539 			"/>
			<polygon style="fill:#F58F8E;" points="826.487,274.088 802.646,297.637 850.327,297.637 			"/>
			<polygon style="fill:#FAB594;" points="826.487,321.186 850.327,297.637 802.646,297.637 			"/>
			<polygon style="fill:#FFDEAA;" points="826.487,321.186 802.646,344.736 850.327,344.736 			"/>
			<polygon style="fill:#FAB594;" points="826.487,368.285 850.327,344.736 802.646,344.736 			"/>
			<polygon style="fill:#946B7B;" points="826.487,368.285 802.646,391.835 850.327,391.835 			"/>
			<polygon style="fill:#FAF2D5;" points="826.487,415.384 802.646,438.933 850.327,438.933 			"/>
			<polygon style="fill:#FAF2D5;" points="826.487,462.482 850.327,438.933 802.646,438.933 			"/>
			<polygon style="fill:#946B7B;" points="826.487,462.482 802.646,486.032 850.327,486.032 			"/>
			<polygon style="fill:#FAF2D5;" points="826.487,509.581 850.327,486.032 802.646,486.032 			"/>
			<polygon style="fill:#FFDEAA;" points="826.487,509.581 802.646,533.13 850.327,533.13 			"/>
			<polygon style="fill:#F58F8E;" points="826.487,556.68 850.327,533.13 802.646,533.13 			"/>
			<polygon style="fill:#F58F8E;" points="826.487,556.68 802.646,580.229 850.327,580.229 			"/>
			<polygon style="fill:#946B7B;" points="826.487,603.778 850.327,580.229 802.646,580.229 			"/>
			<polygon style="fill:#946B7B;" points="850.329,15.047 850.394,14.983 850.394,-8.503 826.489,-8.503 			"/>
			<polygon style="fill:#FAB594;" points="826.489,38.596 850.394,38.596 850.394,15.11 850.329,15.047 			"/>
			<polygon style="fill:#FAB594;" points="850.329,62.145 850.394,62.081 850.394,38.596 826.489,38.596 			"/>
			<polygon style="fill:#946B7B;" points="826.489,85.695 850.394,85.695 850.394,62.209 850.329,62.145 			"/>
			<polygon style="fill:#F58F8E;" points="850.329,109.244 850.394,109.18 850.394,85.695 826.489,85.695 			"/>
			<polygon style="fill:#FFDEAA;" points="826.489,132.793 850.394,132.793 850.394,109.308 850.329,109.244 			"/>
			<polygon style="fill:#FAF2D5;" points="850.329,156.342 850.394,156.279 850.394,132.793 826.489,132.793 			"/>
			<polygon style="fill:#946B7B;" points="826.489,179.892 850.394,179.892 850.394,156.406 850.329,156.342 			"/>
			<polygon style="fill:#F58F8E;" points="850.329,203.441 850.394,203.377 850.394,179.892 826.489,179.892 			"/>
			<polygon style="fill:#F58F8E;" points="826.489,226.99 850.394,226.99 850.394,203.505 850.329,203.441 			"/>
			<polygon style="fill:#FFDEAA;" points="850.329,250.54 850.394,250.476 850.394,226.99 826.489,226.99 			"/>
			<polygon style="fill:#946B7B;" points="850.329,297.638 850.394,297.574 850.394,274.089 826.489,274.089 			"/>
			<polygon style="fill:#FFDEAA;" points="850.329,344.737 850.394,344.673 850.394,321.188 826.489,321.188 			"/>
			<polygon style="fill:#FFDEAA;" points="826.489,368.286 850.394,368.286 850.394,344.801 850.329,344.737 			"/>
			<polygon style="fill:#FAB594;" points="850.329,391.836 850.394,391.772 850.394,368.286 826.489,368.286 			"/>
			<polygon style="fill:#F58F8E;" points="826.489,415.385 850.394,415.385 850.394,391.9 850.329,391.836 			"/>
			<polygon style="fill:#FAB594;" points="826.489,462.484 850.394,462.484 850.394,438.998 850.329,438.934 			"/>
			<polygon style="fill:#FAB594;" points="850.329,486.033 850.394,485.969 850.394,462.484 826.489,462.484 			"/>
			<polygon style="fill:#FFDEAA;" points="826.489,509.582 850.394,509.582 850.394,486.097 850.329,486.033 			"/>
			<polygon style="fill:#FAB594;" points="850.329,533.131 850.394,533.068 850.394,509.582 826.489,509.582 			"/>
			<polygon style="fill:#F58F8E;" points="826.489,556.681 850.394,556.681 850.394,533.195 850.329,533.131 			"/>
			<polygon style="fill:#FFDEAA;" points="850.329,580.23 850.394,580.166 850.394,556.681 826.489,556.681 			"/>
			<polygon style="fill:#FFDEAA;" points="850.329,580.23 826.489,603.779 850.394,603.779 850.394,580.294 			"/>
			<polygon style="fill:#FAB594;" points="659.602,15.047 683.442,-8.503 635.761,-8.503 			"/>
			<polygon style="fill:#FAB594;" points="659.602,15.047 635.761,38.596 683.442,38.596 			"/>
			<polygon style="fill:#FFDEAA;" points="659.602,62.145 683.442,38.596 635.761,38.596 			"/>
			<polygon style="fill:#FAB594;" points="659.602,62.145 635.761,85.695 683.442,85.695 			"/>
			<polygon style="fill:#F58F8E;" points="659.602,109.244 683.442,85.695 635.761,85.695 			"/>
			<polygon style="fill:#FFDEAA;" points="659.602,203.441 635.761,226.99 683.442,226.99 			"/>
			<polygon style="fill:#946B7B;" points="659.602,250.54 683.442,226.99 635.761,226.99 			"/>
			<polygon style="fill:#F58F8E;" points="659.602,297.638 635.761,321.188 683.442,321.188 			"/>
			<polygon style="fill:#FFDEAA;" points="659.602,391.836 635.761,415.385 683.442,415.385 			"/>
			<polygon style="fill:#FAF2D5;" points="659.602,438.934 683.442,415.385 635.761,415.385 			"/>
			<polygon style="fill:#FFDEAA;" points="659.602,438.934 635.761,462.484 683.442,462.484 			"/>
			<polygon style="fill:#F58F8E;" points="659.602,486.033 683.442,462.484 635.761,462.484 			"/>
			<polygon style="fill:#FAB594;" points="659.602,486.033 635.761,509.582 683.442,509.582 			"/>
			<polygon style="fill:#FFDEAA;" points="659.602,533.132 683.442,509.582 635.761,509.582 			"/>
			<polygon style="fill:#FFDEAA;" points="659.602,533.132 635.761,556.681 683.442,556.681 			"/>
			<polygon style="fill:#F58F8E;" points="659.602,580.23 635.761,603.779 683.442,603.779 			"/>
		</g>
	</g>
	<g>
		<rect x="256.443" y="84.105" style="fill:none;" width="328.997" height="39.788"/>
		<text transform="matrix(1 0 0 1 257.2751 122.0647)" style="fill:#5F4551; font-family:'Raleway-Bold'; font-size:51.9996px;">CERTIFICATE</text>
		<rect x="303.693" y="144.314" style="fill:none;" width="234.498" height="23.369"/>
		<text transform="matrix(1 0 0 1 310.9738 164.0252)" style="fill:#946B7B; font-family:'Raleway-Regular'; font-size:26.9998px;">OF APRECIATION</text>
		<rect x="303.693" y="315.352" style="fill:none;" width="234.498" height="13.292"/>
		<text transform="matrix(1 0 0 1 344.1438 327.032)" style="fill:#5F4551; font-family:'Raleway-Regular'; font-size:15.9999px;">The Company Name</text>
		<rect x="279.388" y="526.589" style="fill:none;" width="58.61" height="13.292"/>
		<text transform="matrix(1 0 0 1 289.1179 537.5388)" style="fill:#5F4551; font-family:'Raleway-Regular'; font-size:14.9999px;">DATE</text>
		<rect x="487.636" y="526.589" style="fill:none;" width="91.109" height="13.292"/>
		<text transform="matrix(1 0 0 1 490.8469 537.5388)" style="fill:#5F4551; font-family:'Raleway-Regular'; font-size:14.9999px;">SIGNATURE</text>
		<rect x="240.803" y="348.54" style="fill:none;" width="363.997" height="49.042"/>
		<text transform="matrix(1 0 0 1 253.155 354.3806)"><tspan x="0" y="0" style="fill:#5F4551; font-family:'Raleway-Light'; font-size:7.9999px;">Lorem ipsum dolor sit amet, consectetur adipiscing elit, sed do eiusmod tempor incididunt ut </tspan><tspan x="-9.691" y="9.6" style="fill:#5F4551; font-family:'Raleway-Light'; font-size:7.9999px;">labore et dolore magna aliqua. Ut enim ad minim veniam, quis nostrud exercitation ullamco laboris </tspan><tspan x="-5.379" y="19.2" style="fill:#5F4551; font-family:'Raleway-Light'; font-size:7.9999px;">nisi ut aliquip ex ea commodo consequat. Duis aute irure dolor in reprehenderit in voluptate velit </tspan><tspan x="-8.037" y="28.8" style="fill:#5F4551; font-family:'Raleway-Light'; font-size:7.9999px;">esse cillum dolore eu fugiat nulla pariatur. Excepteur sint occaecat cupidatat non proident, sunt in </tspan><tspan x="74.913" y="38.399" style="fill:#5F4551; font-family:'Raleway-Light'; font-size:7.9999px;">culpa qui officia deserunt mollit anim id est laborum.</tspan></text>
		<rect x="293.498" y="239.057" style="fill:none;" width="254.888" height="23.881"/>
		
			<text transform="matrix(1 0 0 1 298.5451 259.9114)" style="fill:#946B7B; font-family:'AlexBrush-Regular'; font-size:42.9997px;">Name Surname</text>
		<rect x="232.277" y="271.916" style="fill:#5F4551;" width="377.33" height="0.666"/>
		<rect x="238.68" y="515.142" style="fill:#5F4551;" width="140.026" height="0.667"/>
		<rect x="463.178" y="515.142" style="fill:#5F4551;" width="140.026" height="0.667"/>
		<rect x="324.693" y="173.873" style="fill:none;" width="192.498" height="8.252"/>
		<text transform="matrix(1 0 0 1 342.4011 180.4426)" style="fill:#5F4551; font-family:'Raleway-Light'; font-size:8.9999px;">This certificate is proudly presented to</text>
	</g>
</g>
</svg>
