<?xml version="1.0" encoding="utf-8"?>
<!-- Generator: Adobe Illustrator 27.5.0, SVG Export Plug-In . SVG Version: 6.00 Build 0)  -->
<svg version="1.1" id="PRINT" xmlns="http://www.w3.org/2000/svg" xmlns:xlink="http://www.w3.org/1999/xlink" x="0px" y="0px"
	 viewBox="0 0 614.515 425.197" style="enable-background:new 0 0 614.515 425.197;" xml:space="preserve">
<g>
	<g id="Business_card_12_" style="opacity:0.58;">
		<g>
			<g id="Artwork_138_14_">
			</g>
		</g>
	</g>
	<g>
		<defs>
			<rect id="SVGID_1_" x="-14.173" y="-14.173" width="642.861" height="453.543"/>
		</defs>
		<clipPath id="SVGID_00000003810734809540266390000004372615883343997080_">
			<use xlink:href="#SVGID_1_"  style="overflow:visible;"/>
		</clipPath>
		
			<rect x="-60.299" y="-25.741" style="clip-path:url(#SVGID_00000003810734809540266390000004372615883343997080_);fill:#FFFFFF;" width="723.45" height="481.112"/>
		<g style="clip-path:url(#SVGID_00000003810734809540266390000004372615883343997080_);">
			
				<linearGradient id="SVGID_00000155120493068995672940000002329310839768584104_" gradientUnits="userSpaceOnUse" x1="126.5065" y1="269.5829" x2="-7.8725" y2="328.5085">
				<stop  offset="0" style="stop-color:#FFFFFF"/>
				<stop  offset="1" style="stop-color:#C7CACA"/>
			</linearGradient>
			<path style="fill:url(#SVGID_00000155120493068995672940000002329310839768584104_);" d="M117.25,219.961H67.013
				c-7.57,0-14.565,4.038-18.35,10.594l-25.118,43.507c-3.785,6.556-3.785,14.633,0,21.188l25.118,43.507
				c3.785,6.556,10.78,10.594,18.35,10.594h50.237c7.57,0,14.565-4.039,18.35-10.594l25.118-43.507
				c3.785-6.556,3.785-14.633,0-21.188L135.6,230.556C131.815,224,124.82,219.961,117.25,219.961z"/>
			<path style="fill:none;stroke:#F3F3F3;stroke-width:2.2304;stroke-miterlimit:10;" d="M-67.6,66.666h198.907
				c13.027,0,25.109-6.797,31.872-17.931l52.914-87.105"/>
			<g>
				
					<linearGradient id="SVGID_00000150070637101058101600000004978741634984128700_" gradientUnits="userSpaceOnUse" x1="117.7164" y1="136.1984" x2="65.142" y2="205.0523">
					<stop  offset="0" style="stop-color:#00BAC0"/>
					<stop  offset="1" style="stop-color:#00ADA8"/>
				</linearGradient>
				<path style="fill:url(#SVGID_00000150070637101058101600000004978741634984128700_);" d="M106.513,135.564
					c3.183,0,6.148,1.712,7.739,4.468l15.084,26.125c1.591,2.756,1.591,6.18,0,8.936l-15.084,26.125
					c-1.591,2.756-4.557,4.468-7.739,4.468H76.346c-3.182,0-6.148-1.712-7.739-4.468l-15.083-26.125
					c-1.591-2.756-1.591-6.181,0-8.937l15.083-26.125c1.591-2.756,4.557-4.468,7.739-4.468H106.513 M106.513,131.103H76.346
					c-4.786,0-9.209,2.553-11.602,6.699L49.66,163.927c-2.393,4.145-2.393,9.252,0,13.397l15.083,26.125
					c2.393,4.145,6.816,6.699,11.602,6.699h30.167c4.786,0,9.209-2.554,11.602-6.699l15.083-26.125
					c2.393-4.145,2.393-9.252,0-13.397l-15.083-26.125C115.722,133.656,111.299,131.103,106.513,131.103L106.513,131.103z"/>
			</g>
			
				<linearGradient id="SVGID_00000086680276024781408820000004802653447085693582_" gradientUnits="userSpaceOnUse" x1="4.6119" y1="120.8725" x2="-106.5784" y2="246.3181">
				<stop  offset="0" style="stop-color:#005F85"/>
				<stop  offset="1" style="stop-color:#003249"/>
			</linearGradient>
			<path style="fill:url(#SVGID_00000086680276024781408820000004802653447085693582_);" d="M-19.677,100.167h-89.16
				c-7.57,0-14.565,4.038-18.35,10.594l-44.58,77.215c-3.785,6.556-3.785,14.633,0,21.188l44.58,77.215
				c3.785,6.556,10.78,10.594,18.35,10.594h89.16c7.57,0,14.565-4.039,18.35-10.594l44.58-77.215c3.785-6.556,3.785-14.633,0-21.188
				l-44.58-77.215C-5.112,104.206-12.107,100.167-19.677,100.167z"/>
			<g>
				<path style="fill:#F3F3F3;" d="M676.505,113.99c3.859,0,7.456,2.076,9.385,5.419l19.398,33.599c1.93,3.342,1.93,7.495,0,10.837
					l-19.398,33.599c-1.93,3.342-5.526,5.419-9.385,5.419h-38.797c-3.859,0-7.456-2.076-9.385-5.419l-19.398-33.599
					c-1.93-3.342-1.93-7.495,0-10.837l19.398-33.599c1.93-3.342,5.526-5.419,9.385-5.419H676.505 M676.505,111.759h-38.797
					c-4.669,0-8.983,2.491-11.317,6.534l-19.398,33.599c-2.334,4.043-2.334,9.025,0,13.068l19.398,33.599
					c2.334,4.043,6.648,6.534,11.317,6.534h38.797c4.669,0,8.983-2.491,11.317-6.534l19.398-33.599
					c2.334-4.043,2.334-9.025,0-13.068l-19.398-33.599C685.488,114.25,681.173,111.759,676.505,111.759L676.505,111.759z"/>
			</g>
			
				<linearGradient id="SVGID_00000124861124460634820190000001350572092637339289_" gradientUnits="userSpaceOnUse" x1="528.9164" y1="220.7858" x2="623.0533" y2="193.4789">
				<stop  offset="0" style="stop-color:#FFFFFF"/>
				<stop  offset="0.2567" style="stop-color:#F4F3F3"/>
				<stop  offset="0.6594" style="stop-color:#DDDEDE"/>
				<stop  offset="1" style="stop-color:#C7CACA"/>
			</linearGradient>
			<path style="fill:url(#SVGID_00000124861124460634820190000001350572092637339289_);" d="M580.482,164.788h-38.797
				c-4.669,0-8.983,2.491-11.317,6.534l-19.398,33.599c-2.334,4.043-2.334,9.025,0,13.068l19.398,33.599
				c2.334,4.043,6.648,6.534,11.317,6.534h38.797c4.669,0,8.983-2.491,11.317-6.534l19.398-33.599c2.334-4.043,2.334-9.025,0-13.068
				l-19.398-33.599C589.464,167.279,585.15,164.788,580.482,164.788z"/>
			<g>
				
					<linearGradient id="SVGID_00000099636232120144099560000002042520786202683312_" gradientUnits="userSpaceOnUse" x1="316.4004" y1="506.5004" x2="275.2953" y2="386.4185">
					<stop  offset="0" style="stop-color:#005F85"/>
					<stop  offset="1" style="stop-color:#003249"/>
				</linearGradient>
				<path style="fill:url(#SVGID_00000099636232120144099560000002042520786202683312_);" d="M307.257,379.452
					c2.714,0,5.144,1.403,6.501,3.753l53.6,92.838c1.357,2.35,1.357,5.156,0,7.507c-1.357,2.35-3.787,3.753-6.501,3.753h-107.2
					c-2.714,0-5.144-1.403-6.501-3.753c-1.357-2.35-1.357-5.156,0-7.507l53.6-92.838
					C302.113,380.855,304.544,379.452,307.257,379.452 M307.257,376.106c-3.655,0-7.31,1.809-9.398,5.426l-53.6,92.838
					c-4.177,7.235,1.044,16.278,9.398,16.278h107.2c8.354,0,13.575-9.044,9.398-16.278l-53.6-92.838
					C314.567,377.915,310.912,376.106,307.257,376.106L307.257,376.106z"/>
			</g>
			
				<linearGradient id="SVGID_00000158714668075737578910000013161117910502027932_" gradientUnits="userSpaceOnUse" x1="489.8426" y1="432.2984" x2="614.5108" y2="496.1051">
				<stop  offset="0" style="stop-color:#00BAC0"/>
				<stop  offset="1" style="stop-color:#00ADA8"/>
			</linearGradient>
			<path style="fill:url(#SVGID_00000158714668075737578910000013161117910502027932_);" d="M582.483,396.6h-62.433
				c-4.669,0-8.983,2.491-11.317,6.534l-31.216,54.068c-2.334,4.043-2.334,9.025,0,13.068l31.216,54.068
				c2.334,4.043,6.648,6.534,11.317,6.534h62.433c4.669,0,8.983-2.491,11.317-6.534l31.216-54.068c2.334-4.043,2.334-9.025,0-13.068
				L593.8,403.134C591.466,399.091,587.152,396.6,582.483,396.6z"/>
			<g>
				
					<linearGradient id="SVGID_00000011725750684328883530000011934070739963148971_" gradientUnits="userSpaceOnUse" x1="759.071" y1="235.0211" x2="615.0769" y2="397.476">
					<stop  offset="0" style="stop-color:#005F85"/>
					<stop  offset="1" style="stop-color:#003249"/>
				</linearGradient>
				<path style="fill:url(#SVGID_00000011725750684328883530000011934070739963148971_);" d="M731.654,228.997
					c3.574,0,6.905,1.923,8.692,5.018l44.58,77.215c1.787,3.096,1.787,6.941,0,10.037l-44.58,77.215
					c-1.787,3.095-5.118,5.018-8.692,5.018h-89.16c-3.574,0-6.905-1.923-8.692-5.018l-44.58-77.215
					c-1.787-3.095-1.787-6.941,0-10.037l44.58-77.215c1.787-3.095,5.118-5.018,8.692-5.018H731.654 M731.654,217.845h-89.16
					c-7.57,0-14.565,4.039-18.35,10.594l-44.58,77.215c-3.785,6.556-3.785,14.633,0,21.188l44.58,77.215
					c3.785,6.556,10.78,10.594,18.35,10.594h89.16c7.57,0,14.565-4.038,18.35-10.594l44.58-77.215
					c3.785-6.556,3.785-14.633,0-21.188l-44.58-77.215C746.219,221.884,739.224,217.845,731.654,217.845L731.654,217.845z"/>
			</g>
			
				<linearGradient id="SVGID_00000129901756134781308620000005604701744504793227_" gradientUnits="userSpaceOnUse" x1="34.7399" y1="352.7064" x2="-68.6102" y2="458.1946">
				<stop  offset="0" style="stop-color:#00BAC0"/>
				<stop  offset="1" style="stop-color:#00ADA8"/>
			</linearGradient>
			<path style="fill:url(#SVGID_00000129901756134781308620000005604701744504793227_);" d="M5.925,319.672H-110.07
				c-7.57,0-14.565,4.039-18.35,10.594l-57.998,100.455c-3.785,6.556-3.785,14.633,0,21.189l57.998,100.455
				c3.785,6.556,10.78,10.594,18.35,10.594H5.925c7.57,0,14.565-4.039,18.35-10.594l57.998-100.455
				c3.785-6.556,3.785-14.633,0-21.189L24.275,330.266C20.49,323.71,13.495,319.672,5.925,319.672z"/>
			
				<linearGradient id="SVGID_00000029748735890906698960000006721505596249104302_" gradientUnits="userSpaceOnUse" x1="322.2545" y1="-115.9454" x2="596.6216" y2="-115.9454">
				<stop  offset="0" style="stop-color:#005F85"/>
				<stop  offset="1" style="stop-color:#003249"/>
			</linearGradient>
			<path style="fill:url(#SVGID_00000029748735890906698960000006721505596249104302_);" d="M517.436-237.589H401.44
				c-7.57,0-14.565,4.038-18.35,10.594L325.093-126.54c-3.785,6.556-3.785,14.633,0,21.188L383.091-4.897
				c3.785,6.556,10.78,10.594,18.35,10.594h115.995c7.57,0,14.565-4.038,18.35-10.594l57.998-100.455
				c3.785-6.556,3.785-14.633,0-21.188l-57.998-100.455C532-233.55,525.005-237.589,517.436-237.589z"/>
		</g>
	</g>
	<g>
		<g>
			
				<text transform="matrix(1 0 0 1 189.5147 185.6429)" style="fill:#6B7B82; font-family:'Montserrat-Medium'; font-size:11.4766px;">This Certificate is Proudly Presented to</text>
		</g>
	</g>
	
		<text transform="matrix(1 0 0 1 190.8507 255.5052)" style="fill:#003E58; font-family:'DancingScript-Regular'; font-size:41.6888px;">Name Surname</text>
	
		<line style="fill:none;stroke:#C7CACA;stroke-width:1.1152;stroke-linecap:round;stroke-miterlimit:10;" x1="154.174" y1="270.51" x2="450.905" y2="270.51"/>
	<rect x="103.803" y="325.344" style="fill:none;" width="403.807" height="38.499"/>
	<text transform="matrix(1 0 0 1 118.1353 331.9632)"><tspan x="0" y="0" style="fill:#6B7B82; font-family:'Montserrat-Medium'; font-size:8.9214px;">Lorem ipsum dolor sit amet, consectetuer adipiscing elit, sed diam nonummy nibh </tspan><tspan x="-14.318" y="10.706" style="fill:#6B7B82; font-family:'Montserrat-Medium'; font-size:8.9214px;">euismod tincidunt ut laoreet dolore magna aliquam erat volutpat. Ut wisi enim ad minim </tspan><tspan x="62.954" y="21.412" style="fill:#6B7B82; font-family:'Montserrat-Medium'; font-size:8.9214px;">veniam, quis nostrud exerci tation ullamcorper suscipit</tspan></text>
	<g>
		
			<line style="fill:none;stroke:#C7CACA;stroke-width:1.1152;stroke-linecap:round;stroke-miterlimit:10;" x1="106.714" y1="392.551" x2="209.833" y2="392.551"/>
		<g>
			<text transform="matrix(1 0 0 1 145.4224 406.762)" style="fill:#003E58; font-family:'Montserrat-Bold'; font-size:8.9214px;">date</text>
		</g>
	</g>
	<g>
		
			<line style="fill:none;stroke:#C7CACA;stroke-width:1.1152;stroke-linecap:round;stroke-miterlimit:10;" x1="407.593" y1="392.551" x2="510.712" y2="392.551"/>
		<g>
			<text transform="matrix(1 0 0 1 431.8394 406.762)" style="fill:#003E58; font-family:'Montserrat-Bold'; font-size:8.9214px;">signature</text>
		</g>
	</g>
	<g>
		<g>
			
				<text transform="matrix(1 0 0 1 151.2447 106.4075)" style="fill:#003E58; font-family:'Montserrat-Bold'; font-size:45.6184px;">certificate</text>
		</g>
		<g>
			
				<text transform="matrix(1 0 0 1 205.5596 135.1097)" style="fill:#003E58; font-family:'Montserrat-Medium'; font-size:24.5884px;">Of Achievement</text>
		</g>
	</g>
	<g>
		<g>
			<g>
				<path style="fill:#676767;" d="M30.136,43.075L16.451,29.389l0,0c7.558-7.558,19.813-7.558,27.371,0l0,0L30.136,43.075z"/>
				<path style="fill:#003E58;" d="M42.162,16.943L28.476,30.628v0c7.558,7.558,19.812,7.558,27.371,0v0L42.162,16.943z"/>
			</g>
			<g>
				
					<text transform="matrix(1 0 0 1 62.2428 27.6648)" style="fill:#003E58; font-family:'Montserrat-ExtraBold'; font-size:13.3822px;">logo</text>
				
					<text transform="matrix(1 0 0 1 62.2428 39.3997)" style="fill:#003E58; font-family:'Montserrat-BoldItalic'; font-size:10.4518px;">company name</text>
			</g>
		</g>
		<g>
			<g>
				<g>
					<text transform="matrix(1 0 0 1 540.4713 52.5608)" style="fill:#003E58; font-family:'BebasNeueBold'; font-size:12.6999px;">premium</text>
					<text transform="matrix(1 0 0 1 542.6304 62.6517)" style="fill:#003E58; font-family:'BebasNeueBold'; font-size:12.6999px;">quality</text>
				</g>
				<g>
					<polygon style="fill:#C09969;" points="557.94,25.809 559.042,29.199 562.607,29.199 559.723,31.294 560.824,34.685 
						557.94,32.589 555.056,34.685 556.158,31.294 553.274,29.199 556.839,29.199 					"/>
					<polygon style="fill:#C09969;" points="567.679,30.247 568.48,32.711 571.071,32.711 568.975,34.234 569.775,36.698 
						567.679,35.175 565.583,36.698 566.383,34.234 564.287,32.711 566.878,32.711 					"/>
					<polygon style="fill:#C09969;" points="575.007,34.866 575.539,36.505 577.263,36.505 575.869,37.518 576.401,39.156 
						575.007,38.144 573.613,39.156 574.145,37.518 572.751,36.505 574.474,36.505 					"/>
					<polygon style="fill:#C09969;" points="548.202,30.247 547.401,32.711 544.81,32.711 546.906,34.234 546.106,36.698 
						548.202,35.175 550.298,36.698 549.497,34.234 551.594,32.711 549.003,32.711 					"/>
					<polygon style="fill:#C09969;" points="540.874,34.866 540.341,36.505 538.618,36.505 540.012,37.518 539.48,39.156 
						540.874,38.144 542.268,39.156 541.736,37.518 543.13,36.505 541.406,36.505 					"/>
				</g>
			</g>
			<g id="badge_5_">
				<g>
					<g>
						<path style="fill:#AA824E;" d="M583.239,78.318c0,0,3.626-1.94,4.8-3.013l0.255,5.157l4.34,1.634
							c-1.174,0.919-3.779,2.809-6.026,3.728l-4.034-1.532L583.239,78.318z"/>
						<path style="fill:#AA824E;" d="M532.467,78.318c0,0-3.625-1.94-4.8-3.013l-0.255,5.157l-4.34,1.634
							c1.174,0.919,3.779,2.809,6.026,3.728l4.034-1.532L532.467,78.318z"/>
					</g>
					<path style="fill:#C09969;" d="M584.414,82.677l-0.514-6.76c-3.968,2.866-16.091,7.201-26.047,7.201
						c-10.985,0-22.079-4.335-26.047-7.201l-0.514,6.76l-6.025,3.38c7.788,4.555,20.72,8.082,32.587,8.082
						c10.911,0,24.798-3.527,32.586-8.082L584.414,82.677z"/>
				</g>
				<g>
					<g>
						<path style="fill:#003E58;" d="M575.849,20.476c-0.984-1.022-1.771-2.315-1.282-4.184c0.768,0.537,1.333,1.143,1.543,1.881
							C576.327,18.903,576.249,19.679,575.849,20.476z"/>
						<path style="fill:#003E58;" d="M575.813,20.525c-1.256-0.661-2.832-0.664-4.079,0.731c0.684,0.36,1.41,0.437,2.086,0.351
							C574.5,21.509,575.185,21.161,575.813,20.525z"/>
						<path style="fill:#003E58;" d="M573.482,18.915c-0.756-1.932-2.583-2.951-4.95-2.375c0.571,0.979,1.266,1.608,2.066,2.022
							C571.392,18.989,572.363,19.055,573.482,18.915z"/>
					</g>
					<g>
						<path style="fill:#003E58;" d="M578.636,22.703c-1.014-1.237-1.696-2.859-0.965-4.878c0.855,0.648,1.356,1.491,1.531,2.324
							C579.378,20.985,579.2,21.843,578.636,22.703z"/>
						<path style="fill:#003E58;" d="M578.589,22.755c-1.368-0.864-3.096-1.123-4.691,0.354c0.763,0.426,1.501,0.684,2.295,0.636
							C576.985,23.696,577.809,23.379,578.589,22.755z"/>
					</g>
					<g>
						<path style="fill:#003E58;" d="M581.649,25.799c-0.499-0.756-0.842-1.641-0.964-2.581c-0.135-0.925-0.004-1.957,0.564-3.057
							c0.843,0.895,1.36,1.857,1.407,2.853C582.724,23.994,582.395,24.934,581.649,25.799z"/>
						<path style="fill:#003E58;" d="M581.588,25.85c-0.72-0.567-1.528-1.024-2.434-1.118c-0.922-0.082-1.887,0.154-2.872,0.856
							c0.753,0.617,1.602,0.936,2.467,1.025C579.63,26.681,580.6,26.449,581.588,25.85z"/>
					</g>
					<g>
						<path style="fill:#003E58;" d="M584.203,29.284c-0.707-1.677-1.048-3.606,0.374-5.654c0.689,1.019,1.1,2.021,1.01,3.017
							C585.516,27.633,585.06,28.525,584.203,29.284z"/>
						<path style="fill:#003E58;" d="M584.136,29.326c-1.207-1.378-3.088-2.112-5.207-0.981c0.637,0.733,1.465,1.144,2.306,1.349
							C582.092,29.884,583.079,29.786,584.136,29.326z"/>
					</g>
					<g>
						<path style="fill:#003E58;" d="M586.27,33.075c-0.125-0.438-0.212-0.893-0.245-1.359c-0.051-0.457-0.064-0.916,0.004-1.387
							c0.127-0.934,0.557-1.915,1.37-2.808c0.586,1.078,0.777,2.176,0.615,3.118C587.803,31.612,587.224,32.437,586.27,33.075z"/>
						<path style="fill:#003E58;" d="M586.199,33.108c-0.257-0.376-0.549-0.728-0.878-1.03c-0.346-0.293-0.745-0.528-1.167-0.694
							c-0.856-0.33-1.817-0.376-2.979,0.056c0.573,0.787,1.253,1.351,2.12,1.634C584.107,33.381,585.091,33.42,586.199,33.108z"/>
					</g>
					<g>
						<path style="fill:#003E58;" d="M587.81,37.109c-0.084-0.917-0.14-1.834,0.137-2.754c0.286-0.923,0.781-1.809,1.725-2.593
							C590.558,34.08,589.901,36.126,587.81,37.109z"/>
						<path style="fill:#003E58;" d="M587.735,37.132c-0.361-0.83-1.013-1.537-1.789-1.987c-0.769-0.456-1.779-0.604-2.97-0.341
							C583.895,36.493,585.469,37.419,587.735,37.132z"/>
					</g>
					<g>
						<path style="fill:#003E58;" d="M588.79,41.316c0.001-0.911,0.102-1.834,0.517-2.71c0.384-0.867,0.994-1.678,2.05-2.329
							c0.133,0.601,0.207,1.171,0.16,1.707c-0.061,0.54-0.2,1.035-0.42,1.471C590.655,40.329,589.904,40.96,588.79,41.316z"/>
						<path style="fill:#003E58;" d="M588.712,41.328c-0.286-0.864-0.804-1.661-1.497-2.216c-0.725-0.55-1.707-0.836-2.91-0.741
							c0.165,0.456,0.408,0.855,0.669,1.213c0.247,0.361,0.553,0.671,0.917,0.927C586.616,41.021,587.584,41.321,588.712,41.328z"/>
					</g>
					<g>
						<path style="fill:#003E58;" d="M582.213,65.88c1.377-1.178,3.152-2.059,5.515-1.367C586.25,66.556,584.135,67.1,582.213,65.88
							z"/>
						<path style="fill:#003E58;" d="M582.153,65.828c0.948-1.573,1.118-3.563-0.647-5.24
							C580.615,62.251,580.675,64.043,582.153,65.828z"/>
					</g>
					<g>
						<path style="fill:#003E58;" d="M579.144,68.919c0.795-0.457,1.626-0.862,2.586-0.982c0.932-0.145,1.963-0.048,3.081,0.493
							c-0.446,0.436-0.909,0.794-1.383,1.051c-0.492,0.241-0.987,0.389-1.474,0.436C580.989,70.023,580.006,69.658,579.144,68.919z"
							/>
						<path style="fill:#003E58;" d="M579.093,68.859c0.605-0.677,1.003-1.543,1.1-2.429c0.072-0.914-0.197-1.878-0.922-2.84
							c-0.296,0.374-0.514,0.773-0.666,1.189c-0.17,0.399-0.265,0.822-0.287,1.266C578.286,66.943,578.487,67.867,579.093,68.859z"
							/>
					</g>
					<g>
						<path style="fill:#003E58;" d="M575.646,71.452c1.677-0.686,3.647-0.975,5.674,0.393c-0.488,0.386-1.022,0.644-1.536,0.82
							c-0.51,0.18-1.021,0.253-1.52,0.211C577.276,72.809,576.393,72.341,575.646,71.452z"/>
						<path style="fill:#003E58;" d="M575.605,71.385c1.392-1.196,2.17-3.029,0.991-5.178c-0.33,0.348-0.626,0.682-0.844,1.064
							c-0.215,0.386-0.372,0.791-0.471,1.212C575.095,69.339,575.18,70.33,575.605,71.385z"/>
					</g>
					<g>
						<path style="fill:#003E58;" d="M571.805,73.429c1.76-0.467,3.717-0.42,5.518,1.258
							C575.059,75.846,573.047,75.337,571.805,73.429z"/>
						<path style="fill:#003E58;" d="M571.772,73.357c1.529-0.999,2.618-2.699,1.792-4.994
							C572.037,69.434,571.17,71.124,571.772,73.357z"/>
					</g>
					<g>
						<path style="fill:#003E58;" d="M589.154,45.62c0.092-0.901,0.424-1.806,0.891-2.611c0.482-0.804,1.235-1.526,2.37-2.025
							C592.642,43.466,591.391,45.252,589.154,45.62z"/>
						<path style="fill:#003E58;" d="M589.075,45.622c-0.199-0.894-0.497-1.762-1.173-2.403c-0.661-0.644-1.557-1.067-2.762-1.141
							C585.571,43.948,586.774,45.273,589.075,45.622z"/>
					</g>
					<g>
						<path style="fill:#003E58;" d="M588.928,50.136c0.12-0.44,0.282-0.873,0.495-1.287c0.21-0.415,0.428-0.812,0.734-1.175
							c0.599-0.726,1.466-1.324,2.652-1.649c-0.101,1.215-0.477,2.235-1.128,2.948C590.996,49.687,590.074,50.089,588.928,50.136z"
							/>
						<path style="fill:#003E58;" d="M588.849,50.126c-0.025-0.455-0.093-0.908-0.217-1.338c-0.128-0.43-0.356-0.841-0.626-1.206
							c-0.554-0.733-1.362-1.287-2.554-1.538c0.042,0.981,0.362,1.835,0.931,2.533C586.92,49.267,587.741,49.815,588.849,50.126z"/>
					</g>
					<g>
						<path style="fill:#003E58;" d="M588.147,54.383c0.176-0.42,0.42-0.822,0.663-1.21c0.242-0.388,0.533-0.75,0.884-1.073
							c0.349-0.322,0.764-0.605,1.232-0.831c0.457-0.227,0.984-0.396,1.591-0.483c-0.087,0.603-0.287,1.147-0.55,1.619
							c-0.258,0.472-0.572,0.872-0.938,1.187C590.281,54.221,589.282,54.491,588.147,54.383z"/>
						<path style="fill:#003E58;" d="M588.07,54.363c0.035-0.455,0.054-0.907-0.036-1.354c-0.091-0.447-0.24-0.879-0.462-1.274
							c-0.223-0.396-0.511-0.755-0.899-1.066c-0.399-0.313-0.881-0.574-1.458-0.774c-0.001,0.494,0.021,0.951,0.111,1.383
							c0.095,0.433,0.263,0.842,0.504,1.223C586.298,53.258,587.009,53.902,588.07,54.363z"/>
					</g>
					<g>
						<path style="fill:#003E58;" d="M586.773,58.477c0.506-0.766,1.078-1.496,1.862-2.039c0.807-0.534,1.743-0.91,2.977-0.92
							c-0.344,1.184-1.075,2.067-1.873,2.592C588.91,58.629,587.879,58.75,586.773,58.477z"/>
						<path style="fill:#003E58;" d="M586.7,58.446c0.237-0.876,0.215-1.824-0.114-2.669c-0.306-0.839-1.003-1.594-2.086-2.14
							c-0.137,0.964-0.135,1.817,0.251,2.645C585.11,57.095,585.717,57.834,586.7,58.446z"/>
					</g>
					<g>
						<path style="fill:#003E58;" d="M584.802,62.319c0.293-0.349,0.622-0.674,0.99-0.962c0.345-0.301,0.727-0.565,1.156-0.775
							c0.872-0.41,1.87-0.639,3.086-0.473c-0.138,0.278-0.283,0.54-0.445,0.779c-0.175,0.234-0.359,0.447-0.552,0.639
							c-0.385,0.384-0.803,0.681-1.245,0.879C586.867,62.783,585.859,62.761,584.802,62.319z"/>
						<path style="fill:#003E58;" d="M584.734,62.277c0.169-0.424,0.297-0.863,0.364-1.304c0.044-0.454,0.022-0.91-0.077-1.352
							c-0.183-0.878-0.746-1.718-1.746-2.419c-0.076,0.228-0.13,0.456-0.171,0.681c-0.054,0.219-0.088,0.437-0.104,0.655
							c-0.03,0.437,0.016,0.873,0.139,1.306C583.346,60.686,583.861,61.525,584.734,62.277z"/>
					</g>
					<path style="fill:#003E58;" d="M572.157,75.721c-0.307-0.254-1.207-1.194-1.487-1.861c-0.28-0.667-0.359-1.963-0.353-2.352
						c-0.481,0.727-0.214,2.114-0.705,2.439c-0.234,0.19-3.816,1.463-7.531,2.711c-1.854,0.636-3.731,1.302-5.205,1.936
						c-1.473,0.635-2.55,1.211-2.844,1.431c-0.608,0.378-0.84,0.826-0.913,1.122c-0.075,0.296-0.004,0.469-0.004,0.469
						s0.182,0.08,0.477,0.068c0.297-0.015,0.674-0.121,1.219-0.459c0.248-0.189,1.213-0.777,2.597-1.471
						c1.386-0.694,3.201-1.465,5.008-2.203c3.626-1.453,7.163-2.917,7.443-2.999C570.442,74.445,571.241,75.604,572.157,75.721z"/>
				</g>
				<g>
					<g>
						<path style="fill:#003E58;" d="M540.443,20.525c1.256-0.661,2.832-0.664,4.079,0.731c-0.684,0.36-1.41,0.437-2.086,0.351
							C541.756,21.509,541.072,21.161,540.443,20.525z"/>
						<path style="fill:#003E58;" d="M540.407,20.476c0.983-1.022,1.771-2.315,1.283-4.184c-0.769,0.537-1.333,1.143-1.543,1.881
							C539.929,18.903,540.007,19.679,540.407,20.476z"/>
						<path style="fill:#003E58;" d="M542.824,18.999c2.042,0.22,3.563-0.283,4.953-2.314c-1.024-0.302-2.086-0.325-2.959,0.083
							C543.952,17.188,543.205,17.889,542.824,18.999z"/>
					</g>
					<g>
						<path style="fill:#003E58;" d="M537.667,22.755c1.368-0.864,3.096-1.123,4.691,0.354c-0.763,0.426-1.501,0.684-2.295,0.636
							C539.271,23.696,538.448,23.379,537.667,22.755z"/>
						<path style="fill:#003E58;" d="M537.62,22.703c1.014-1.237,1.696-2.859,0.965-4.878c-0.855,0.648-1.356,1.491-1.531,2.324
							C536.878,20.985,537.056,21.843,537.62,22.703z"/>
					</g>
					<g>
						<path style="fill:#003E58;" d="M534.668,25.85c0.72-0.567,1.528-1.024,2.434-1.118c0.922-0.082,1.887,0.154,2.872,0.856
							c-0.753,0.617-1.602,0.936-2.467,1.025C536.626,26.681,535.656,26.449,534.668,25.85z"/>
						<path style="fill:#003E58;" d="M534.608,25.799c0.499-0.756,0.842-1.641,0.964-2.581c0.135-0.925,0.004-1.957-0.564-3.057
							c-0.843,0.895-1.36,1.857-1.407,2.853C533.532,23.994,533.861,24.934,534.608,25.799z"/>
					</g>
					<g>
						<path style="fill:#003E58;" d="M532.12,29.326c1.207-1.378,3.088-2.112,5.207-0.981c-0.637,0.733-1.465,1.144-2.306,1.349
							C534.164,29.884,533.177,29.786,532.12,29.326z"/>
						<path style="fill:#003E58;" d="M532.053,29.284c0.707-1.677,1.048-3.606-0.374-5.654c-0.689,1.019-1.1,2.021-1.01,3.017
							C530.74,27.633,531.196,28.525,532.053,29.284z"/>
					</g>
					<g>
						<path style="fill:#003E58;" d="M530.058,33.108c0.257-0.376,0.549-0.728,0.878-1.03c0.346-0.293,0.745-0.528,1.167-0.694
							c0.856-0.33,1.817-0.376,2.979,0.056c-0.573,0.787-1.253,1.351-2.12,1.634C532.149,33.381,531.165,33.42,530.058,33.108z"/>
						<path style="fill:#003E58;" d="M529.986,33.075c0.126-0.438,0.212-0.893,0.245-1.359c0.051-0.457,0.064-0.916-0.004-1.387
							c-0.127-0.934-0.557-1.915-1.37-2.808c-0.586,1.078-0.777,2.176-0.615,3.118C528.453,31.612,529.032,32.437,529.986,33.075z"
							/>
					</g>
					<g>
						<path style="fill:#003E58;" d="M528.522,37.132c0.361-0.83,1.013-1.537,1.789-1.987c0.769-0.456,1.779-0.604,2.97-0.341
							C532.361,36.493,530.787,37.419,528.522,37.132z"/>
						<path style="fill:#003E58;" d="M528.446,37.109c0.084-0.917,0.14-1.834-0.137-2.754c-0.286-0.923-0.781-1.809-1.725-2.593
							C525.698,34.08,526.355,36.126,528.446,37.109z"/>
					</g>
					<g>
						<path style="fill:#003E58;" d="M527.544,41.328c0.286-0.864,0.804-1.661,1.497-2.216c0.725-0.55,1.707-0.836,2.91-0.741
							c-0.165,0.456-0.408,0.855-0.669,1.213c-0.247,0.361-0.554,0.671-0.917,0.927C529.64,41.021,528.673,41.321,527.544,41.328z"
							/>
						<path style="fill:#003E58;" d="M527.466,41.316c-0.001-0.911-0.102-1.834-0.517-2.71c-0.384-0.867-0.994-1.678-2.05-2.329
							c-0.133,0.601-0.207,1.171-0.16,1.707c0.061,0.54,0.2,1.035,0.42,1.471C525.601,40.329,526.352,40.96,527.466,41.316z"/>
					</g>
					<g>
						<path style="fill:#003E58;" d="M534.103,65.828c-0.948-1.573-1.118-3.563,0.647-5.24
							C535.641,62.251,535.582,64.043,534.103,65.828z"/>
						<path style="fill:#003E58;" d="M534.043,65.88c-1.377-1.178-3.152-2.059-5.515-1.367
							C530.006,66.556,532.121,67.1,534.043,65.88z"/>
					</g>
					<g>
						<path style="fill:#003E58;" d="M537.164,68.859c-0.605-0.677-1.003-1.543-1.1-2.429c-0.072-0.914,0.197-1.878,0.922-2.84
							c0.296,0.374,0.514,0.773,0.666,1.189c0.17,0.399,0.265,0.822,0.287,1.266C537.97,66.943,537.769,67.867,537.164,68.859z"/>
						<path style="fill:#003E58;" d="M537.112,68.919c-0.795-0.457-1.626-0.862-2.586-0.982c-0.932-0.145-1.963-0.048-3.081,0.493
							c0.446,0.436,0.909,0.794,1.383,1.051c0.492,0.241,0.987,0.389,1.474,0.436C535.267,70.023,536.25,69.658,537.112,68.919z"/>
					</g>
					<g>
						<path style="fill:#003E58;" d="M540.651,71.385c-1.392-1.196-2.17-3.029-0.991-5.178c0.33,0.348,0.626,0.682,0.844,1.064
							c0.215,0.386,0.372,0.791,0.471,1.212C541.161,69.339,541.077,70.33,540.651,71.385z"/>
						<path style="fill:#003E58;" d="M540.61,71.452c-1.677-0.686-3.647-0.975-5.674,0.393c0.488,0.386,1.022,0.644,1.536,0.82
							c0.51,0.18,1.021,0.253,1.52,0.211C538.981,72.809,539.863,72.341,540.61,71.452z"/>
					</g>
					<g>
						<path style="fill:#003E58;" d="M544.484,73.357c-1.529-0.999-2.618-2.699-1.792-4.994
							C544.219,69.434,545.086,71.124,544.484,73.357z"/>
						<path style="fill:#003E58;" d="M544.451,73.429c-1.76-0.467-3.717-0.42-5.518,1.258
							C541.197,75.846,543.209,75.337,544.451,73.429z"/>
					</g>
					<g>
						<path style="fill:#003E58;" d="M527.181,45.622c0.199-0.894,0.497-1.762,1.173-2.403c0.661-0.644,1.557-1.067,2.762-1.141
							C530.685,43.948,529.482,45.273,527.181,45.622z"/>
						<path style="fill:#003E58;" d="M527.102,45.62c-0.091-0.901-0.424-1.806-0.891-2.611c-0.482-0.804-1.235-1.526-2.37-2.025
							C523.614,43.466,524.865,45.252,527.102,45.62z"/>
					</g>
					<g>
						<path style="fill:#003E58;" d="M527.407,50.126c0.025-0.455,0.093-0.908,0.217-1.338c0.128-0.43,0.356-0.841,0.626-1.206
							c0.554-0.733,1.362-1.287,2.554-1.538c-0.042,0.981-0.362,1.835-0.931,2.533C529.336,49.267,528.515,49.815,527.407,50.126z"
							/>
						<path style="fill:#003E58;" d="M527.328,50.136c-0.12-0.44-0.282-0.873-0.495-1.287c-0.21-0.415-0.428-0.812-0.734-1.175
							c-0.599-0.726-1.466-1.324-2.652-1.649c0.101,1.215,0.476,2.235,1.128,2.948C525.26,49.687,526.182,50.089,527.328,50.136z"/>
					</g>
					<g>
						<path style="fill:#003E58;" d="M528.186,54.363c-0.035-0.455-0.054-0.907,0.036-1.354c0.091-0.447,0.24-0.879,0.462-1.274
							c0.223-0.396,0.511-0.755,0.899-1.066c0.399-0.313,0.881-0.574,1.458-0.774c0.001,0.494-0.021,0.951-0.111,1.383
							c-0.095,0.433-0.263,0.842-0.504,1.223C529.958,53.258,529.247,53.902,528.186,54.363z"/>
						<path style="fill:#003E58;" d="M528.109,54.383c-0.176-0.42-0.42-0.822-0.663-1.21c-0.242-0.388-0.533-0.75-0.884-1.073
							c-0.349-0.322-0.764-0.605-1.232-0.831c-0.457-0.227-0.984-0.396-1.591-0.483c0.087,0.603,0.287,1.147,0.55,1.619
							c0.258,0.472,0.572,0.872,0.938,1.187C525.975,54.221,526.974,54.491,528.109,54.383z"/>
					</g>
					<g>
						<path style="fill:#003E58;" d="M529.556,58.446c-0.237-0.876-0.215-1.824,0.114-2.669c0.306-0.839,1.003-1.594,2.086-2.14
							c0.137,0.964,0.135,1.817-0.251,2.645C531.146,57.095,530.54,57.834,529.556,58.446z"/>
						<path style="fill:#003E58;" d="M529.483,58.477c-0.506-0.766-1.078-1.496-1.862-2.039c-0.807-0.534-1.743-0.91-2.977-0.92
							c0.344,1.184,1.075,2.067,1.873,2.592C527.346,58.629,528.377,58.75,529.483,58.477z"/>
					</g>
					<g>
						<path style="fill:#003E58;" d="M531.522,62.277c-0.169-0.424-0.297-0.863-0.364-1.304c-0.044-0.454-0.022-0.91,0.077-1.352
							c0.183-0.878,0.746-1.718,1.746-2.419c0.076,0.228,0.13,0.456,0.171,0.681c0.054,0.219,0.088,0.437,0.104,0.655
							c0.03,0.437-0.016,0.873-0.139,1.306C532.91,60.686,532.395,61.525,531.522,62.277z"/>
						<path style="fill:#003E58;" d="M531.454,62.319c-0.293-0.349-0.622-0.674-0.991-0.962c-0.345-0.301-0.727-0.565-1.156-0.775
							c-0.872-0.41-1.87-0.639-3.086-0.473c0.138,0.278,0.283,0.54,0.445,0.779c0.175,0.234,0.359,0.447,0.552,0.639
							c0.385,0.384,0.802,0.681,1.245,0.879C529.389,62.783,530.398,62.761,531.454,62.319z"/>
					</g>
					<path style="fill:#003E58;" d="M545.926,71.537c0.006,0.39-0.073,1.686-0.353,2.352c-0.28,0.667-1.18,1.607-1.487,1.861
						c0.916-0.116,1.716-1.276,2.298-1.17c0.28,0.082,3.819,1.546,7.444,2.999c1.807,0.738,3.622,1.509,5.006,2.202
						c1.382,0.694,2.346,1.281,2.593,1.469c0.543,0.337,0.919,0.441,1.215,0.456c0.294,0.012,0.476-0.069,0.476-0.069
						s0.072-0.172-0.003-0.468c-0.072-0.295-0.303-0.742-0.909-1.119c-0.292-0.219-1.368-0.795-2.84-1.429
						c-1.473-0.633-3.349-1.299-5.203-1.935c-3.714-1.248-7.297-2.521-7.532-2.712C546.14,73.651,546.407,72.264,545.926,71.537z"/>
				</g>
				<g>
					<path id="SVGID_x5F_00000128472247590783050820000012585510600862052742_x5F_" style="fill:none;" d="M532.349,85.637
						c21.824,10.693,44.525,4.207,52.325-0.438"/>
					<text>					<textPath  xlink:href="#SVGID_x5F_00000128472247590783050820000012585510600862052742_x5F_" startOffset="0%">
<tspan  style="fill:#FFFFFF; font-family:'BebasNeueBold'; font-size:8.3745px; letter-spacing:75;">Certification</tspan>					</textPath>
</text>
					<text transform="matrix(1 0 0 1 546.7505 100.6507)" style="fill:#003E58; font-family:'BebasNeueBold'; font-size:5.8586px;">since 1980</text>
				</g>
			</g>
		</g>
	</g>
	
		<linearGradient id="SVGID_00000109718357735001920930000012907457627091783610_" gradientUnits="userSpaceOnUse" x1="82.0292" y1="86.385" x2="4.6324" y2="130.1833">
		<stop  offset="0" style="stop-color:#EEF1F3"/>
		<stop  offset="1" style="stop-color:#CACED0"/>
	</linearGradient>
	<path style="fill:url(#SVGID_00000109718357735001920930000012907457627091783610_);" d="M34.394,138.859l-22.15-38.366
		C9.649,96,12.892,90.383,18.08,90.383h44.301c5.188,0,8.431,5.617,5.837,10.11l-22.15,38.366
		C43.473,143.352,36.988,143.352,34.394,138.859z"/>
</g>
</svg>
