<?xml version="1.0" encoding="UTF-8" standalone="no"?>
<!-- Created with Inkscape (http://www.inkscape.org/) -->

<svg
   xmlns:dc="http://purl.org/dc/elements/1.1/"
   xmlns:cc="http://creativecommons.org/ns#"
   xmlns:rdf="http://www.w3.org/1999/02/22-rdf-syntax-ns#"
   xmlns:svg="http://www.w3.org/2000/svg"
   xmlns="http://www.w3.org/2000/svg"
   xmlns:sodipodi="http://sodipodi.sourceforge.net/DTD/sodipodi-0.dtd"
   xmlns:inkscape="http://www.inkscape.org/namespaces/inkscape"
   version="1.1"
   id="svg815"
   xml:space="preserve"
   width="660"
   height="130"
   viewBox="0 0 660 130"
   sodipodi:docname="bienvenidos.svg"
   inkscape:version="0.92.4 (5da689c313, 2019-01-14)"><metadata
     id="metadata821"><rdf:RDF><cc:Work
         rdf:about=""><dc:format>image/svg+xml</dc:format><dc:type
           rdf:resource="http://purl.org/dc/dcmitype/StillImage" /><dc:title></dc:title></cc:Work></rdf:RDF></metadata><defs
     id="defs819"><radialGradient
       fx="0"
       fy="0"
       cx="0"
       cy="0"
       r="1"
       gradientUnits="userSpaceOnUse"
       gradientTransform="matrix(403.9425,0,0,-403.9425,375,250)"
       spreadMethod="pad"
       id="radialGradient841"><stop
         style="stop-opacity:1;stop-color:#ffffff"
         offset="0"
         id="stop837" /><stop
         style="stop-opacity:1;stop-color:#dadbdc"
         offset="1"
         id="stop839" /></radialGradient><clipPath
       clipPathUnits="userSpaceOnUse"
       id="clipPath851"><path
         d="M 0,500 H 750 V 0 H 0 Z"
         id="path849"
         inkscape:connector-curvature="0" /></clipPath><clipPath
       clipPathUnits="userSpaceOnUse"
       id="clipPath875"><path
         d="M 0,500 H 750 V 0 H 0 Z"
         id="path873"
         inkscape:connector-curvature="0" /></clipPath><clipPath
       clipPathUnits="userSpaceOnUse"
       id="clipPath891"><path
         d="M 0,500 H 750 V 0 H 0 Z"
         id="path889"
         inkscape:connector-curvature="0" /></clipPath><clipPath
       clipPathUnits="userSpaceOnUse"
       id="clipPath913"><path
         d="M 0,500 H 750 V 0 H 0 Z"
         id="path911"
         inkscape:connector-curvature="0" /></clipPath><clipPath
       clipPathUnits="userSpaceOnUse"
       id="clipPath957"><path
         d="M 0,500 H 750 V 0 H 0 Z"
         id="path955"
         inkscape:connector-curvature="0" /></clipPath><clipPath
       clipPathUnits="userSpaceOnUse"
       id="clipPath993"><path
         d="M 0,500 H 750 V 0 H 0 Z"
         id="path991"
         inkscape:connector-curvature="0" /></clipPath><clipPath
       clipPathUnits="userSpaceOnUse"
       id="clipPath1017"><path
         d="M 0,500 H 750 V 0 H 0 Z"
         id="path1015"
         inkscape:connector-curvature="0" /></clipPath><clipPath
       clipPathUnits="userSpaceOnUse"
       id="clipPath1041"><path
         d="M 0,500 H 750 V 0 H 0 Z"
         id="path1039"
         inkscape:connector-curvature="0" /></clipPath><clipPath
       clipPathUnits="userSpaceOnUse"
       id="clipPath1065"><path
         d="M 0,500 H 750 V 0 H 0 Z"
         id="path1063"
         inkscape:connector-curvature="0" /></clipPath><clipPath
       clipPathUnits="userSpaceOnUse"
       id="clipPath1093"><path
         d="M 0,500 H 750 V 0 H 0 Z"
         id="path1091"
         inkscape:connector-curvature="0" /></clipPath><clipPath
       clipPathUnits="userSpaceOnUse"
       id="clipPath1117"><path
         d="M 0,500 H 750 V 0 H 0 Z"
         id="path1115"
         inkscape:connector-curvature="0" /></clipPath><clipPath
       clipPathUnits="userSpaceOnUse"
       id="clipPath1165"><path
         d="M 0,500 H 750 V 0 H 0 Z"
         id="path1163"
         inkscape:connector-curvature="0" /></clipPath><clipPath
       clipPathUnits="userSpaceOnUse"
       id="clipPath1205"><path
         d="M 0,500 H 750 V 0 H 0 Z"
         id="path1203"
         inkscape:connector-curvature="0" /></clipPath><clipPath
       clipPathUnits="userSpaceOnUse"
       id="clipPath1309"><path
         d="M 0,500 H 750 V 0 H 0 Z"
         id="path1307"
         inkscape:connector-curvature="0" /></clipPath><clipPath
       clipPathUnits="userSpaceOnUse"
       id="clipPath1373"><path
         d="M 0,500 H 750 V 0 H 0 Z"
         id="path1371"
         inkscape:connector-curvature="0" /></clipPath></defs><sodipodi:namedview
     pagecolor="#ffffff"
     bordercolor="#666666"
     borderopacity="1"
     objecttolerance="10"
     gridtolerance="10"
     guidetolerance="10"
     inkscape:pageopacity="0"
     inkscape:pageshadow="2"
     inkscape:window-width="1920"
     inkscape:window-height="1017"
     id="namedview817"
     showgrid="false"
     inkscape:zoom="1.227"
     inkscape:cx="450.90029"
     inkscape:cy="146.3722"
     inkscape:window-x="-8"
     inkscape:window-y="-8"
     inkscape:window-maximized="1"
     inkscape:current-layer="g823" /><g
     id="g823"
     inkscape:groupmode="layer"
     inkscape:label="3700285"
     transform="matrix(1.3333333,0,0,-1.3333333,0,129.99999)"><g
       clip-path="url(#clipPath1117)"
       id="g1113"
       transform="translate(0,183.64833)" /><g
       transform="matrix(1.756689,0,0,1.4231745,433.70887,7.974764)"
       id="g1119"><path
         inkscape:connector-curvature="0"
         id="path1121"
         style="fill:#92278f;fill-opacity:1;fill-rule:nonzero;stroke:none"
         d="m 0,0 -22.015,22.015 c -1.237,1.237 -1.237,3.244 0,4.481 L 0,48.511 c 1.238,1.238 3.244,1.238 4.482,0 L 26.496,26.496 c 1.238,-1.237 1.238,-3.244 0,-4.481 L 4.482,0 C 3.244,-1.238 1.238,-1.238 0,0" /></g><g
       transform="matrix(1.5614573,0,0,1.5606479,353.14973,67.497741)"
       id="g1123"><path
         inkscape:connector-curvature="0"
         id="path1125"
         style="fill:#92278f;fill-opacity:1;fill-rule:nonzero;stroke:none"
         d="m 0,0 c -1.184,1.184 -2.789,1.849 -4.463,1.849 h -184.305 c -1.673,0 -3.279,-0.665 -4.462,-1.849 l -24.648,-24.648 H 24.648 Z" /></g><g
       transform="matrix(2.2057137,0,0,1.7629719,30.546192,6.336798)"
       id="g1127"><path
         inkscape:connector-curvature="0"
         id="path1129"
         style="fill:#000000;fill-opacity:1;fill-rule:nonzero;stroke:none"
         d="m 0,0 c 1.236,-1.236 2.913,-1.931 4.661,-1.931 h 128.075 c 1.748,0 3.424,0.695 4.661,1.931 L 149.7,12.303 H -12.303 Z" /></g><g
       transform="matrix(1.756689,0,0,1.4231745,440.97612,41.095343)"
       id="g1135"><path
         inkscape:connector-curvature="0"
         id="path1137"
         style="fill:#ffffff;fill-opacity:1;fill-rule:nonzero;stroke:none"
         d="m 0,0 c 0,-1.136 -0.921,-2.057 -2.057,-2.057 -1.136,0 -2.057,0.921 -2.057,2.057 0,1.136 0.921,2.057 2.057,2.057 C -0.921,2.057 0,1.136 0,0" /></g><text
       transform="scale(1.1185409,-0.89402184)"
       style="font-style:italic;font-variant:normal;font-weight:bold;font-stretch:normal;font-size:19.26344872px;font-family:Barlow;-inkscape-font-specification:Barlow-BoldItalic;writing-mode:lr-tb;fill:#000000;fill-opacity:1;fill-rule:nonzero;stroke:none;stroke-width:1.97195625"
       id="text1141"
       x="60.688835"
       y="-84.765396"><tspan
         sodipodi:role="line"
         id="tspan1139"
         x="60.688835"
         y="-84.765396"
         style="stroke-width:1.97195625">ENGLISH WORLD FOR</tspan></text>
<text
       transform="scale(1.1185409,-0.89402184)"
       style="font-variant:normal;font-weight:500;font-stretch:normal;font-size:42.32587051px;font-family:'Barlow Medium';-inkscape-font-specification:Barlow-Medium;writing-mode:lr-tb;fill:#ffffff;fill-opacity:1;fill-rule:nonzero;stroke:none;stroke-width:1.97195625"
       id="text1149"
       x="53.687294"
       y="-39.817829"><tspan
         sodipodi:role="line"
         id="tspan1147"
         x="53.687294"
         y="-39.817829"
         style="stroke-width:1.97195625">TEENAGERS</tspan></text>
<text
       transform="scale(1.2865227,-0.77728904)"
       style="font-variant:normal;font-weight:bold;font-stretch:normal;font-size:15.77565002px;font-family:Barlow;-inkscape-font-specification:Barlow-Bold;writing-mode:lr-tb;fill:#ffffff;fill-opacity:1;fill-rule:nonzero;stroke:none;stroke-width:2.26810336"
       id="text1157"
       x="35.065552"
       y="-15.114928"><tspan
         sodipodi:role="line"
         id="tspan1155"
         style="font-size:15.77565002px;stroke-width:2.26810336"
         x="35.065552"
         y="-15.114928">Welcome to the campus</tspan></text>
</g></svg>